%TF.GenerationSoftware,KiCad,Pcbnew,9.0.7*%
%TF.CreationDate,2026-03-19T15:10:09-04:00*%
%TF.ProjectId,Sch_matique_PCB_EQ03,536368e9-6d61-4746-9971-75655f504342,rev?*%
%TF.SameCoordinates,PX84c7b30PY820b040*%
%TF.FileFunction,Legend,Bot*%
%TF.FilePolarity,Positive*%
%FSLAX46Y46*%
G04 Gerber Fmt 4.6, Leading zero omitted, Abs format (unit mm)*
G04 Created by KiCad (PCBNEW 9.0.7) date 2026-03-19 15:10:09*
%MOMM*%
%LPD*%
G01*
G04 APERTURE LIST*
%ADD10C,0.100000*%
G04 APERTURE END LIST*
D10*
X84918972Y17422581D02*
X84585639Y16422581D01*
X84585639Y16422581D02*
X84252306Y17422581D01*
X83918972Y16422581D02*
X83918972Y17422581D01*
X83442782Y16422581D02*
X83442782Y17422581D01*
X83442782Y17422581D02*
X82871354Y16422581D01*
X82871354Y16422581D02*
X82871354Y17422581D01*
X77271503Y19914962D02*
X77366741Y19962581D01*
X77366741Y19962581D02*
X77509598Y19962581D01*
X77509598Y19962581D02*
X77652455Y19914962D01*
X77652455Y19914962D02*
X77747693Y19819724D01*
X77747693Y19819724D02*
X77795312Y19724486D01*
X77795312Y19724486D02*
X77842931Y19534010D01*
X77842931Y19534010D02*
X77842931Y19391153D01*
X77842931Y19391153D02*
X77795312Y19200677D01*
X77795312Y19200677D02*
X77747693Y19105439D01*
X77747693Y19105439D02*
X77652455Y19010200D01*
X77652455Y19010200D02*
X77509598Y18962581D01*
X77509598Y18962581D02*
X77414360Y18962581D01*
X77414360Y18962581D02*
X77271503Y19010200D01*
X77271503Y19010200D02*
X77223884Y19057820D01*
X77223884Y19057820D02*
X77223884Y19391153D01*
X77223884Y19391153D02*
X77414360Y19391153D01*
X76795312Y18962581D02*
X76795312Y19962581D01*
X76795312Y19962581D02*
X76223884Y18962581D01*
X76223884Y18962581D02*
X76223884Y19962581D01*
X75747693Y18962581D02*
X75747693Y19962581D01*
X75747693Y19962581D02*
X75509598Y19962581D01*
X75509598Y19962581D02*
X75366741Y19914962D01*
X75366741Y19914962D02*
X75271503Y19819724D01*
X75271503Y19819724D02*
X75223884Y19724486D01*
X75223884Y19724486D02*
X75176265Y19534010D01*
X75176265Y19534010D02*
X75176265Y19391153D01*
X75176265Y19391153D02*
X75223884Y19200677D01*
X75223884Y19200677D02*
X75271503Y19105439D01*
X75271503Y19105439D02*
X75366741Y19010200D01*
X75366741Y19010200D02*
X75509598Y18962581D01*
X75509598Y18962581D02*
X75747693Y18962581D01*
X78509598Y32662581D02*
X78176265Y31662581D01*
X78176265Y31662581D02*
X77842932Y32662581D01*
X76938170Y31662581D02*
X77271503Y32138772D01*
X77509598Y31662581D02*
X77509598Y32662581D01*
X77509598Y32662581D02*
X77128646Y32662581D01*
X77128646Y32662581D02*
X77033408Y32614962D01*
X77033408Y32614962D02*
X76985789Y32567343D01*
X76985789Y32567343D02*
X76938170Y32472105D01*
X76938170Y32472105D02*
X76938170Y32329248D01*
X76938170Y32329248D02*
X76985789Y32234010D01*
X76985789Y32234010D02*
X77033408Y32186391D01*
X77033408Y32186391D02*
X77128646Y32138772D01*
X77128646Y32138772D02*
X77509598Y32138772D01*
X76509598Y32186391D02*
X76176265Y32186391D01*
X76033408Y31662581D02*
X76509598Y31662581D01*
X76509598Y31662581D02*
X76509598Y32662581D01*
X76509598Y32662581D02*
X76033408Y32662581D01*
X75271503Y32186391D02*
X75604836Y32186391D01*
X75604836Y31662581D02*
X75604836Y32662581D01*
X75604836Y32662581D02*
X75128646Y32662581D01*
X84585639Y22502581D02*
X84395163Y22502581D01*
X84395163Y22502581D02*
X84299925Y22454962D01*
X84299925Y22454962D02*
X84204687Y22359724D01*
X84204687Y22359724D02*
X84157068Y22169248D01*
X84157068Y22169248D02*
X84157068Y21835915D01*
X84157068Y21835915D02*
X84204687Y21645439D01*
X84204687Y21645439D02*
X84299925Y21550200D01*
X84299925Y21550200D02*
X84395163Y21502581D01*
X84395163Y21502581D02*
X84585639Y21502581D01*
X84585639Y21502581D02*
X84680877Y21550200D01*
X84680877Y21550200D02*
X84776115Y21645439D01*
X84776115Y21645439D02*
X84823734Y21835915D01*
X84823734Y21835915D02*
X84823734Y22169248D01*
X84823734Y22169248D02*
X84776115Y22359724D01*
X84776115Y22359724D02*
X84680877Y22454962D01*
X84680877Y22454962D02*
X84585639Y22502581D01*
X83728496Y22502581D02*
X83728496Y21693058D01*
X83728496Y21693058D02*
X83680877Y21597820D01*
X83680877Y21597820D02*
X83633258Y21550200D01*
X83633258Y21550200D02*
X83538020Y21502581D01*
X83538020Y21502581D02*
X83347544Y21502581D01*
X83347544Y21502581D02*
X83252306Y21550200D01*
X83252306Y21550200D02*
X83204687Y21597820D01*
X83204687Y21597820D02*
X83157068Y21693058D01*
X83157068Y21693058D02*
X83157068Y22502581D01*
X82823734Y22502581D02*
X82252306Y22502581D01*
X82538020Y21502581D02*
X82538020Y22502581D01*
X81395163Y21502581D02*
X81966591Y21502581D01*
X81680877Y21502581D02*
X81680877Y22502581D01*
X81680877Y22502581D02*
X81776115Y22359724D01*
X81776115Y22359724D02*
X81871353Y22264486D01*
X81871353Y22264486D02*
X81966591Y22216867D01*
X76890550Y17422581D02*
X76557217Y16422581D01*
X76557217Y16422581D02*
X76223884Y17422581D01*
X75890550Y16422581D02*
X75890550Y17422581D01*
X75890550Y17422581D02*
X75557217Y16708296D01*
X75557217Y16708296D02*
X75223884Y17422581D01*
X75223884Y17422581D02*
X75223884Y16422581D01*
X84204687Y31757820D02*
X84252306Y31710200D01*
X84252306Y31710200D02*
X84395163Y31662581D01*
X84395163Y31662581D02*
X84490401Y31662581D01*
X84490401Y31662581D02*
X84633258Y31710200D01*
X84633258Y31710200D02*
X84728496Y31805439D01*
X84728496Y31805439D02*
X84776115Y31900677D01*
X84776115Y31900677D02*
X84823734Y32091153D01*
X84823734Y32091153D02*
X84823734Y32234010D01*
X84823734Y32234010D02*
X84776115Y32424486D01*
X84776115Y32424486D02*
X84728496Y32519724D01*
X84728496Y32519724D02*
X84633258Y32614962D01*
X84633258Y32614962D02*
X84490401Y32662581D01*
X84490401Y32662581D02*
X84395163Y32662581D01*
X84395163Y32662581D02*
X84252306Y32614962D01*
X84252306Y32614962D02*
X84204687Y32567343D01*
X83823734Y31710200D02*
X83680877Y31662581D01*
X83680877Y31662581D02*
X83442782Y31662581D01*
X83442782Y31662581D02*
X83347544Y31710200D01*
X83347544Y31710200D02*
X83299925Y31757820D01*
X83299925Y31757820D02*
X83252306Y31853058D01*
X83252306Y31853058D02*
X83252306Y31948296D01*
X83252306Y31948296D02*
X83299925Y32043534D01*
X83299925Y32043534D02*
X83347544Y32091153D01*
X83347544Y32091153D02*
X83442782Y32138772D01*
X83442782Y32138772D02*
X83633258Y32186391D01*
X83633258Y32186391D02*
X83728496Y32234010D01*
X83728496Y32234010D02*
X83776115Y32281629D01*
X83776115Y32281629D02*
X83823734Y32376867D01*
X83823734Y32376867D02*
X83823734Y32472105D01*
X83823734Y32472105D02*
X83776115Y32567343D01*
X83776115Y32567343D02*
X83728496Y32614962D01*
X83728496Y32614962D02*
X83633258Y32662581D01*
X83633258Y32662581D02*
X83395163Y32662581D01*
X83395163Y32662581D02*
X83252306Y32614962D01*
X84585639Y25042581D02*
X84395163Y25042581D01*
X84395163Y25042581D02*
X84299925Y24994962D01*
X84299925Y24994962D02*
X84204687Y24899724D01*
X84204687Y24899724D02*
X84157068Y24709248D01*
X84157068Y24709248D02*
X84157068Y24375915D01*
X84157068Y24375915D02*
X84204687Y24185439D01*
X84204687Y24185439D02*
X84299925Y24090200D01*
X84299925Y24090200D02*
X84395163Y24042581D01*
X84395163Y24042581D02*
X84585639Y24042581D01*
X84585639Y24042581D02*
X84680877Y24090200D01*
X84680877Y24090200D02*
X84776115Y24185439D01*
X84776115Y24185439D02*
X84823734Y24375915D01*
X84823734Y24375915D02*
X84823734Y24709248D01*
X84823734Y24709248D02*
X84776115Y24899724D01*
X84776115Y24899724D02*
X84680877Y24994962D01*
X84680877Y24994962D02*
X84585639Y25042581D01*
X83728496Y25042581D02*
X83728496Y24233058D01*
X83728496Y24233058D02*
X83680877Y24137820D01*
X83680877Y24137820D02*
X83633258Y24090200D01*
X83633258Y24090200D02*
X83538020Y24042581D01*
X83538020Y24042581D02*
X83347544Y24042581D01*
X83347544Y24042581D02*
X83252306Y24090200D01*
X83252306Y24090200D02*
X83204687Y24137820D01*
X83204687Y24137820D02*
X83157068Y24233058D01*
X83157068Y24233058D02*
X83157068Y25042581D01*
X82823734Y25042581D02*
X82252306Y25042581D01*
X82538020Y24042581D02*
X82538020Y25042581D01*
X81966591Y24947343D02*
X81918972Y24994962D01*
X81918972Y24994962D02*
X81823734Y25042581D01*
X81823734Y25042581D02*
X81585639Y25042581D01*
X81585639Y25042581D02*
X81490401Y24994962D01*
X81490401Y24994962D02*
X81442782Y24947343D01*
X81442782Y24947343D02*
X81395163Y24852105D01*
X81395163Y24852105D02*
X81395163Y24756867D01*
X81395163Y24756867D02*
X81442782Y24614010D01*
X81442782Y24614010D02*
X82014210Y24042581D01*
X82014210Y24042581D02*
X81395163Y24042581D01*
X84252306Y19914962D02*
X84347544Y19962581D01*
X84347544Y19962581D02*
X84490401Y19962581D01*
X84490401Y19962581D02*
X84633258Y19914962D01*
X84633258Y19914962D02*
X84728496Y19819724D01*
X84728496Y19819724D02*
X84776115Y19724486D01*
X84776115Y19724486D02*
X84823734Y19534010D01*
X84823734Y19534010D02*
X84823734Y19391153D01*
X84823734Y19391153D02*
X84776115Y19200677D01*
X84776115Y19200677D02*
X84728496Y19105439D01*
X84728496Y19105439D02*
X84633258Y19010200D01*
X84633258Y19010200D02*
X84490401Y18962581D01*
X84490401Y18962581D02*
X84395163Y18962581D01*
X84395163Y18962581D02*
X84252306Y19010200D01*
X84252306Y19010200D02*
X84204687Y19057820D01*
X84204687Y19057820D02*
X84204687Y19391153D01*
X84204687Y19391153D02*
X84395163Y19391153D01*
X83776115Y18962581D02*
X83776115Y19962581D01*
X83776115Y19962581D02*
X83204687Y18962581D01*
X83204687Y18962581D02*
X83204687Y19962581D01*
X82728496Y18962581D02*
X82728496Y19962581D01*
X82728496Y19962581D02*
X82490401Y19962581D01*
X82490401Y19962581D02*
X82347544Y19914962D01*
X82347544Y19914962D02*
X82252306Y19819724D01*
X82252306Y19819724D02*
X82204687Y19724486D01*
X82204687Y19724486D02*
X82157068Y19534010D01*
X82157068Y19534010D02*
X82157068Y19391153D01*
X82157068Y19391153D02*
X82204687Y19200677D01*
X82204687Y19200677D02*
X82252306Y19105439D01*
X82252306Y19105439D02*
X82347544Y19010200D01*
X82347544Y19010200D02*
X82490401Y18962581D01*
X82490401Y18962581D02*
X82728496Y18962581D01*
X79842931Y26582581D02*
X79842931Y27582581D01*
X79842931Y27582581D02*
X79461979Y27582581D01*
X79461979Y27582581D02*
X79366741Y27534962D01*
X79366741Y27534962D02*
X79319122Y27487343D01*
X79319122Y27487343D02*
X79271503Y27392105D01*
X79271503Y27392105D02*
X79271503Y27249248D01*
X79271503Y27249248D02*
X79319122Y27154010D01*
X79319122Y27154010D02*
X79366741Y27106391D01*
X79366741Y27106391D02*
X79461979Y27058772D01*
X79461979Y27058772D02*
X79842931Y27058772D01*
X78842931Y26582581D02*
X78842931Y27582581D01*
X78842931Y27582581D02*
X78509598Y26868296D01*
X78509598Y26868296D02*
X78176265Y27582581D01*
X78176265Y27582581D02*
X78176265Y26582581D01*
X77509598Y27582581D02*
X77319122Y27582581D01*
X77319122Y27582581D02*
X77223884Y27534962D01*
X77223884Y27534962D02*
X77128646Y27439724D01*
X77128646Y27439724D02*
X77081027Y27249248D01*
X77081027Y27249248D02*
X77081027Y26915915D01*
X77081027Y26915915D02*
X77128646Y26725439D01*
X77128646Y26725439D02*
X77223884Y26630200D01*
X77223884Y26630200D02*
X77319122Y26582581D01*
X77319122Y26582581D02*
X77509598Y26582581D01*
X77509598Y26582581D02*
X77604836Y26630200D01*
X77604836Y26630200D02*
X77700074Y26725439D01*
X77700074Y26725439D02*
X77747693Y26915915D01*
X77747693Y26915915D02*
X77747693Y27249248D01*
X77747693Y27249248D02*
X77700074Y27439724D01*
X77700074Y27439724D02*
X77604836Y27534962D01*
X77604836Y27534962D02*
X77509598Y27582581D01*
X76652455Y26582581D02*
X76652455Y27582581D01*
X76652455Y27582581D02*
X76414360Y27582581D01*
X76414360Y27582581D02*
X76271503Y27534962D01*
X76271503Y27534962D02*
X76176265Y27439724D01*
X76176265Y27439724D02*
X76128646Y27344486D01*
X76128646Y27344486D02*
X76081027Y27154010D01*
X76081027Y27154010D02*
X76081027Y27011153D01*
X76081027Y27011153D02*
X76128646Y26820677D01*
X76128646Y26820677D02*
X76176265Y26725439D01*
X76176265Y26725439D02*
X76271503Y26630200D01*
X76271503Y26630200D02*
X76414360Y26582581D01*
X76414360Y26582581D02*
X76652455Y26582581D01*
X75652455Y27106391D02*
X75319122Y27106391D01*
X75176265Y26582581D02*
X75652455Y26582581D01*
X75652455Y26582581D02*
X75652455Y27582581D01*
X75652455Y27582581D02*
X75176265Y27582581D01*
X77557217Y29170200D02*
X77414360Y29122581D01*
X77414360Y29122581D02*
X77176265Y29122581D01*
X77176265Y29122581D02*
X77081027Y29170200D01*
X77081027Y29170200D02*
X77033408Y29217820D01*
X77033408Y29217820D02*
X76985789Y29313058D01*
X76985789Y29313058D02*
X76985789Y29408296D01*
X76985789Y29408296D02*
X77033408Y29503534D01*
X77033408Y29503534D02*
X77081027Y29551153D01*
X77081027Y29551153D02*
X77176265Y29598772D01*
X77176265Y29598772D02*
X77366741Y29646391D01*
X77366741Y29646391D02*
X77461979Y29694010D01*
X77461979Y29694010D02*
X77509598Y29741629D01*
X77509598Y29741629D02*
X77557217Y29836867D01*
X77557217Y29836867D02*
X77557217Y29932105D01*
X77557217Y29932105D02*
X77509598Y30027343D01*
X77509598Y30027343D02*
X77461979Y30074962D01*
X77461979Y30074962D02*
X77366741Y30122581D01*
X77366741Y30122581D02*
X77128646Y30122581D01*
X77128646Y30122581D02*
X76985789Y30074962D01*
X76081027Y29122581D02*
X76557217Y29122581D01*
X76557217Y29122581D02*
X76557217Y30122581D01*
X75747693Y29122581D02*
X75747693Y30122581D01*
X75747693Y30122581D02*
X75366741Y30122581D01*
X75366741Y30122581D02*
X75271503Y30074962D01*
X75271503Y30074962D02*
X75223884Y30027343D01*
X75223884Y30027343D02*
X75176265Y29932105D01*
X75176265Y29932105D02*
X75176265Y29789248D01*
X75176265Y29789248D02*
X75223884Y29694010D01*
X75223884Y29694010D02*
X75271503Y29646391D01*
X75271503Y29646391D02*
X75366741Y29598772D01*
X75366741Y29598772D02*
X75747693Y29598772D01*
X77647694Y30400200D02*
X75085789Y30400200D01*
X76700074Y22026391D02*
X76366741Y22026391D01*
X76223884Y21502581D02*
X76700074Y21502581D01*
X76700074Y21502581D02*
X76700074Y22502581D01*
X76700074Y22502581D02*
X76223884Y22502581D01*
X75795312Y21502581D02*
X75795312Y22502581D01*
X75795312Y22502581D02*
X75223884Y21502581D01*
X75223884Y21502581D02*
X75223884Y22502581D01*
X84776115Y26582581D02*
X84776115Y27582581D01*
X84299925Y26582581D02*
X84299925Y27582581D01*
X84299925Y27582581D02*
X83966592Y26868296D01*
X83966592Y26868296D02*
X83633259Y27582581D01*
X83633259Y27582581D02*
X83633259Y26582581D01*
X82966592Y27582581D02*
X82776116Y27582581D01*
X82776116Y27582581D02*
X82680878Y27534962D01*
X82680878Y27534962D02*
X82585640Y27439724D01*
X82585640Y27439724D02*
X82538021Y27249248D01*
X82538021Y27249248D02*
X82538021Y26915915D01*
X82538021Y26915915D02*
X82585640Y26725439D01*
X82585640Y26725439D02*
X82680878Y26630200D01*
X82680878Y26630200D02*
X82776116Y26582581D01*
X82776116Y26582581D02*
X82966592Y26582581D01*
X82966592Y26582581D02*
X83061830Y26630200D01*
X83061830Y26630200D02*
X83157068Y26725439D01*
X83157068Y26725439D02*
X83204687Y26915915D01*
X83204687Y26915915D02*
X83204687Y27249248D01*
X83204687Y27249248D02*
X83157068Y27439724D01*
X83157068Y27439724D02*
X83061830Y27534962D01*
X83061830Y27534962D02*
X82966592Y27582581D01*
X82109449Y26582581D02*
X82109449Y27582581D01*
X82109449Y27582581D02*
X81871354Y27582581D01*
X81871354Y27582581D02*
X81728497Y27534962D01*
X81728497Y27534962D02*
X81633259Y27439724D01*
X81633259Y27439724D02*
X81585640Y27344486D01*
X81585640Y27344486D02*
X81538021Y27154010D01*
X81538021Y27154010D02*
X81538021Y27011153D01*
X81538021Y27011153D02*
X81585640Y26820677D01*
X81585640Y26820677D02*
X81633259Y26725439D01*
X81633259Y26725439D02*
X81728497Y26630200D01*
X81728497Y26630200D02*
X81871354Y26582581D01*
X81871354Y26582581D02*
X82109449Y26582581D01*
X81109449Y27106391D02*
X80776116Y27106391D01*
X80633259Y26582581D02*
X81109449Y26582581D01*
X81109449Y26582581D02*
X81109449Y27582581D01*
X81109449Y27582581D02*
X80633259Y27582581D01*
X76795312Y24042581D02*
X76795312Y25042581D01*
X76795312Y25042581D02*
X76414360Y25042581D01*
X76414360Y25042581D02*
X76319122Y24994962D01*
X76319122Y24994962D02*
X76271503Y24947343D01*
X76271503Y24947343D02*
X76223884Y24852105D01*
X76223884Y24852105D02*
X76223884Y24709248D01*
X76223884Y24709248D02*
X76271503Y24614010D01*
X76271503Y24614010D02*
X76319122Y24566391D01*
X76319122Y24566391D02*
X76414360Y24518772D01*
X76414360Y24518772D02*
X76795312Y24518772D01*
X75795312Y24042581D02*
X75795312Y25042581D01*
X75795312Y24566391D02*
X75223884Y24566391D01*
X75223884Y24042581D02*
X75223884Y25042581D01*
X84442782Y29646391D02*
X84776115Y29646391D01*
X84776115Y29122581D02*
X84776115Y30122581D01*
X84776115Y30122581D02*
X84299925Y30122581D01*
X83442782Y29122581D02*
X83918972Y29122581D01*
X83918972Y29122581D02*
X83918972Y30122581D01*
X83252305Y30122581D02*
X82680877Y30122581D01*
X82966591Y29122581D02*
X82966591Y30122581D01*
X84914211Y30400200D02*
X82685639Y30400200D01*
X34060074Y10282581D02*
X34060074Y11282581D01*
X34060074Y11282581D02*
X33679122Y11282581D01*
X33679122Y11282581D02*
X33583884Y11234962D01*
X33583884Y11234962D02*
X33536265Y11187343D01*
X33536265Y11187343D02*
X33488646Y11092105D01*
X33488646Y11092105D02*
X33488646Y10949248D01*
X33488646Y10949248D02*
X33536265Y10854010D01*
X33536265Y10854010D02*
X33583884Y10806391D01*
X33583884Y10806391D02*
X33679122Y10758772D01*
X33679122Y10758772D02*
X34060074Y10758772D01*
X33060074Y10282581D02*
X33060074Y11282581D01*
X33060074Y11282581D02*
X32821979Y11282581D01*
X32821979Y11282581D02*
X32679122Y11234962D01*
X32679122Y11234962D02*
X32583884Y11139724D01*
X32583884Y11139724D02*
X32536265Y11044486D01*
X32536265Y11044486D02*
X32488646Y10854010D01*
X32488646Y10854010D02*
X32488646Y10711153D01*
X32488646Y10711153D02*
X32536265Y10520677D01*
X32536265Y10520677D02*
X32583884Y10425439D01*
X32583884Y10425439D02*
X32679122Y10330200D01*
X32679122Y10330200D02*
X32821979Y10282581D01*
X32821979Y10282581D02*
X33060074Y10282581D01*
X31631503Y11282581D02*
X31821979Y11282581D01*
X31821979Y11282581D02*
X31917217Y11234962D01*
X31917217Y11234962D02*
X31964836Y11187343D01*
X31964836Y11187343D02*
X32060074Y11044486D01*
X32060074Y11044486D02*
X32107693Y10854010D01*
X32107693Y10854010D02*
X32107693Y10473058D01*
X32107693Y10473058D02*
X32060074Y10377820D01*
X32060074Y10377820D02*
X32012455Y10330200D01*
X32012455Y10330200D02*
X31917217Y10282581D01*
X31917217Y10282581D02*
X31726741Y10282581D01*
X31726741Y10282581D02*
X31631503Y10330200D01*
X31631503Y10330200D02*
X31583884Y10377820D01*
X31583884Y10377820D02*
X31536265Y10473058D01*
X31536265Y10473058D02*
X31536265Y10711153D01*
X31536265Y10711153D02*
X31583884Y10806391D01*
X31583884Y10806391D02*
X31631503Y10854010D01*
X31631503Y10854010D02*
X31726741Y10901629D01*
X31726741Y10901629D02*
X31917217Y10901629D01*
X31917217Y10901629D02*
X32012455Y10854010D01*
X32012455Y10854010D02*
X32060074Y10806391D01*
X32060074Y10806391D02*
X32107693Y10711153D01*
X34060074Y53462581D02*
X34060074Y54462581D01*
X34060074Y54462581D02*
X33679122Y54462581D01*
X33679122Y54462581D02*
X33583884Y54414962D01*
X33583884Y54414962D02*
X33536265Y54367343D01*
X33536265Y54367343D02*
X33488646Y54272105D01*
X33488646Y54272105D02*
X33488646Y54129248D01*
X33488646Y54129248D02*
X33536265Y54034010D01*
X33536265Y54034010D02*
X33583884Y53986391D01*
X33583884Y53986391D02*
X33679122Y53938772D01*
X33679122Y53938772D02*
X34060074Y53938772D01*
X32726741Y53986391D02*
X32583884Y53938772D01*
X32583884Y53938772D02*
X32536265Y53891153D01*
X32536265Y53891153D02*
X32488646Y53795915D01*
X32488646Y53795915D02*
X32488646Y53653058D01*
X32488646Y53653058D02*
X32536265Y53557820D01*
X32536265Y53557820D02*
X32583884Y53510200D01*
X32583884Y53510200D02*
X32679122Y53462581D01*
X32679122Y53462581D02*
X33060074Y53462581D01*
X33060074Y53462581D02*
X33060074Y54462581D01*
X33060074Y54462581D02*
X32726741Y54462581D01*
X32726741Y54462581D02*
X32631503Y54414962D01*
X32631503Y54414962D02*
X32583884Y54367343D01*
X32583884Y54367343D02*
X32536265Y54272105D01*
X32536265Y54272105D02*
X32536265Y54176867D01*
X32536265Y54176867D02*
X32583884Y54081629D01*
X32583884Y54081629D02*
X32631503Y54034010D01*
X32631503Y54034010D02*
X32726741Y53986391D01*
X32726741Y53986391D02*
X33060074Y53986391D01*
X32107693Y54367343D02*
X32060074Y54414962D01*
X32060074Y54414962D02*
X31964836Y54462581D01*
X31964836Y54462581D02*
X31726741Y54462581D01*
X31726741Y54462581D02*
X31631503Y54414962D01*
X31631503Y54414962D02*
X31583884Y54367343D01*
X31583884Y54367343D02*
X31536265Y54272105D01*
X31536265Y54272105D02*
X31536265Y54176867D01*
X31536265Y54176867D02*
X31583884Y54034010D01*
X31583884Y54034010D02*
X32155312Y53462581D01*
X32155312Y53462581D02*
X31536265Y53462581D01*
X34060074Y25522581D02*
X34060074Y26522581D01*
X34060074Y26522581D02*
X33679122Y26522581D01*
X33679122Y26522581D02*
X33583884Y26474962D01*
X33583884Y26474962D02*
X33536265Y26427343D01*
X33536265Y26427343D02*
X33488646Y26332105D01*
X33488646Y26332105D02*
X33488646Y26189248D01*
X33488646Y26189248D02*
X33536265Y26094010D01*
X33536265Y26094010D02*
X33583884Y26046391D01*
X33583884Y26046391D02*
X33679122Y25998772D01*
X33679122Y25998772D02*
X34060074Y25998772D01*
X33060074Y25522581D02*
X33060074Y26522581D01*
X33060074Y26522581D02*
X32821979Y26522581D01*
X32821979Y26522581D02*
X32679122Y26474962D01*
X32679122Y26474962D02*
X32583884Y26379724D01*
X32583884Y26379724D02*
X32536265Y26284486D01*
X32536265Y26284486D02*
X32488646Y26094010D01*
X32488646Y26094010D02*
X32488646Y25951153D01*
X32488646Y25951153D02*
X32536265Y25760677D01*
X32536265Y25760677D02*
X32583884Y25665439D01*
X32583884Y25665439D02*
X32679122Y25570200D01*
X32679122Y25570200D02*
X32821979Y25522581D01*
X32821979Y25522581D02*
X33060074Y25522581D01*
X31869598Y26522581D02*
X31774360Y26522581D01*
X31774360Y26522581D02*
X31679122Y26474962D01*
X31679122Y26474962D02*
X31631503Y26427343D01*
X31631503Y26427343D02*
X31583884Y26332105D01*
X31583884Y26332105D02*
X31536265Y26141629D01*
X31536265Y26141629D02*
X31536265Y25903534D01*
X31536265Y25903534D02*
X31583884Y25713058D01*
X31583884Y25713058D02*
X31631503Y25617820D01*
X31631503Y25617820D02*
X31679122Y25570200D01*
X31679122Y25570200D02*
X31774360Y25522581D01*
X31774360Y25522581D02*
X31869598Y25522581D01*
X31869598Y25522581D02*
X31964836Y25570200D01*
X31964836Y25570200D02*
X32012455Y25617820D01*
X32012455Y25617820D02*
X32060074Y25713058D01*
X32060074Y25713058D02*
X32107693Y25903534D01*
X32107693Y25903534D02*
X32107693Y26141629D01*
X32107693Y26141629D02*
X32060074Y26332105D01*
X32060074Y26332105D02*
X32012455Y26427343D01*
X32012455Y26427343D02*
X31964836Y26474962D01*
X31964836Y26474962D02*
X31869598Y26522581D01*
X34060074Y15362581D02*
X34060074Y16362581D01*
X34060074Y16362581D02*
X33679122Y16362581D01*
X33679122Y16362581D02*
X33583884Y16314962D01*
X33583884Y16314962D02*
X33536265Y16267343D01*
X33536265Y16267343D02*
X33488646Y16172105D01*
X33488646Y16172105D02*
X33488646Y16029248D01*
X33488646Y16029248D02*
X33536265Y15934010D01*
X33536265Y15934010D02*
X33583884Y15886391D01*
X33583884Y15886391D02*
X33679122Y15838772D01*
X33679122Y15838772D02*
X34060074Y15838772D01*
X33060074Y15362581D02*
X33060074Y16362581D01*
X33060074Y16362581D02*
X32821979Y16362581D01*
X32821979Y16362581D02*
X32679122Y16314962D01*
X32679122Y16314962D02*
X32583884Y16219724D01*
X32583884Y16219724D02*
X32536265Y16124486D01*
X32536265Y16124486D02*
X32488646Y15934010D01*
X32488646Y15934010D02*
X32488646Y15791153D01*
X32488646Y15791153D02*
X32536265Y15600677D01*
X32536265Y15600677D02*
X32583884Y15505439D01*
X32583884Y15505439D02*
X32679122Y15410200D01*
X32679122Y15410200D02*
X32821979Y15362581D01*
X32821979Y15362581D02*
X33060074Y15362581D01*
X31631503Y16029248D02*
X31631503Y15362581D01*
X31869598Y16410200D02*
X32107693Y15695915D01*
X32107693Y15695915D02*
X31488646Y15695915D01*
X34060074Y56002581D02*
X34060074Y57002581D01*
X34060074Y57002581D02*
X33679122Y57002581D01*
X33679122Y57002581D02*
X33583884Y56954962D01*
X33583884Y56954962D02*
X33536265Y56907343D01*
X33536265Y56907343D02*
X33488646Y56812105D01*
X33488646Y56812105D02*
X33488646Y56669248D01*
X33488646Y56669248D02*
X33536265Y56574010D01*
X33536265Y56574010D02*
X33583884Y56526391D01*
X33583884Y56526391D02*
X33679122Y56478772D01*
X33679122Y56478772D02*
X34060074Y56478772D01*
X32726741Y56526391D02*
X32583884Y56478772D01*
X32583884Y56478772D02*
X32536265Y56431153D01*
X32536265Y56431153D02*
X32488646Y56335915D01*
X32488646Y56335915D02*
X32488646Y56193058D01*
X32488646Y56193058D02*
X32536265Y56097820D01*
X32536265Y56097820D02*
X32583884Y56050200D01*
X32583884Y56050200D02*
X32679122Y56002581D01*
X32679122Y56002581D02*
X33060074Y56002581D01*
X33060074Y56002581D02*
X33060074Y57002581D01*
X33060074Y57002581D02*
X32726741Y57002581D01*
X32726741Y57002581D02*
X32631503Y56954962D01*
X32631503Y56954962D02*
X32583884Y56907343D01*
X32583884Y56907343D02*
X32536265Y56812105D01*
X32536265Y56812105D02*
X32536265Y56716867D01*
X32536265Y56716867D02*
X32583884Y56621629D01*
X32583884Y56621629D02*
X32631503Y56574010D01*
X32631503Y56574010D02*
X32726741Y56526391D01*
X32726741Y56526391D02*
X33060074Y56526391D01*
X31536265Y56002581D02*
X32107693Y56002581D01*
X31821979Y56002581D02*
X31821979Y57002581D01*
X31821979Y57002581D02*
X31917217Y56859724D01*
X31917217Y56859724D02*
X32012455Y56764486D01*
X32012455Y56764486D02*
X32107693Y56716867D01*
X34060074Y45842581D02*
X34060074Y46842581D01*
X34060074Y46842581D02*
X33679122Y46842581D01*
X33679122Y46842581D02*
X33583884Y46794962D01*
X33583884Y46794962D02*
X33536265Y46747343D01*
X33536265Y46747343D02*
X33488646Y46652105D01*
X33488646Y46652105D02*
X33488646Y46509248D01*
X33488646Y46509248D02*
X33536265Y46414010D01*
X33536265Y46414010D02*
X33583884Y46366391D01*
X33583884Y46366391D02*
X33679122Y46318772D01*
X33679122Y46318772D02*
X34060074Y46318772D01*
X32726741Y46366391D02*
X32583884Y46318772D01*
X32583884Y46318772D02*
X32536265Y46271153D01*
X32536265Y46271153D02*
X32488646Y46175915D01*
X32488646Y46175915D02*
X32488646Y46033058D01*
X32488646Y46033058D02*
X32536265Y45937820D01*
X32536265Y45937820D02*
X32583884Y45890200D01*
X32583884Y45890200D02*
X32679122Y45842581D01*
X32679122Y45842581D02*
X33060074Y45842581D01*
X33060074Y45842581D02*
X33060074Y46842581D01*
X33060074Y46842581D02*
X32726741Y46842581D01*
X32726741Y46842581D02*
X32631503Y46794962D01*
X32631503Y46794962D02*
X32583884Y46747343D01*
X32583884Y46747343D02*
X32536265Y46652105D01*
X32536265Y46652105D02*
X32536265Y46556867D01*
X32536265Y46556867D02*
X32583884Y46461629D01*
X32583884Y46461629D02*
X32631503Y46414010D01*
X32631503Y46414010D02*
X32726741Y46366391D01*
X32726741Y46366391D02*
X33060074Y46366391D01*
X31583884Y46842581D02*
X32060074Y46842581D01*
X32060074Y46842581D02*
X32107693Y46366391D01*
X32107693Y46366391D02*
X32060074Y46414010D01*
X32060074Y46414010D02*
X31964836Y46461629D01*
X31964836Y46461629D02*
X31726741Y46461629D01*
X31726741Y46461629D02*
X31631503Y46414010D01*
X31631503Y46414010D02*
X31583884Y46366391D01*
X31583884Y46366391D02*
X31536265Y46271153D01*
X31536265Y46271153D02*
X31536265Y46033058D01*
X31536265Y46033058D02*
X31583884Y45937820D01*
X31583884Y45937820D02*
X31631503Y45890200D01*
X31631503Y45890200D02*
X31726741Y45842581D01*
X31726741Y45842581D02*
X31964836Y45842581D01*
X31964836Y45842581D02*
X32060074Y45890200D01*
X32060074Y45890200D02*
X32107693Y45937820D01*
X34107693Y36682581D02*
X33774360Y35682581D01*
X33774360Y35682581D02*
X33441027Y36682581D01*
X32536265Y35777820D02*
X32583884Y35730200D01*
X32583884Y35730200D02*
X32726741Y35682581D01*
X32726741Y35682581D02*
X32821979Y35682581D01*
X32821979Y35682581D02*
X32964836Y35730200D01*
X32964836Y35730200D02*
X33060074Y35825439D01*
X33060074Y35825439D02*
X33107693Y35920677D01*
X33107693Y35920677D02*
X33155312Y36111153D01*
X33155312Y36111153D02*
X33155312Y36254010D01*
X33155312Y36254010D02*
X33107693Y36444486D01*
X33107693Y36444486D02*
X33060074Y36539724D01*
X33060074Y36539724D02*
X32964836Y36634962D01*
X32964836Y36634962D02*
X32821979Y36682581D01*
X32821979Y36682581D02*
X32726741Y36682581D01*
X32726741Y36682581D02*
X32583884Y36634962D01*
X32583884Y36634962D02*
X32536265Y36587343D01*
X31536265Y35777820D02*
X31583884Y35730200D01*
X31583884Y35730200D02*
X31726741Y35682581D01*
X31726741Y35682581D02*
X31821979Y35682581D01*
X31821979Y35682581D02*
X31964836Y35730200D01*
X31964836Y35730200D02*
X32060074Y35825439D01*
X32060074Y35825439D02*
X32107693Y35920677D01*
X32107693Y35920677D02*
X32155312Y36111153D01*
X32155312Y36111153D02*
X32155312Y36254010D01*
X32155312Y36254010D02*
X32107693Y36444486D01*
X32107693Y36444486D02*
X32060074Y36539724D01*
X32060074Y36539724D02*
X31964836Y36634962D01*
X31964836Y36634962D02*
X31821979Y36682581D01*
X31821979Y36682581D02*
X31726741Y36682581D01*
X31726741Y36682581D02*
X31583884Y36634962D01*
X31583884Y36634962D02*
X31536265Y36587343D01*
X42406115Y22982581D02*
X42406115Y23982581D01*
X42406115Y23982581D02*
X42025163Y23982581D01*
X42025163Y23982581D02*
X41929925Y23934962D01*
X41929925Y23934962D02*
X41882306Y23887343D01*
X41882306Y23887343D02*
X41834687Y23792105D01*
X41834687Y23792105D02*
X41834687Y23649248D01*
X41834687Y23649248D02*
X41882306Y23554010D01*
X41882306Y23554010D02*
X41929925Y23506391D01*
X41929925Y23506391D02*
X42025163Y23458772D01*
X42025163Y23458772D02*
X42406115Y23458772D01*
X40834687Y23077820D02*
X40882306Y23030200D01*
X40882306Y23030200D02*
X41025163Y22982581D01*
X41025163Y22982581D02*
X41120401Y22982581D01*
X41120401Y22982581D02*
X41263258Y23030200D01*
X41263258Y23030200D02*
X41358496Y23125439D01*
X41358496Y23125439D02*
X41406115Y23220677D01*
X41406115Y23220677D02*
X41453734Y23411153D01*
X41453734Y23411153D02*
X41453734Y23554010D01*
X41453734Y23554010D02*
X41406115Y23744486D01*
X41406115Y23744486D02*
X41358496Y23839724D01*
X41358496Y23839724D02*
X41263258Y23934962D01*
X41263258Y23934962D02*
X41120401Y23982581D01*
X41120401Y23982581D02*
X41025163Y23982581D01*
X41025163Y23982581D02*
X40882306Y23934962D01*
X40882306Y23934962D02*
X40834687Y23887343D01*
X39977544Y23649248D02*
X39977544Y22982581D01*
X40215639Y24030200D02*
X40453734Y23315915D01*
X40453734Y23315915D02*
X39834687Y23315915D01*
X42406115Y15362581D02*
X42406115Y16362581D01*
X42406115Y16362581D02*
X42025163Y16362581D01*
X42025163Y16362581D02*
X41929925Y16314962D01*
X41929925Y16314962D02*
X41882306Y16267343D01*
X41882306Y16267343D02*
X41834687Y16172105D01*
X41834687Y16172105D02*
X41834687Y16029248D01*
X41834687Y16029248D02*
X41882306Y15934010D01*
X41882306Y15934010D02*
X41929925Y15886391D01*
X41929925Y15886391D02*
X42025163Y15838772D01*
X42025163Y15838772D02*
X42406115Y15838772D01*
X40834687Y15457820D02*
X40882306Y15410200D01*
X40882306Y15410200D02*
X41025163Y15362581D01*
X41025163Y15362581D02*
X41120401Y15362581D01*
X41120401Y15362581D02*
X41263258Y15410200D01*
X41263258Y15410200D02*
X41358496Y15505439D01*
X41358496Y15505439D02*
X41406115Y15600677D01*
X41406115Y15600677D02*
X41453734Y15791153D01*
X41453734Y15791153D02*
X41453734Y15934010D01*
X41453734Y15934010D02*
X41406115Y16124486D01*
X41406115Y16124486D02*
X41358496Y16219724D01*
X41358496Y16219724D02*
X41263258Y16314962D01*
X41263258Y16314962D02*
X41120401Y16362581D01*
X41120401Y16362581D02*
X41025163Y16362581D01*
X41025163Y16362581D02*
X40882306Y16314962D01*
X40882306Y16314962D02*
X40834687Y16267343D01*
X39882306Y15362581D02*
X40453734Y15362581D01*
X40168020Y15362581D02*
X40168020Y16362581D01*
X40168020Y16362581D02*
X40263258Y16219724D01*
X40263258Y16219724D02*
X40358496Y16124486D01*
X40358496Y16124486D02*
X40453734Y16076867D01*
X42406115Y58542581D02*
X42406115Y59542581D01*
X42406115Y59542581D02*
X42025163Y59542581D01*
X42025163Y59542581D02*
X41929925Y59494962D01*
X41929925Y59494962D02*
X41882306Y59447343D01*
X41882306Y59447343D02*
X41834687Y59352105D01*
X41834687Y59352105D02*
X41834687Y59209248D01*
X41834687Y59209248D02*
X41882306Y59114010D01*
X41882306Y59114010D02*
X41929925Y59066391D01*
X41929925Y59066391D02*
X42025163Y59018772D01*
X42025163Y59018772D02*
X42406115Y59018772D01*
X41453734Y58828296D02*
X40977544Y58828296D01*
X41548972Y58542581D02*
X41215639Y59542581D01*
X41215639Y59542581D02*
X40882306Y58542581D01*
X40358496Y59542581D02*
X40263258Y59542581D01*
X40263258Y59542581D02*
X40168020Y59494962D01*
X40168020Y59494962D02*
X40120401Y59447343D01*
X40120401Y59447343D02*
X40072782Y59352105D01*
X40072782Y59352105D02*
X40025163Y59161629D01*
X40025163Y59161629D02*
X40025163Y58923534D01*
X40025163Y58923534D02*
X40072782Y58733058D01*
X40072782Y58733058D02*
X40120401Y58637820D01*
X40120401Y58637820D02*
X40168020Y58590200D01*
X40168020Y58590200D02*
X40263258Y58542581D01*
X40263258Y58542581D02*
X40358496Y58542581D01*
X40358496Y58542581D02*
X40453734Y58590200D01*
X40453734Y58590200D02*
X40501353Y58637820D01*
X40501353Y58637820D02*
X40548972Y58733058D01*
X40548972Y58733058D02*
X40596591Y58923534D01*
X40596591Y58923534D02*
X40596591Y59161629D01*
X40596591Y59161629D02*
X40548972Y59352105D01*
X40548972Y59352105D02*
X40501353Y59447343D01*
X40501353Y59447343D02*
X40453734Y59494962D01*
X40453734Y59494962D02*
X40358496Y59542581D01*
X34060074Y12822581D02*
X34060074Y13822581D01*
X34060074Y13822581D02*
X33679122Y13822581D01*
X33679122Y13822581D02*
X33583884Y13774962D01*
X33583884Y13774962D02*
X33536265Y13727343D01*
X33536265Y13727343D02*
X33488646Y13632105D01*
X33488646Y13632105D02*
X33488646Y13489248D01*
X33488646Y13489248D02*
X33536265Y13394010D01*
X33536265Y13394010D02*
X33583884Y13346391D01*
X33583884Y13346391D02*
X33679122Y13298772D01*
X33679122Y13298772D02*
X34060074Y13298772D01*
X33060074Y12822581D02*
X33060074Y13822581D01*
X33060074Y13822581D02*
X32821979Y13822581D01*
X32821979Y13822581D02*
X32679122Y13774962D01*
X32679122Y13774962D02*
X32583884Y13679724D01*
X32583884Y13679724D02*
X32536265Y13584486D01*
X32536265Y13584486D02*
X32488646Y13394010D01*
X32488646Y13394010D02*
X32488646Y13251153D01*
X32488646Y13251153D02*
X32536265Y13060677D01*
X32536265Y13060677D02*
X32583884Y12965439D01*
X32583884Y12965439D02*
X32679122Y12870200D01*
X32679122Y12870200D02*
X32821979Y12822581D01*
X32821979Y12822581D02*
X33060074Y12822581D01*
X31583884Y13822581D02*
X32060074Y13822581D01*
X32060074Y13822581D02*
X32107693Y13346391D01*
X32107693Y13346391D02*
X32060074Y13394010D01*
X32060074Y13394010D02*
X31964836Y13441629D01*
X31964836Y13441629D02*
X31726741Y13441629D01*
X31726741Y13441629D02*
X31631503Y13394010D01*
X31631503Y13394010D02*
X31583884Y13346391D01*
X31583884Y13346391D02*
X31536265Y13251153D01*
X31536265Y13251153D02*
X31536265Y13013058D01*
X31536265Y13013058D02*
X31583884Y12917820D01*
X31583884Y12917820D02*
X31631503Y12870200D01*
X31631503Y12870200D02*
X31726741Y12822581D01*
X31726741Y12822581D02*
X31964836Y12822581D01*
X31964836Y12822581D02*
X32060074Y12870200D01*
X32060074Y12870200D02*
X32107693Y12917820D01*
X42406115Y30602581D02*
X42406115Y31602581D01*
X42406115Y31602581D02*
X42025163Y31602581D01*
X42025163Y31602581D02*
X41929925Y31554962D01*
X41929925Y31554962D02*
X41882306Y31507343D01*
X41882306Y31507343D02*
X41834687Y31412105D01*
X41834687Y31412105D02*
X41834687Y31269248D01*
X41834687Y31269248D02*
X41882306Y31174010D01*
X41882306Y31174010D02*
X41929925Y31126391D01*
X41929925Y31126391D02*
X42025163Y31078772D01*
X42025163Y31078772D02*
X42406115Y31078772D01*
X40834687Y30697820D02*
X40882306Y30650200D01*
X40882306Y30650200D02*
X41025163Y30602581D01*
X41025163Y30602581D02*
X41120401Y30602581D01*
X41120401Y30602581D02*
X41263258Y30650200D01*
X41263258Y30650200D02*
X41358496Y30745439D01*
X41358496Y30745439D02*
X41406115Y30840677D01*
X41406115Y30840677D02*
X41453734Y31031153D01*
X41453734Y31031153D02*
X41453734Y31174010D01*
X41453734Y31174010D02*
X41406115Y31364486D01*
X41406115Y31364486D02*
X41358496Y31459724D01*
X41358496Y31459724D02*
X41263258Y31554962D01*
X41263258Y31554962D02*
X41120401Y31602581D01*
X41120401Y31602581D02*
X41025163Y31602581D01*
X41025163Y31602581D02*
X40882306Y31554962D01*
X40882306Y31554962D02*
X40834687Y31507343D01*
X40501353Y31602581D02*
X39834687Y31602581D01*
X39834687Y31602581D02*
X40263258Y30602581D01*
X34060074Y48382581D02*
X34060074Y49382581D01*
X34060074Y49382581D02*
X33679122Y49382581D01*
X33679122Y49382581D02*
X33583884Y49334962D01*
X33583884Y49334962D02*
X33536265Y49287343D01*
X33536265Y49287343D02*
X33488646Y49192105D01*
X33488646Y49192105D02*
X33488646Y49049248D01*
X33488646Y49049248D02*
X33536265Y48954010D01*
X33536265Y48954010D02*
X33583884Y48906391D01*
X33583884Y48906391D02*
X33679122Y48858772D01*
X33679122Y48858772D02*
X34060074Y48858772D01*
X32726741Y48906391D02*
X32583884Y48858772D01*
X32583884Y48858772D02*
X32536265Y48811153D01*
X32536265Y48811153D02*
X32488646Y48715915D01*
X32488646Y48715915D02*
X32488646Y48573058D01*
X32488646Y48573058D02*
X32536265Y48477820D01*
X32536265Y48477820D02*
X32583884Y48430200D01*
X32583884Y48430200D02*
X32679122Y48382581D01*
X32679122Y48382581D02*
X33060074Y48382581D01*
X33060074Y48382581D02*
X33060074Y49382581D01*
X33060074Y49382581D02*
X32726741Y49382581D01*
X32726741Y49382581D02*
X32631503Y49334962D01*
X32631503Y49334962D02*
X32583884Y49287343D01*
X32583884Y49287343D02*
X32536265Y49192105D01*
X32536265Y49192105D02*
X32536265Y49096867D01*
X32536265Y49096867D02*
X32583884Y49001629D01*
X32583884Y49001629D02*
X32631503Y48954010D01*
X32631503Y48954010D02*
X32726741Y48906391D01*
X32726741Y48906391D02*
X33060074Y48906391D01*
X31631503Y49049248D02*
X31631503Y48382581D01*
X31869598Y49430200D02*
X32107693Y48715915D01*
X32107693Y48715915D02*
X31488646Y48715915D01*
X41882306Y36634962D02*
X41977544Y36682581D01*
X41977544Y36682581D02*
X42120401Y36682581D01*
X42120401Y36682581D02*
X42263258Y36634962D01*
X42263258Y36634962D02*
X42358496Y36539724D01*
X42358496Y36539724D02*
X42406115Y36444486D01*
X42406115Y36444486D02*
X42453734Y36254010D01*
X42453734Y36254010D02*
X42453734Y36111153D01*
X42453734Y36111153D02*
X42406115Y35920677D01*
X42406115Y35920677D02*
X42358496Y35825439D01*
X42358496Y35825439D02*
X42263258Y35730200D01*
X42263258Y35730200D02*
X42120401Y35682581D01*
X42120401Y35682581D02*
X42025163Y35682581D01*
X42025163Y35682581D02*
X41882306Y35730200D01*
X41882306Y35730200D02*
X41834687Y35777820D01*
X41834687Y35777820D02*
X41834687Y36111153D01*
X41834687Y36111153D02*
X42025163Y36111153D01*
X41406115Y35682581D02*
X41406115Y36682581D01*
X41406115Y36682581D02*
X40834687Y35682581D01*
X40834687Y35682581D02*
X40834687Y36682581D01*
X40358496Y35682581D02*
X40358496Y36682581D01*
X40358496Y36682581D02*
X40120401Y36682581D01*
X40120401Y36682581D02*
X39977544Y36634962D01*
X39977544Y36634962D02*
X39882306Y36539724D01*
X39882306Y36539724D02*
X39834687Y36444486D01*
X39834687Y36444486D02*
X39787068Y36254010D01*
X39787068Y36254010D02*
X39787068Y36111153D01*
X39787068Y36111153D02*
X39834687Y35920677D01*
X39834687Y35920677D02*
X39882306Y35825439D01*
X39882306Y35825439D02*
X39977544Y35730200D01*
X39977544Y35730200D02*
X40120401Y35682581D01*
X40120401Y35682581D02*
X40358496Y35682581D01*
X42453734Y38508296D02*
X41977544Y38508296D01*
X42548972Y38222581D02*
X42215639Y39222581D01*
X42215639Y39222581D02*
X41882306Y38222581D01*
X40977544Y38222581D02*
X41310877Y38698772D01*
X41548972Y38222581D02*
X41548972Y39222581D01*
X41548972Y39222581D02*
X41168020Y39222581D01*
X41168020Y39222581D02*
X41072782Y39174962D01*
X41072782Y39174962D02*
X41025163Y39127343D01*
X41025163Y39127343D02*
X40977544Y39032105D01*
X40977544Y39032105D02*
X40977544Y38889248D01*
X40977544Y38889248D02*
X41025163Y38794010D01*
X41025163Y38794010D02*
X41072782Y38746391D01*
X41072782Y38746391D02*
X41168020Y38698772D01*
X41168020Y38698772D02*
X41548972Y38698772D01*
X40548972Y38746391D02*
X40215639Y38746391D01*
X40072782Y38222581D02*
X40548972Y38222581D01*
X40548972Y38222581D02*
X40548972Y39222581D01*
X40548972Y39222581D02*
X40072782Y39222581D01*
X39310877Y38746391D02*
X39644210Y38746391D01*
X39644210Y38222581D02*
X39644210Y39222581D01*
X39644210Y39222581D02*
X39168020Y39222581D01*
X42406115Y43302581D02*
X42406115Y44302581D01*
X42406115Y44302581D02*
X42025163Y44302581D01*
X42025163Y44302581D02*
X41929925Y44254962D01*
X41929925Y44254962D02*
X41882306Y44207343D01*
X41882306Y44207343D02*
X41834687Y44112105D01*
X41834687Y44112105D02*
X41834687Y43969248D01*
X41834687Y43969248D02*
X41882306Y43874010D01*
X41882306Y43874010D02*
X41929925Y43826391D01*
X41929925Y43826391D02*
X42025163Y43778772D01*
X42025163Y43778772D02*
X42406115Y43778772D01*
X41453734Y43588296D02*
X40977544Y43588296D01*
X41548972Y43302581D02*
X41215639Y44302581D01*
X41215639Y44302581D02*
X40882306Y43302581D01*
X40120401Y44302581D02*
X40310877Y44302581D01*
X40310877Y44302581D02*
X40406115Y44254962D01*
X40406115Y44254962D02*
X40453734Y44207343D01*
X40453734Y44207343D02*
X40548972Y44064486D01*
X40548972Y44064486D02*
X40596591Y43874010D01*
X40596591Y43874010D02*
X40596591Y43493058D01*
X40596591Y43493058D02*
X40548972Y43397820D01*
X40548972Y43397820D02*
X40501353Y43350200D01*
X40501353Y43350200D02*
X40406115Y43302581D01*
X40406115Y43302581D02*
X40215639Y43302581D01*
X40215639Y43302581D02*
X40120401Y43350200D01*
X40120401Y43350200D02*
X40072782Y43397820D01*
X40072782Y43397820D02*
X40025163Y43493058D01*
X40025163Y43493058D02*
X40025163Y43731153D01*
X40025163Y43731153D02*
X40072782Y43826391D01*
X40072782Y43826391D02*
X40120401Y43874010D01*
X40120401Y43874010D02*
X40215639Y43921629D01*
X40215639Y43921629D02*
X40406115Y43921629D01*
X40406115Y43921629D02*
X40501353Y43874010D01*
X40501353Y43874010D02*
X40548972Y43826391D01*
X40548972Y43826391D02*
X40596591Y43731153D01*
X42406115Y53462581D02*
X42406115Y54462581D01*
X42406115Y54462581D02*
X42025163Y54462581D01*
X42025163Y54462581D02*
X41929925Y54414962D01*
X41929925Y54414962D02*
X41882306Y54367343D01*
X41882306Y54367343D02*
X41834687Y54272105D01*
X41834687Y54272105D02*
X41834687Y54129248D01*
X41834687Y54129248D02*
X41882306Y54034010D01*
X41882306Y54034010D02*
X41929925Y53986391D01*
X41929925Y53986391D02*
X42025163Y53938772D01*
X42025163Y53938772D02*
X42406115Y53938772D01*
X41453734Y53748296D02*
X40977544Y53748296D01*
X41548972Y53462581D02*
X41215639Y54462581D01*
X41215639Y54462581D02*
X40882306Y53462581D01*
X40596591Y54367343D02*
X40548972Y54414962D01*
X40548972Y54414962D02*
X40453734Y54462581D01*
X40453734Y54462581D02*
X40215639Y54462581D01*
X40215639Y54462581D02*
X40120401Y54414962D01*
X40120401Y54414962D02*
X40072782Y54367343D01*
X40072782Y54367343D02*
X40025163Y54272105D01*
X40025163Y54272105D02*
X40025163Y54176867D01*
X40025163Y54176867D02*
X40072782Y54034010D01*
X40072782Y54034010D02*
X40644210Y53462581D01*
X40644210Y53462581D02*
X40025163Y53462581D01*
X42406115Y17902581D02*
X42406115Y18902581D01*
X42406115Y18902581D02*
X42025163Y18902581D01*
X42025163Y18902581D02*
X41929925Y18854962D01*
X41929925Y18854962D02*
X41882306Y18807343D01*
X41882306Y18807343D02*
X41834687Y18712105D01*
X41834687Y18712105D02*
X41834687Y18569248D01*
X41834687Y18569248D02*
X41882306Y18474010D01*
X41882306Y18474010D02*
X41929925Y18426391D01*
X41929925Y18426391D02*
X42025163Y18378772D01*
X42025163Y18378772D02*
X42406115Y18378772D01*
X40834687Y17997820D02*
X40882306Y17950200D01*
X40882306Y17950200D02*
X41025163Y17902581D01*
X41025163Y17902581D02*
X41120401Y17902581D01*
X41120401Y17902581D02*
X41263258Y17950200D01*
X41263258Y17950200D02*
X41358496Y18045439D01*
X41358496Y18045439D02*
X41406115Y18140677D01*
X41406115Y18140677D02*
X41453734Y18331153D01*
X41453734Y18331153D02*
X41453734Y18474010D01*
X41453734Y18474010D02*
X41406115Y18664486D01*
X41406115Y18664486D02*
X41358496Y18759724D01*
X41358496Y18759724D02*
X41263258Y18854962D01*
X41263258Y18854962D02*
X41120401Y18902581D01*
X41120401Y18902581D02*
X41025163Y18902581D01*
X41025163Y18902581D02*
X40882306Y18854962D01*
X40882306Y18854962D02*
X40834687Y18807343D01*
X40453734Y18807343D02*
X40406115Y18854962D01*
X40406115Y18854962D02*
X40310877Y18902581D01*
X40310877Y18902581D02*
X40072782Y18902581D01*
X40072782Y18902581D02*
X39977544Y18854962D01*
X39977544Y18854962D02*
X39929925Y18807343D01*
X39929925Y18807343D02*
X39882306Y18712105D01*
X39882306Y18712105D02*
X39882306Y18616867D01*
X39882306Y18616867D02*
X39929925Y18474010D01*
X39929925Y18474010D02*
X40501353Y17902581D01*
X40501353Y17902581D02*
X39882306Y17902581D01*
X34060074Y43302581D02*
X34060074Y44302581D01*
X34060074Y44302581D02*
X33679122Y44302581D01*
X33679122Y44302581D02*
X33583884Y44254962D01*
X33583884Y44254962D02*
X33536265Y44207343D01*
X33536265Y44207343D02*
X33488646Y44112105D01*
X33488646Y44112105D02*
X33488646Y43969248D01*
X33488646Y43969248D02*
X33536265Y43874010D01*
X33536265Y43874010D02*
X33583884Y43826391D01*
X33583884Y43826391D02*
X33679122Y43778772D01*
X33679122Y43778772D02*
X34060074Y43778772D01*
X32726741Y43826391D02*
X32583884Y43778772D01*
X32583884Y43778772D02*
X32536265Y43731153D01*
X32536265Y43731153D02*
X32488646Y43635915D01*
X32488646Y43635915D02*
X32488646Y43493058D01*
X32488646Y43493058D02*
X32536265Y43397820D01*
X32536265Y43397820D02*
X32583884Y43350200D01*
X32583884Y43350200D02*
X32679122Y43302581D01*
X32679122Y43302581D02*
X33060074Y43302581D01*
X33060074Y43302581D02*
X33060074Y44302581D01*
X33060074Y44302581D02*
X32726741Y44302581D01*
X32726741Y44302581D02*
X32631503Y44254962D01*
X32631503Y44254962D02*
X32583884Y44207343D01*
X32583884Y44207343D02*
X32536265Y44112105D01*
X32536265Y44112105D02*
X32536265Y44016867D01*
X32536265Y44016867D02*
X32583884Y43921629D01*
X32583884Y43921629D02*
X32631503Y43874010D01*
X32631503Y43874010D02*
X32726741Y43826391D01*
X32726741Y43826391D02*
X33060074Y43826391D01*
X31631503Y44302581D02*
X31821979Y44302581D01*
X31821979Y44302581D02*
X31917217Y44254962D01*
X31917217Y44254962D02*
X31964836Y44207343D01*
X31964836Y44207343D02*
X32060074Y44064486D01*
X32060074Y44064486D02*
X32107693Y43874010D01*
X32107693Y43874010D02*
X32107693Y43493058D01*
X32107693Y43493058D02*
X32060074Y43397820D01*
X32060074Y43397820D02*
X32012455Y43350200D01*
X32012455Y43350200D02*
X31917217Y43302581D01*
X31917217Y43302581D02*
X31726741Y43302581D01*
X31726741Y43302581D02*
X31631503Y43350200D01*
X31631503Y43350200D02*
X31583884Y43397820D01*
X31583884Y43397820D02*
X31536265Y43493058D01*
X31536265Y43493058D02*
X31536265Y43731153D01*
X31536265Y43731153D02*
X31583884Y43826391D01*
X31583884Y43826391D02*
X31631503Y43874010D01*
X31631503Y43874010D02*
X31726741Y43921629D01*
X31726741Y43921629D02*
X31917217Y43921629D01*
X31917217Y43921629D02*
X32012455Y43874010D01*
X32012455Y43874010D02*
X32060074Y43826391D01*
X32060074Y43826391D02*
X32107693Y43731153D01*
X34060074Y58542581D02*
X34060074Y59542581D01*
X34060074Y59542581D02*
X33679122Y59542581D01*
X33679122Y59542581D02*
X33583884Y59494962D01*
X33583884Y59494962D02*
X33536265Y59447343D01*
X33536265Y59447343D02*
X33488646Y59352105D01*
X33488646Y59352105D02*
X33488646Y59209248D01*
X33488646Y59209248D02*
X33536265Y59114010D01*
X33536265Y59114010D02*
X33583884Y59066391D01*
X33583884Y59066391D02*
X33679122Y59018772D01*
X33679122Y59018772D02*
X34060074Y59018772D01*
X32726741Y59066391D02*
X32583884Y59018772D01*
X32583884Y59018772D02*
X32536265Y58971153D01*
X32536265Y58971153D02*
X32488646Y58875915D01*
X32488646Y58875915D02*
X32488646Y58733058D01*
X32488646Y58733058D02*
X32536265Y58637820D01*
X32536265Y58637820D02*
X32583884Y58590200D01*
X32583884Y58590200D02*
X32679122Y58542581D01*
X32679122Y58542581D02*
X33060074Y58542581D01*
X33060074Y58542581D02*
X33060074Y59542581D01*
X33060074Y59542581D02*
X32726741Y59542581D01*
X32726741Y59542581D02*
X32631503Y59494962D01*
X32631503Y59494962D02*
X32583884Y59447343D01*
X32583884Y59447343D02*
X32536265Y59352105D01*
X32536265Y59352105D02*
X32536265Y59256867D01*
X32536265Y59256867D02*
X32583884Y59161629D01*
X32583884Y59161629D02*
X32631503Y59114010D01*
X32631503Y59114010D02*
X32726741Y59066391D01*
X32726741Y59066391D02*
X33060074Y59066391D01*
X31869598Y59542581D02*
X31774360Y59542581D01*
X31774360Y59542581D02*
X31679122Y59494962D01*
X31679122Y59494962D02*
X31631503Y59447343D01*
X31631503Y59447343D02*
X31583884Y59352105D01*
X31583884Y59352105D02*
X31536265Y59161629D01*
X31536265Y59161629D02*
X31536265Y58923534D01*
X31536265Y58923534D02*
X31583884Y58733058D01*
X31583884Y58733058D02*
X31631503Y58637820D01*
X31631503Y58637820D02*
X31679122Y58590200D01*
X31679122Y58590200D02*
X31774360Y58542581D01*
X31774360Y58542581D02*
X31869598Y58542581D01*
X31869598Y58542581D02*
X31964836Y58590200D01*
X31964836Y58590200D02*
X32012455Y58637820D01*
X32012455Y58637820D02*
X32060074Y58733058D01*
X32060074Y58733058D02*
X32107693Y58923534D01*
X32107693Y58923534D02*
X32107693Y59161629D01*
X32107693Y59161629D02*
X32060074Y59352105D01*
X32060074Y59352105D02*
X32012455Y59447343D01*
X32012455Y59447343D02*
X31964836Y59494962D01*
X31964836Y59494962D02*
X31869598Y59542581D01*
X33631503Y34094962D02*
X33726741Y34142581D01*
X33726741Y34142581D02*
X33869598Y34142581D01*
X33869598Y34142581D02*
X34012455Y34094962D01*
X34012455Y34094962D02*
X34107693Y33999724D01*
X34107693Y33999724D02*
X34155312Y33904486D01*
X34155312Y33904486D02*
X34202931Y33714010D01*
X34202931Y33714010D02*
X34202931Y33571153D01*
X34202931Y33571153D02*
X34155312Y33380677D01*
X34155312Y33380677D02*
X34107693Y33285439D01*
X34107693Y33285439D02*
X34012455Y33190200D01*
X34012455Y33190200D02*
X33869598Y33142581D01*
X33869598Y33142581D02*
X33774360Y33142581D01*
X33774360Y33142581D02*
X33631503Y33190200D01*
X33631503Y33190200D02*
X33583884Y33237820D01*
X33583884Y33237820D02*
X33583884Y33571153D01*
X33583884Y33571153D02*
X33774360Y33571153D01*
X33155312Y33142581D02*
X33155312Y34142581D01*
X33155312Y34142581D02*
X32583884Y33142581D01*
X32583884Y33142581D02*
X32583884Y34142581D01*
X32107693Y33142581D02*
X32107693Y34142581D01*
X32107693Y34142581D02*
X31869598Y34142581D01*
X31869598Y34142581D02*
X31726741Y34094962D01*
X31726741Y34094962D02*
X31631503Y33999724D01*
X31631503Y33999724D02*
X31583884Y33904486D01*
X31583884Y33904486D02*
X31536265Y33714010D01*
X31536265Y33714010D02*
X31536265Y33571153D01*
X31536265Y33571153D02*
X31583884Y33380677D01*
X31583884Y33380677D02*
X31631503Y33285439D01*
X31631503Y33285439D02*
X31726741Y33190200D01*
X31726741Y33190200D02*
X31869598Y33142581D01*
X31869598Y33142581D02*
X32107693Y33142581D01*
X35060075Y38222581D02*
X35393408Y38698772D01*
X35631503Y38222581D02*
X35631503Y39222581D01*
X35631503Y39222581D02*
X35250551Y39222581D01*
X35250551Y39222581D02*
X35155313Y39174962D01*
X35155313Y39174962D02*
X35107694Y39127343D01*
X35107694Y39127343D02*
X35060075Y39032105D01*
X35060075Y39032105D02*
X35060075Y38889248D01*
X35060075Y38889248D02*
X35107694Y38794010D01*
X35107694Y38794010D02*
X35155313Y38746391D01*
X35155313Y38746391D02*
X35250551Y38698772D01*
X35250551Y38698772D02*
X35631503Y38698772D01*
X34631503Y38746391D02*
X34298170Y38746391D01*
X34155313Y38222581D02*
X34631503Y38222581D01*
X34631503Y38222581D02*
X34631503Y39222581D01*
X34631503Y39222581D02*
X34155313Y39222581D01*
X33774360Y38270200D02*
X33631503Y38222581D01*
X33631503Y38222581D02*
X33393408Y38222581D01*
X33393408Y38222581D02*
X33298170Y38270200D01*
X33298170Y38270200D02*
X33250551Y38317820D01*
X33250551Y38317820D02*
X33202932Y38413058D01*
X33202932Y38413058D02*
X33202932Y38508296D01*
X33202932Y38508296D02*
X33250551Y38603534D01*
X33250551Y38603534D02*
X33298170Y38651153D01*
X33298170Y38651153D02*
X33393408Y38698772D01*
X33393408Y38698772D02*
X33583884Y38746391D01*
X33583884Y38746391D02*
X33679122Y38794010D01*
X33679122Y38794010D02*
X33726741Y38841629D01*
X33726741Y38841629D02*
X33774360Y38936867D01*
X33774360Y38936867D02*
X33774360Y39032105D01*
X33774360Y39032105D02*
X33726741Y39127343D01*
X33726741Y39127343D02*
X33679122Y39174962D01*
X33679122Y39174962D02*
X33583884Y39222581D01*
X33583884Y39222581D02*
X33345789Y39222581D01*
X33345789Y39222581D02*
X33202932Y39174962D01*
X32774360Y38746391D02*
X32441027Y38746391D01*
X32298170Y38222581D02*
X32774360Y38222581D01*
X32774360Y38222581D02*
X32774360Y39222581D01*
X32774360Y39222581D02*
X32298170Y39222581D01*
X32012455Y39222581D02*
X31441027Y39222581D01*
X31726741Y38222581D02*
X31726741Y39222581D01*
X35769599Y39500200D02*
X31445789Y39500200D01*
X42406115Y28062581D02*
X42406115Y29062581D01*
X42406115Y29062581D02*
X42025163Y29062581D01*
X42025163Y29062581D02*
X41929925Y29014962D01*
X41929925Y29014962D02*
X41882306Y28967343D01*
X41882306Y28967343D02*
X41834687Y28872105D01*
X41834687Y28872105D02*
X41834687Y28729248D01*
X41834687Y28729248D02*
X41882306Y28634010D01*
X41882306Y28634010D02*
X41929925Y28586391D01*
X41929925Y28586391D02*
X42025163Y28538772D01*
X42025163Y28538772D02*
X42406115Y28538772D01*
X40834687Y28157820D02*
X40882306Y28110200D01*
X40882306Y28110200D02*
X41025163Y28062581D01*
X41025163Y28062581D02*
X41120401Y28062581D01*
X41120401Y28062581D02*
X41263258Y28110200D01*
X41263258Y28110200D02*
X41358496Y28205439D01*
X41358496Y28205439D02*
X41406115Y28300677D01*
X41406115Y28300677D02*
X41453734Y28491153D01*
X41453734Y28491153D02*
X41453734Y28634010D01*
X41453734Y28634010D02*
X41406115Y28824486D01*
X41406115Y28824486D02*
X41358496Y28919724D01*
X41358496Y28919724D02*
X41263258Y29014962D01*
X41263258Y29014962D02*
X41120401Y29062581D01*
X41120401Y29062581D02*
X41025163Y29062581D01*
X41025163Y29062581D02*
X40882306Y29014962D01*
X40882306Y29014962D02*
X40834687Y28967343D01*
X39977544Y29062581D02*
X40168020Y29062581D01*
X40168020Y29062581D02*
X40263258Y29014962D01*
X40263258Y29014962D02*
X40310877Y28967343D01*
X40310877Y28967343D02*
X40406115Y28824486D01*
X40406115Y28824486D02*
X40453734Y28634010D01*
X40453734Y28634010D02*
X40453734Y28253058D01*
X40453734Y28253058D02*
X40406115Y28157820D01*
X40406115Y28157820D02*
X40358496Y28110200D01*
X40358496Y28110200D02*
X40263258Y28062581D01*
X40263258Y28062581D02*
X40072782Y28062581D01*
X40072782Y28062581D02*
X39977544Y28110200D01*
X39977544Y28110200D02*
X39929925Y28157820D01*
X39929925Y28157820D02*
X39882306Y28253058D01*
X39882306Y28253058D02*
X39882306Y28491153D01*
X39882306Y28491153D02*
X39929925Y28586391D01*
X39929925Y28586391D02*
X39977544Y28634010D01*
X39977544Y28634010D02*
X40072782Y28681629D01*
X40072782Y28681629D02*
X40263258Y28681629D01*
X40263258Y28681629D02*
X40358496Y28634010D01*
X40358496Y28634010D02*
X40406115Y28586391D01*
X40406115Y28586391D02*
X40453734Y28491153D01*
X42406115Y20442581D02*
X42406115Y21442581D01*
X42406115Y21442581D02*
X42025163Y21442581D01*
X42025163Y21442581D02*
X41929925Y21394962D01*
X41929925Y21394962D02*
X41882306Y21347343D01*
X41882306Y21347343D02*
X41834687Y21252105D01*
X41834687Y21252105D02*
X41834687Y21109248D01*
X41834687Y21109248D02*
X41882306Y21014010D01*
X41882306Y21014010D02*
X41929925Y20966391D01*
X41929925Y20966391D02*
X42025163Y20918772D01*
X42025163Y20918772D02*
X42406115Y20918772D01*
X40834687Y20537820D02*
X40882306Y20490200D01*
X40882306Y20490200D02*
X41025163Y20442581D01*
X41025163Y20442581D02*
X41120401Y20442581D01*
X41120401Y20442581D02*
X41263258Y20490200D01*
X41263258Y20490200D02*
X41358496Y20585439D01*
X41358496Y20585439D02*
X41406115Y20680677D01*
X41406115Y20680677D02*
X41453734Y20871153D01*
X41453734Y20871153D02*
X41453734Y21014010D01*
X41453734Y21014010D02*
X41406115Y21204486D01*
X41406115Y21204486D02*
X41358496Y21299724D01*
X41358496Y21299724D02*
X41263258Y21394962D01*
X41263258Y21394962D02*
X41120401Y21442581D01*
X41120401Y21442581D02*
X41025163Y21442581D01*
X41025163Y21442581D02*
X40882306Y21394962D01*
X40882306Y21394962D02*
X40834687Y21347343D01*
X40501353Y21442581D02*
X39882306Y21442581D01*
X39882306Y21442581D02*
X40215639Y21061629D01*
X40215639Y21061629D02*
X40072782Y21061629D01*
X40072782Y21061629D02*
X39977544Y21014010D01*
X39977544Y21014010D02*
X39929925Y20966391D01*
X39929925Y20966391D02*
X39882306Y20871153D01*
X39882306Y20871153D02*
X39882306Y20633058D01*
X39882306Y20633058D02*
X39929925Y20537820D01*
X39929925Y20537820D02*
X39977544Y20490200D01*
X39977544Y20490200D02*
X40072782Y20442581D01*
X40072782Y20442581D02*
X40358496Y20442581D01*
X40358496Y20442581D02*
X40453734Y20490200D01*
X40453734Y20490200D02*
X40501353Y20537820D01*
X42406115Y48382581D02*
X42406115Y49382581D01*
X42406115Y49382581D02*
X42025163Y49382581D01*
X42025163Y49382581D02*
X41929925Y49334962D01*
X41929925Y49334962D02*
X41882306Y49287343D01*
X41882306Y49287343D02*
X41834687Y49192105D01*
X41834687Y49192105D02*
X41834687Y49049248D01*
X41834687Y49049248D02*
X41882306Y48954010D01*
X41882306Y48954010D02*
X41929925Y48906391D01*
X41929925Y48906391D02*
X42025163Y48858772D01*
X42025163Y48858772D02*
X42406115Y48858772D01*
X41453734Y48668296D02*
X40977544Y48668296D01*
X41548972Y48382581D02*
X41215639Y49382581D01*
X41215639Y49382581D02*
X40882306Y48382581D01*
X40120401Y49049248D02*
X40120401Y48382581D01*
X40358496Y49430200D02*
X40596591Y48715915D01*
X40596591Y48715915D02*
X39977544Y48715915D01*
X42406115Y12822581D02*
X42406115Y13822581D01*
X42406115Y13822581D02*
X42025163Y13822581D01*
X42025163Y13822581D02*
X41929925Y13774962D01*
X41929925Y13774962D02*
X41882306Y13727343D01*
X41882306Y13727343D02*
X41834687Y13632105D01*
X41834687Y13632105D02*
X41834687Y13489248D01*
X41834687Y13489248D02*
X41882306Y13394010D01*
X41882306Y13394010D02*
X41929925Y13346391D01*
X41929925Y13346391D02*
X42025163Y13298772D01*
X42025163Y13298772D02*
X42406115Y13298772D01*
X40834687Y12917820D02*
X40882306Y12870200D01*
X40882306Y12870200D02*
X41025163Y12822581D01*
X41025163Y12822581D02*
X41120401Y12822581D01*
X41120401Y12822581D02*
X41263258Y12870200D01*
X41263258Y12870200D02*
X41358496Y12965439D01*
X41358496Y12965439D02*
X41406115Y13060677D01*
X41406115Y13060677D02*
X41453734Y13251153D01*
X41453734Y13251153D02*
X41453734Y13394010D01*
X41453734Y13394010D02*
X41406115Y13584486D01*
X41406115Y13584486D02*
X41358496Y13679724D01*
X41358496Y13679724D02*
X41263258Y13774962D01*
X41263258Y13774962D02*
X41120401Y13822581D01*
X41120401Y13822581D02*
X41025163Y13822581D01*
X41025163Y13822581D02*
X40882306Y13774962D01*
X40882306Y13774962D02*
X40834687Y13727343D01*
X40215639Y13822581D02*
X40120401Y13822581D01*
X40120401Y13822581D02*
X40025163Y13774962D01*
X40025163Y13774962D02*
X39977544Y13727343D01*
X39977544Y13727343D02*
X39929925Y13632105D01*
X39929925Y13632105D02*
X39882306Y13441629D01*
X39882306Y13441629D02*
X39882306Y13203534D01*
X39882306Y13203534D02*
X39929925Y13013058D01*
X39929925Y13013058D02*
X39977544Y12917820D01*
X39977544Y12917820D02*
X40025163Y12870200D01*
X40025163Y12870200D02*
X40120401Y12822581D01*
X40120401Y12822581D02*
X40215639Y12822581D01*
X40215639Y12822581D02*
X40310877Y12870200D01*
X40310877Y12870200D02*
X40358496Y12917820D01*
X40358496Y12917820D02*
X40406115Y13013058D01*
X40406115Y13013058D02*
X40453734Y13203534D01*
X40453734Y13203534D02*
X40453734Y13441629D01*
X40453734Y13441629D02*
X40406115Y13632105D01*
X40406115Y13632105D02*
X40358496Y13727343D01*
X40358496Y13727343D02*
X40310877Y13774962D01*
X40310877Y13774962D02*
X40215639Y13822581D01*
X34060074Y20442581D02*
X34060074Y21442581D01*
X34060074Y21442581D02*
X33679122Y21442581D01*
X33679122Y21442581D02*
X33583884Y21394962D01*
X33583884Y21394962D02*
X33536265Y21347343D01*
X33536265Y21347343D02*
X33488646Y21252105D01*
X33488646Y21252105D02*
X33488646Y21109248D01*
X33488646Y21109248D02*
X33536265Y21014010D01*
X33536265Y21014010D02*
X33583884Y20966391D01*
X33583884Y20966391D02*
X33679122Y20918772D01*
X33679122Y20918772D02*
X34060074Y20918772D01*
X33060074Y20442581D02*
X33060074Y21442581D01*
X33060074Y21442581D02*
X32821979Y21442581D01*
X32821979Y21442581D02*
X32679122Y21394962D01*
X32679122Y21394962D02*
X32583884Y21299724D01*
X32583884Y21299724D02*
X32536265Y21204486D01*
X32536265Y21204486D02*
X32488646Y21014010D01*
X32488646Y21014010D02*
X32488646Y20871153D01*
X32488646Y20871153D02*
X32536265Y20680677D01*
X32536265Y20680677D02*
X32583884Y20585439D01*
X32583884Y20585439D02*
X32679122Y20490200D01*
X32679122Y20490200D02*
X32821979Y20442581D01*
X32821979Y20442581D02*
X33060074Y20442581D01*
X32107693Y21347343D02*
X32060074Y21394962D01*
X32060074Y21394962D02*
X31964836Y21442581D01*
X31964836Y21442581D02*
X31726741Y21442581D01*
X31726741Y21442581D02*
X31631503Y21394962D01*
X31631503Y21394962D02*
X31583884Y21347343D01*
X31583884Y21347343D02*
X31536265Y21252105D01*
X31536265Y21252105D02*
X31536265Y21156867D01*
X31536265Y21156867D02*
X31583884Y21014010D01*
X31583884Y21014010D02*
X32155312Y20442581D01*
X32155312Y20442581D02*
X31536265Y20442581D01*
X42406115Y10282581D02*
X42406115Y11282581D01*
X42406115Y11282581D02*
X42025163Y11282581D01*
X42025163Y11282581D02*
X41929925Y11234962D01*
X41929925Y11234962D02*
X41882306Y11187343D01*
X41882306Y11187343D02*
X41834687Y11092105D01*
X41834687Y11092105D02*
X41834687Y10949248D01*
X41834687Y10949248D02*
X41882306Y10854010D01*
X41882306Y10854010D02*
X41929925Y10806391D01*
X41929925Y10806391D02*
X42025163Y10758772D01*
X42025163Y10758772D02*
X42406115Y10758772D01*
X41406115Y10282581D02*
X41406115Y11282581D01*
X41406115Y11282581D02*
X41168020Y11282581D01*
X41168020Y11282581D02*
X41025163Y11234962D01*
X41025163Y11234962D02*
X40929925Y11139724D01*
X40929925Y11139724D02*
X40882306Y11044486D01*
X40882306Y11044486D02*
X40834687Y10854010D01*
X40834687Y10854010D02*
X40834687Y10711153D01*
X40834687Y10711153D02*
X40882306Y10520677D01*
X40882306Y10520677D02*
X40929925Y10425439D01*
X40929925Y10425439D02*
X41025163Y10330200D01*
X41025163Y10330200D02*
X41168020Y10282581D01*
X41168020Y10282581D02*
X41406115Y10282581D01*
X40501353Y11282581D02*
X39834687Y11282581D01*
X39834687Y11282581D02*
X40263258Y10282581D01*
X42406115Y56002581D02*
X42406115Y57002581D01*
X42406115Y57002581D02*
X42025163Y57002581D01*
X42025163Y57002581D02*
X41929925Y56954962D01*
X41929925Y56954962D02*
X41882306Y56907343D01*
X41882306Y56907343D02*
X41834687Y56812105D01*
X41834687Y56812105D02*
X41834687Y56669248D01*
X41834687Y56669248D02*
X41882306Y56574010D01*
X41882306Y56574010D02*
X41929925Y56526391D01*
X41929925Y56526391D02*
X42025163Y56478772D01*
X42025163Y56478772D02*
X42406115Y56478772D01*
X41453734Y56288296D02*
X40977544Y56288296D01*
X41548972Y56002581D02*
X41215639Y57002581D01*
X41215639Y57002581D02*
X40882306Y56002581D01*
X40025163Y56002581D02*
X40596591Y56002581D01*
X40310877Y56002581D02*
X40310877Y57002581D01*
X40310877Y57002581D02*
X40406115Y56859724D01*
X40406115Y56859724D02*
X40501353Y56764486D01*
X40501353Y56764486D02*
X40596591Y56716867D01*
X35536265Y31602581D02*
X34869599Y30602581D01*
X34869599Y31602581D02*
X35536265Y30602581D01*
X34631503Y31602581D02*
X34060075Y31602581D01*
X34345789Y30602581D02*
X34345789Y31602581D01*
X33774360Y30888296D02*
X33298170Y30888296D01*
X33869598Y30602581D02*
X33536265Y31602581D01*
X33536265Y31602581D02*
X33202932Y30602581D01*
X32393408Y30602581D02*
X32869598Y30602581D01*
X32869598Y30602581D02*
X32869598Y31602581D01*
X32107693Y31507343D02*
X32060074Y31554962D01*
X32060074Y31554962D02*
X31964836Y31602581D01*
X31964836Y31602581D02*
X31726741Y31602581D01*
X31726741Y31602581D02*
X31631503Y31554962D01*
X31631503Y31554962D02*
X31583884Y31507343D01*
X31583884Y31507343D02*
X31536265Y31412105D01*
X31536265Y31412105D02*
X31536265Y31316867D01*
X31536265Y31316867D02*
X31583884Y31174010D01*
X31583884Y31174010D02*
X32155312Y30602581D01*
X32155312Y30602581D02*
X31536265Y30602581D01*
X42406115Y50922581D02*
X42406115Y51922581D01*
X42406115Y51922581D02*
X42025163Y51922581D01*
X42025163Y51922581D02*
X41929925Y51874962D01*
X41929925Y51874962D02*
X41882306Y51827343D01*
X41882306Y51827343D02*
X41834687Y51732105D01*
X41834687Y51732105D02*
X41834687Y51589248D01*
X41834687Y51589248D02*
X41882306Y51494010D01*
X41882306Y51494010D02*
X41929925Y51446391D01*
X41929925Y51446391D02*
X42025163Y51398772D01*
X42025163Y51398772D02*
X42406115Y51398772D01*
X41453734Y51208296D02*
X40977544Y51208296D01*
X41548972Y50922581D02*
X41215639Y51922581D01*
X41215639Y51922581D02*
X40882306Y50922581D01*
X40644210Y51922581D02*
X40025163Y51922581D01*
X40025163Y51922581D02*
X40358496Y51541629D01*
X40358496Y51541629D02*
X40215639Y51541629D01*
X40215639Y51541629D02*
X40120401Y51494010D01*
X40120401Y51494010D02*
X40072782Y51446391D01*
X40072782Y51446391D02*
X40025163Y51351153D01*
X40025163Y51351153D02*
X40025163Y51113058D01*
X40025163Y51113058D02*
X40072782Y51017820D01*
X40072782Y51017820D02*
X40120401Y50970200D01*
X40120401Y50970200D02*
X40215639Y50922581D01*
X40215639Y50922581D02*
X40501353Y50922581D01*
X40501353Y50922581D02*
X40596591Y50970200D01*
X40596591Y50970200D02*
X40644210Y51017820D01*
X34060074Y17902581D02*
X34060074Y18902581D01*
X34060074Y18902581D02*
X33679122Y18902581D01*
X33679122Y18902581D02*
X33583884Y18854962D01*
X33583884Y18854962D02*
X33536265Y18807343D01*
X33536265Y18807343D02*
X33488646Y18712105D01*
X33488646Y18712105D02*
X33488646Y18569248D01*
X33488646Y18569248D02*
X33536265Y18474010D01*
X33536265Y18474010D02*
X33583884Y18426391D01*
X33583884Y18426391D02*
X33679122Y18378772D01*
X33679122Y18378772D02*
X34060074Y18378772D01*
X33060074Y17902581D02*
X33060074Y18902581D01*
X33060074Y18902581D02*
X32821979Y18902581D01*
X32821979Y18902581D02*
X32679122Y18854962D01*
X32679122Y18854962D02*
X32583884Y18759724D01*
X32583884Y18759724D02*
X32536265Y18664486D01*
X32536265Y18664486D02*
X32488646Y18474010D01*
X32488646Y18474010D02*
X32488646Y18331153D01*
X32488646Y18331153D02*
X32536265Y18140677D01*
X32536265Y18140677D02*
X32583884Y18045439D01*
X32583884Y18045439D02*
X32679122Y17950200D01*
X32679122Y17950200D02*
X32821979Y17902581D01*
X32821979Y17902581D02*
X33060074Y17902581D01*
X32155312Y18902581D02*
X31536265Y18902581D01*
X31536265Y18902581D02*
X31869598Y18521629D01*
X31869598Y18521629D02*
X31726741Y18521629D01*
X31726741Y18521629D02*
X31631503Y18474010D01*
X31631503Y18474010D02*
X31583884Y18426391D01*
X31583884Y18426391D02*
X31536265Y18331153D01*
X31536265Y18331153D02*
X31536265Y18093058D01*
X31536265Y18093058D02*
X31583884Y17997820D01*
X31583884Y17997820D02*
X31631503Y17950200D01*
X31631503Y17950200D02*
X31726741Y17902581D01*
X31726741Y17902581D02*
X32012455Y17902581D01*
X32012455Y17902581D02*
X32107693Y17950200D01*
X32107693Y17950200D02*
X32155312Y17997820D01*
X34060074Y50922581D02*
X34060074Y51922581D01*
X34060074Y51922581D02*
X33679122Y51922581D01*
X33679122Y51922581D02*
X33583884Y51874962D01*
X33583884Y51874962D02*
X33536265Y51827343D01*
X33536265Y51827343D02*
X33488646Y51732105D01*
X33488646Y51732105D02*
X33488646Y51589248D01*
X33488646Y51589248D02*
X33536265Y51494010D01*
X33536265Y51494010D02*
X33583884Y51446391D01*
X33583884Y51446391D02*
X33679122Y51398772D01*
X33679122Y51398772D02*
X34060074Y51398772D01*
X32726741Y51446391D02*
X32583884Y51398772D01*
X32583884Y51398772D02*
X32536265Y51351153D01*
X32536265Y51351153D02*
X32488646Y51255915D01*
X32488646Y51255915D02*
X32488646Y51113058D01*
X32488646Y51113058D02*
X32536265Y51017820D01*
X32536265Y51017820D02*
X32583884Y50970200D01*
X32583884Y50970200D02*
X32679122Y50922581D01*
X32679122Y50922581D02*
X33060074Y50922581D01*
X33060074Y50922581D02*
X33060074Y51922581D01*
X33060074Y51922581D02*
X32726741Y51922581D01*
X32726741Y51922581D02*
X32631503Y51874962D01*
X32631503Y51874962D02*
X32583884Y51827343D01*
X32583884Y51827343D02*
X32536265Y51732105D01*
X32536265Y51732105D02*
X32536265Y51636867D01*
X32536265Y51636867D02*
X32583884Y51541629D01*
X32583884Y51541629D02*
X32631503Y51494010D01*
X32631503Y51494010D02*
X32726741Y51446391D01*
X32726741Y51446391D02*
X33060074Y51446391D01*
X32155312Y51922581D02*
X31536265Y51922581D01*
X31536265Y51922581D02*
X31869598Y51541629D01*
X31869598Y51541629D02*
X31726741Y51541629D01*
X31726741Y51541629D02*
X31631503Y51494010D01*
X31631503Y51494010D02*
X31583884Y51446391D01*
X31583884Y51446391D02*
X31536265Y51351153D01*
X31536265Y51351153D02*
X31536265Y51113058D01*
X31536265Y51113058D02*
X31583884Y51017820D01*
X31583884Y51017820D02*
X31631503Y50970200D01*
X31631503Y50970200D02*
X31726741Y50922581D01*
X31726741Y50922581D02*
X32012455Y50922581D01*
X32012455Y50922581D02*
X32107693Y50970200D01*
X32107693Y50970200D02*
X32155312Y51017820D01*
X42406115Y45842581D02*
X42406115Y46842581D01*
X42406115Y46842581D02*
X42025163Y46842581D01*
X42025163Y46842581D02*
X41929925Y46794962D01*
X41929925Y46794962D02*
X41882306Y46747343D01*
X41882306Y46747343D02*
X41834687Y46652105D01*
X41834687Y46652105D02*
X41834687Y46509248D01*
X41834687Y46509248D02*
X41882306Y46414010D01*
X41882306Y46414010D02*
X41929925Y46366391D01*
X41929925Y46366391D02*
X42025163Y46318772D01*
X42025163Y46318772D02*
X42406115Y46318772D01*
X41453734Y46128296D02*
X40977544Y46128296D01*
X41548972Y45842581D02*
X41215639Y46842581D01*
X41215639Y46842581D02*
X40882306Y45842581D01*
X40072782Y46842581D02*
X40548972Y46842581D01*
X40548972Y46842581D02*
X40596591Y46366391D01*
X40596591Y46366391D02*
X40548972Y46414010D01*
X40548972Y46414010D02*
X40453734Y46461629D01*
X40453734Y46461629D02*
X40215639Y46461629D01*
X40215639Y46461629D02*
X40120401Y46414010D01*
X40120401Y46414010D02*
X40072782Y46366391D01*
X40072782Y46366391D02*
X40025163Y46271153D01*
X40025163Y46271153D02*
X40025163Y46033058D01*
X40025163Y46033058D02*
X40072782Y45937820D01*
X40072782Y45937820D02*
X40120401Y45890200D01*
X40120401Y45890200D02*
X40215639Y45842581D01*
X40215639Y45842581D02*
X40453734Y45842581D01*
X40453734Y45842581D02*
X40548972Y45890200D01*
X40548972Y45890200D02*
X40596591Y45937820D01*
X34060074Y22982581D02*
X34060074Y23982581D01*
X34060074Y23982581D02*
X33679122Y23982581D01*
X33679122Y23982581D02*
X33583884Y23934962D01*
X33583884Y23934962D02*
X33536265Y23887343D01*
X33536265Y23887343D02*
X33488646Y23792105D01*
X33488646Y23792105D02*
X33488646Y23649248D01*
X33488646Y23649248D02*
X33536265Y23554010D01*
X33536265Y23554010D02*
X33583884Y23506391D01*
X33583884Y23506391D02*
X33679122Y23458772D01*
X33679122Y23458772D02*
X34060074Y23458772D01*
X33060074Y22982581D02*
X33060074Y23982581D01*
X33060074Y23982581D02*
X32821979Y23982581D01*
X32821979Y23982581D02*
X32679122Y23934962D01*
X32679122Y23934962D02*
X32583884Y23839724D01*
X32583884Y23839724D02*
X32536265Y23744486D01*
X32536265Y23744486D02*
X32488646Y23554010D01*
X32488646Y23554010D02*
X32488646Y23411153D01*
X32488646Y23411153D02*
X32536265Y23220677D01*
X32536265Y23220677D02*
X32583884Y23125439D01*
X32583884Y23125439D02*
X32679122Y23030200D01*
X32679122Y23030200D02*
X32821979Y22982581D01*
X32821979Y22982581D02*
X33060074Y22982581D01*
X31536265Y22982581D02*
X32107693Y22982581D01*
X31821979Y22982581D02*
X31821979Y23982581D01*
X31821979Y23982581D02*
X31917217Y23839724D01*
X31917217Y23839724D02*
X32012455Y23744486D01*
X32012455Y23744486D02*
X32107693Y23696867D01*
X34060074Y40762581D02*
X34060074Y41762581D01*
X34060074Y41762581D02*
X33679122Y41762581D01*
X33679122Y41762581D02*
X33583884Y41714962D01*
X33583884Y41714962D02*
X33536265Y41667343D01*
X33536265Y41667343D02*
X33488646Y41572105D01*
X33488646Y41572105D02*
X33488646Y41429248D01*
X33488646Y41429248D02*
X33536265Y41334010D01*
X33536265Y41334010D02*
X33583884Y41286391D01*
X33583884Y41286391D02*
X33679122Y41238772D01*
X33679122Y41238772D02*
X34060074Y41238772D01*
X32726741Y41286391D02*
X32583884Y41238772D01*
X32583884Y41238772D02*
X32536265Y41191153D01*
X32536265Y41191153D02*
X32488646Y41095915D01*
X32488646Y41095915D02*
X32488646Y40953058D01*
X32488646Y40953058D02*
X32536265Y40857820D01*
X32536265Y40857820D02*
X32583884Y40810200D01*
X32583884Y40810200D02*
X32679122Y40762581D01*
X32679122Y40762581D02*
X33060074Y40762581D01*
X33060074Y40762581D02*
X33060074Y41762581D01*
X33060074Y41762581D02*
X32726741Y41762581D01*
X32726741Y41762581D02*
X32631503Y41714962D01*
X32631503Y41714962D02*
X32583884Y41667343D01*
X32583884Y41667343D02*
X32536265Y41572105D01*
X32536265Y41572105D02*
X32536265Y41476867D01*
X32536265Y41476867D02*
X32583884Y41381629D01*
X32583884Y41381629D02*
X32631503Y41334010D01*
X32631503Y41334010D02*
X32726741Y41286391D01*
X32726741Y41286391D02*
X33060074Y41286391D01*
X32155312Y41762581D02*
X31488646Y41762581D01*
X31488646Y41762581D02*
X31917217Y40762581D01*
X35536265Y29062581D02*
X34869599Y28062581D01*
X34869599Y29062581D02*
X35536265Y28062581D01*
X34631503Y29062581D02*
X34060075Y29062581D01*
X34345789Y28062581D02*
X34345789Y29062581D01*
X33774360Y28348296D02*
X33298170Y28348296D01*
X33869598Y28062581D02*
X33536265Y29062581D01*
X33536265Y29062581D02*
X33202932Y28062581D01*
X32393408Y28062581D02*
X32869598Y28062581D01*
X32869598Y28062581D02*
X32869598Y29062581D01*
X31536265Y28062581D02*
X32107693Y28062581D01*
X31821979Y28062581D02*
X31821979Y29062581D01*
X31821979Y29062581D02*
X31917217Y28919724D01*
X31917217Y28919724D02*
X32012455Y28824486D01*
X32012455Y28824486D02*
X32107693Y28776867D01*
X42406115Y40762581D02*
X42406115Y41762581D01*
X42406115Y41762581D02*
X42025163Y41762581D01*
X42025163Y41762581D02*
X41929925Y41714962D01*
X41929925Y41714962D02*
X41882306Y41667343D01*
X41882306Y41667343D02*
X41834687Y41572105D01*
X41834687Y41572105D02*
X41834687Y41429248D01*
X41834687Y41429248D02*
X41882306Y41334010D01*
X41882306Y41334010D02*
X41929925Y41286391D01*
X41929925Y41286391D02*
X42025163Y41238772D01*
X42025163Y41238772D02*
X42406115Y41238772D01*
X41453734Y41048296D02*
X40977544Y41048296D01*
X41548972Y40762581D02*
X41215639Y41762581D01*
X41215639Y41762581D02*
X40882306Y40762581D01*
X40644210Y41762581D02*
X39977544Y41762581D01*
X39977544Y41762581D02*
X40406115Y40762581D01*
X42453734Y33428296D02*
X41977544Y33428296D01*
X42548972Y33142581D02*
X42215639Y34142581D01*
X42215639Y34142581D02*
X41882306Y33142581D01*
X41691829Y34142581D02*
X41358496Y33142581D01*
X41358496Y33142581D02*
X41025163Y34142581D01*
X40120401Y33237820D02*
X40168020Y33190200D01*
X40168020Y33190200D02*
X40310877Y33142581D01*
X40310877Y33142581D02*
X40406115Y33142581D01*
X40406115Y33142581D02*
X40548972Y33190200D01*
X40548972Y33190200D02*
X40644210Y33285439D01*
X40644210Y33285439D02*
X40691829Y33380677D01*
X40691829Y33380677D02*
X40739448Y33571153D01*
X40739448Y33571153D02*
X40739448Y33714010D01*
X40739448Y33714010D02*
X40691829Y33904486D01*
X40691829Y33904486D02*
X40644210Y33999724D01*
X40644210Y33999724D02*
X40548972Y34094962D01*
X40548972Y34094962D02*
X40406115Y34142581D01*
X40406115Y34142581D02*
X40310877Y34142581D01*
X40310877Y34142581D02*
X40168020Y34094962D01*
X40168020Y34094962D02*
X40120401Y34047343D01*
X39120401Y33237820D02*
X39168020Y33190200D01*
X39168020Y33190200D02*
X39310877Y33142581D01*
X39310877Y33142581D02*
X39406115Y33142581D01*
X39406115Y33142581D02*
X39548972Y33190200D01*
X39548972Y33190200D02*
X39644210Y33285439D01*
X39644210Y33285439D02*
X39691829Y33380677D01*
X39691829Y33380677D02*
X39739448Y33571153D01*
X39739448Y33571153D02*
X39739448Y33714010D01*
X39739448Y33714010D02*
X39691829Y33904486D01*
X39691829Y33904486D02*
X39644210Y33999724D01*
X39644210Y33999724D02*
X39548972Y34094962D01*
X39548972Y34094962D02*
X39406115Y34142581D01*
X39406115Y34142581D02*
X39310877Y34142581D01*
X39310877Y34142581D02*
X39168020Y34094962D01*
X39168020Y34094962D02*
X39120401Y34047343D01*
X42406115Y25522581D02*
X42406115Y26522581D01*
X42406115Y26522581D02*
X42025163Y26522581D01*
X42025163Y26522581D02*
X41929925Y26474962D01*
X41929925Y26474962D02*
X41882306Y26427343D01*
X41882306Y26427343D02*
X41834687Y26332105D01*
X41834687Y26332105D02*
X41834687Y26189248D01*
X41834687Y26189248D02*
X41882306Y26094010D01*
X41882306Y26094010D02*
X41929925Y26046391D01*
X41929925Y26046391D02*
X42025163Y25998772D01*
X42025163Y25998772D02*
X42406115Y25998772D01*
X40834687Y25617820D02*
X40882306Y25570200D01*
X40882306Y25570200D02*
X41025163Y25522581D01*
X41025163Y25522581D02*
X41120401Y25522581D01*
X41120401Y25522581D02*
X41263258Y25570200D01*
X41263258Y25570200D02*
X41358496Y25665439D01*
X41358496Y25665439D02*
X41406115Y25760677D01*
X41406115Y25760677D02*
X41453734Y25951153D01*
X41453734Y25951153D02*
X41453734Y26094010D01*
X41453734Y26094010D02*
X41406115Y26284486D01*
X41406115Y26284486D02*
X41358496Y26379724D01*
X41358496Y26379724D02*
X41263258Y26474962D01*
X41263258Y26474962D02*
X41120401Y26522581D01*
X41120401Y26522581D02*
X41025163Y26522581D01*
X41025163Y26522581D02*
X40882306Y26474962D01*
X40882306Y26474962D02*
X40834687Y26427343D01*
X39929925Y26522581D02*
X40406115Y26522581D01*
X40406115Y26522581D02*
X40453734Y26046391D01*
X40453734Y26046391D02*
X40406115Y26094010D01*
X40406115Y26094010D02*
X40310877Y26141629D01*
X40310877Y26141629D02*
X40072782Y26141629D01*
X40072782Y26141629D02*
X39977544Y26094010D01*
X39977544Y26094010D02*
X39929925Y26046391D01*
X39929925Y26046391D02*
X39882306Y25951153D01*
X39882306Y25951153D02*
X39882306Y25713058D01*
X39882306Y25713058D02*
X39929925Y25617820D01*
X39929925Y25617820D02*
X39977544Y25570200D01*
X39977544Y25570200D02*
X40072782Y25522581D01*
X40072782Y25522581D02*
X40310877Y25522581D01*
X40310877Y25522581D02*
X40406115Y25570200D01*
X40406115Y25570200D02*
X40453734Y25617820D01*
X77557217Y49170200D02*
X77414360Y49122581D01*
X77414360Y49122581D02*
X77176265Y49122581D01*
X77176265Y49122581D02*
X77081027Y49170200D01*
X77081027Y49170200D02*
X77033408Y49217820D01*
X77033408Y49217820D02*
X76985789Y49313058D01*
X76985789Y49313058D02*
X76985789Y49408296D01*
X76985789Y49408296D02*
X77033408Y49503534D01*
X77033408Y49503534D02*
X77081027Y49551153D01*
X77081027Y49551153D02*
X77176265Y49598772D01*
X77176265Y49598772D02*
X77366741Y49646391D01*
X77366741Y49646391D02*
X77461979Y49694010D01*
X77461979Y49694010D02*
X77509598Y49741629D01*
X77509598Y49741629D02*
X77557217Y49836867D01*
X77557217Y49836867D02*
X77557217Y49932105D01*
X77557217Y49932105D02*
X77509598Y50027343D01*
X77509598Y50027343D02*
X77461979Y50074962D01*
X77461979Y50074962D02*
X77366741Y50122581D01*
X77366741Y50122581D02*
X77128646Y50122581D01*
X77128646Y50122581D02*
X76985789Y50074962D01*
X76081027Y49122581D02*
X76557217Y49122581D01*
X76557217Y49122581D02*
X76557217Y50122581D01*
X75747693Y49122581D02*
X75747693Y50122581D01*
X75747693Y50122581D02*
X75366741Y50122581D01*
X75366741Y50122581D02*
X75271503Y50074962D01*
X75271503Y50074962D02*
X75223884Y50027343D01*
X75223884Y50027343D02*
X75176265Y49932105D01*
X75176265Y49932105D02*
X75176265Y49789248D01*
X75176265Y49789248D02*
X75223884Y49694010D01*
X75223884Y49694010D02*
X75271503Y49646391D01*
X75271503Y49646391D02*
X75366741Y49598772D01*
X75366741Y49598772D02*
X75747693Y49598772D01*
X77647694Y50400200D02*
X75085789Y50400200D01*
X84585639Y42502581D02*
X84395163Y42502581D01*
X84395163Y42502581D02*
X84299925Y42454962D01*
X84299925Y42454962D02*
X84204687Y42359724D01*
X84204687Y42359724D02*
X84157068Y42169248D01*
X84157068Y42169248D02*
X84157068Y41835915D01*
X84157068Y41835915D02*
X84204687Y41645439D01*
X84204687Y41645439D02*
X84299925Y41550200D01*
X84299925Y41550200D02*
X84395163Y41502581D01*
X84395163Y41502581D02*
X84585639Y41502581D01*
X84585639Y41502581D02*
X84680877Y41550200D01*
X84680877Y41550200D02*
X84776115Y41645439D01*
X84776115Y41645439D02*
X84823734Y41835915D01*
X84823734Y41835915D02*
X84823734Y42169248D01*
X84823734Y42169248D02*
X84776115Y42359724D01*
X84776115Y42359724D02*
X84680877Y42454962D01*
X84680877Y42454962D02*
X84585639Y42502581D01*
X83728496Y42502581D02*
X83728496Y41693058D01*
X83728496Y41693058D02*
X83680877Y41597820D01*
X83680877Y41597820D02*
X83633258Y41550200D01*
X83633258Y41550200D02*
X83538020Y41502581D01*
X83538020Y41502581D02*
X83347544Y41502581D01*
X83347544Y41502581D02*
X83252306Y41550200D01*
X83252306Y41550200D02*
X83204687Y41597820D01*
X83204687Y41597820D02*
X83157068Y41693058D01*
X83157068Y41693058D02*
X83157068Y42502581D01*
X82823734Y42502581D02*
X82252306Y42502581D01*
X82538020Y41502581D02*
X82538020Y42502581D01*
X81395163Y41502581D02*
X81966591Y41502581D01*
X81680877Y41502581D02*
X81680877Y42502581D01*
X81680877Y42502581D02*
X81776115Y42359724D01*
X81776115Y42359724D02*
X81871353Y42264486D01*
X81871353Y42264486D02*
X81966591Y42216867D01*
X76890550Y37422581D02*
X76557217Y36422581D01*
X76557217Y36422581D02*
X76223884Y37422581D01*
X75890550Y36422581D02*
X75890550Y37422581D01*
X75890550Y37422581D02*
X75557217Y36708296D01*
X75557217Y36708296D02*
X75223884Y37422581D01*
X75223884Y37422581D02*
X75223884Y36422581D01*
X84776115Y46582581D02*
X84776115Y47582581D01*
X84299925Y46582581D02*
X84299925Y47582581D01*
X84299925Y47582581D02*
X83966592Y46868296D01*
X83966592Y46868296D02*
X83633259Y47582581D01*
X83633259Y47582581D02*
X83633259Y46582581D01*
X82966592Y47582581D02*
X82776116Y47582581D01*
X82776116Y47582581D02*
X82680878Y47534962D01*
X82680878Y47534962D02*
X82585640Y47439724D01*
X82585640Y47439724D02*
X82538021Y47249248D01*
X82538021Y47249248D02*
X82538021Y46915915D01*
X82538021Y46915915D02*
X82585640Y46725439D01*
X82585640Y46725439D02*
X82680878Y46630200D01*
X82680878Y46630200D02*
X82776116Y46582581D01*
X82776116Y46582581D02*
X82966592Y46582581D01*
X82966592Y46582581D02*
X83061830Y46630200D01*
X83061830Y46630200D02*
X83157068Y46725439D01*
X83157068Y46725439D02*
X83204687Y46915915D01*
X83204687Y46915915D02*
X83204687Y47249248D01*
X83204687Y47249248D02*
X83157068Y47439724D01*
X83157068Y47439724D02*
X83061830Y47534962D01*
X83061830Y47534962D02*
X82966592Y47582581D01*
X82109449Y46582581D02*
X82109449Y47582581D01*
X82109449Y47582581D02*
X81871354Y47582581D01*
X81871354Y47582581D02*
X81728497Y47534962D01*
X81728497Y47534962D02*
X81633259Y47439724D01*
X81633259Y47439724D02*
X81585640Y47344486D01*
X81585640Y47344486D02*
X81538021Y47154010D01*
X81538021Y47154010D02*
X81538021Y47011153D01*
X81538021Y47011153D02*
X81585640Y46820677D01*
X81585640Y46820677D02*
X81633259Y46725439D01*
X81633259Y46725439D02*
X81728497Y46630200D01*
X81728497Y46630200D02*
X81871354Y46582581D01*
X81871354Y46582581D02*
X82109449Y46582581D01*
X81109449Y47106391D02*
X80776116Y47106391D01*
X80633259Y46582581D02*
X81109449Y46582581D01*
X81109449Y46582581D02*
X81109449Y47582581D01*
X81109449Y47582581D02*
X80633259Y47582581D01*
X78509598Y52662581D02*
X78176265Y51662581D01*
X78176265Y51662581D02*
X77842932Y52662581D01*
X76938170Y51662581D02*
X77271503Y52138772D01*
X77509598Y51662581D02*
X77509598Y52662581D01*
X77509598Y52662581D02*
X77128646Y52662581D01*
X77128646Y52662581D02*
X77033408Y52614962D01*
X77033408Y52614962D02*
X76985789Y52567343D01*
X76985789Y52567343D02*
X76938170Y52472105D01*
X76938170Y52472105D02*
X76938170Y52329248D01*
X76938170Y52329248D02*
X76985789Y52234010D01*
X76985789Y52234010D02*
X77033408Y52186391D01*
X77033408Y52186391D02*
X77128646Y52138772D01*
X77128646Y52138772D02*
X77509598Y52138772D01*
X76509598Y52186391D02*
X76176265Y52186391D01*
X76033408Y51662581D02*
X76509598Y51662581D01*
X76509598Y51662581D02*
X76509598Y52662581D01*
X76509598Y52662581D02*
X76033408Y52662581D01*
X75271503Y52186391D02*
X75604836Y52186391D01*
X75604836Y51662581D02*
X75604836Y52662581D01*
X75604836Y52662581D02*
X75128646Y52662581D01*
X84918972Y37422581D02*
X84585639Y36422581D01*
X84585639Y36422581D02*
X84252306Y37422581D01*
X83918972Y36422581D02*
X83918972Y37422581D01*
X83442782Y36422581D02*
X83442782Y37422581D01*
X83442782Y37422581D02*
X82871354Y36422581D01*
X82871354Y36422581D02*
X82871354Y37422581D01*
X76700074Y42026391D02*
X76366741Y42026391D01*
X76223884Y41502581D02*
X76700074Y41502581D01*
X76700074Y41502581D02*
X76700074Y42502581D01*
X76700074Y42502581D02*
X76223884Y42502581D01*
X75795312Y41502581D02*
X75795312Y42502581D01*
X75795312Y42502581D02*
X75223884Y41502581D01*
X75223884Y41502581D02*
X75223884Y42502581D01*
X79842931Y46582581D02*
X79842931Y47582581D01*
X79842931Y47582581D02*
X79461979Y47582581D01*
X79461979Y47582581D02*
X79366741Y47534962D01*
X79366741Y47534962D02*
X79319122Y47487343D01*
X79319122Y47487343D02*
X79271503Y47392105D01*
X79271503Y47392105D02*
X79271503Y47249248D01*
X79271503Y47249248D02*
X79319122Y47154010D01*
X79319122Y47154010D02*
X79366741Y47106391D01*
X79366741Y47106391D02*
X79461979Y47058772D01*
X79461979Y47058772D02*
X79842931Y47058772D01*
X78842931Y46582581D02*
X78842931Y47582581D01*
X78842931Y47582581D02*
X78509598Y46868296D01*
X78509598Y46868296D02*
X78176265Y47582581D01*
X78176265Y47582581D02*
X78176265Y46582581D01*
X77509598Y47582581D02*
X77319122Y47582581D01*
X77319122Y47582581D02*
X77223884Y47534962D01*
X77223884Y47534962D02*
X77128646Y47439724D01*
X77128646Y47439724D02*
X77081027Y47249248D01*
X77081027Y47249248D02*
X77081027Y46915915D01*
X77081027Y46915915D02*
X77128646Y46725439D01*
X77128646Y46725439D02*
X77223884Y46630200D01*
X77223884Y46630200D02*
X77319122Y46582581D01*
X77319122Y46582581D02*
X77509598Y46582581D01*
X77509598Y46582581D02*
X77604836Y46630200D01*
X77604836Y46630200D02*
X77700074Y46725439D01*
X77700074Y46725439D02*
X77747693Y46915915D01*
X77747693Y46915915D02*
X77747693Y47249248D01*
X77747693Y47249248D02*
X77700074Y47439724D01*
X77700074Y47439724D02*
X77604836Y47534962D01*
X77604836Y47534962D02*
X77509598Y47582581D01*
X76652455Y46582581D02*
X76652455Y47582581D01*
X76652455Y47582581D02*
X76414360Y47582581D01*
X76414360Y47582581D02*
X76271503Y47534962D01*
X76271503Y47534962D02*
X76176265Y47439724D01*
X76176265Y47439724D02*
X76128646Y47344486D01*
X76128646Y47344486D02*
X76081027Y47154010D01*
X76081027Y47154010D02*
X76081027Y47011153D01*
X76081027Y47011153D02*
X76128646Y46820677D01*
X76128646Y46820677D02*
X76176265Y46725439D01*
X76176265Y46725439D02*
X76271503Y46630200D01*
X76271503Y46630200D02*
X76414360Y46582581D01*
X76414360Y46582581D02*
X76652455Y46582581D01*
X75652455Y47106391D02*
X75319122Y47106391D01*
X75176265Y46582581D02*
X75652455Y46582581D01*
X75652455Y46582581D02*
X75652455Y47582581D01*
X75652455Y47582581D02*
X75176265Y47582581D01*
X84204687Y51757820D02*
X84252306Y51710200D01*
X84252306Y51710200D02*
X84395163Y51662581D01*
X84395163Y51662581D02*
X84490401Y51662581D01*
X84490401Y51662581D02*
X84633258Y51710200D01*
X84633258Y51710200D02*
X84728496Y51805439D01*
X84728496Y51805439D02*
X84776115Y51900677D01*
X84776115Y51900677D02*
X84823734Y52091153D01*
X84823734Y52091153D02*
X84823734Y52234010D01*
X84823734Y52234010D02*
X84776115Y52424486D01*
X84776115Y52424486D02*
X84728496Y52519724D01*
X84728496Y52519724D02*
X84633258Y52614962D01*
X84633258Y52614962D02*
X84490401Y52662581D01*
X84490401Y52662581D02*
X84395163Y52662581D01*
X84395163Y52662581D02*
X84252306Y52614962D01*
X84252306Y52614962D02*
X84204687Y52567343D01*
X83823734Y51710200D02*
X83680877Y51662581D01*
X83680877Y51662581D02*
X83442782Y51662581D01*
X83442782Y51662581D02*
X83347544Y51710200D01*
X83347544Y51710200D02*
X83299925Y51757820D01*
X83299925Y51757820D02*
X83252306Y51853058D01*
X83252306Y51853058D02*
X83252306Y51948296D01*
X83252306Y51948296D02*
X83299925Y52043534D01*
X83299925Y52043534D02*
X83347544Y52091153D01*
X83347544Y52091153D02*
X83442782Y52138772D01*
X83442782Y52138772D02*
X83633258Y52186391D01*
X83633258Y52186391D02*
X83728496Y52234010D01*
X83728496Y52234010D02*
X83776115Y52281629D01*
X83776115Y52281629D02*
X83823734Y52376867D01*
X83823734Y52376867D02*
X83823734Y52472105D01*
X83823734Y52472105D02*
X83776115Y52567343D01*
X83776115Y52567343D02*
X83728496Y52614962D01*
X83728496Y52614962D02*
X83633258Y52662581D01*
X83633258Y52662581D02*
X83395163Y52662581D01*
X83395163Y52662581D02*
X83252306Y52614962D01*
X84252306Y39914962D02*
X84347544Y39962581D01*
X84347544Y39962581D02*
X84490401Y39962581D01*
X84490401Y39962581D02*
X84633258Y39914962D01*
X84633258Y39914962D02*
X84728496Y39819724D01*
X84728496Y39819724D02*
X84776115Y39724486D01*
X84776115Y39724486D02*
X84823734Y39534010D01*
X84823734Y39534010D02*
X84823734Y39391153D01*
X84823734Y39391153D02*
X84776115Y39200677D01*
X84776115Y39200677D02*
X84728496Y39105439D01*
X84728496Y39105439D02*
X84633258Y39010200D01*
X84633258Y39010200D02*
X84490401Y38962581D01*
X84490401Y38962581D02*
X84395163Y38962581D01*
X84395163Y38962581D02*
X84252306Y39010200D01*
X84252306Y39010200D02*
X84204687Y39057820D01*
X84204687Y39057820D02*
X84204687Y39391153D01*
X84204687Y39391153D02*
X84395163Y39391153D01*
X83776115Y38962581D02*
X83776115Y39962581D01*
X83776115Y39962581D02*
X83204687Y38962581D01*
X83204687Y38962581D02*
X83204687Y39962581D01*
X82728496Y38962581D02*
X82728496Y39962581D01*
X82728496Y39962581D02*
X82490401Y39962581D01*
X82490401Y39962581D02*
X82347544Y39914962D01*
X82347544Y39914962D02*
X82252306Y39819724D01*
X82252306Y39819724D02*
X82204687Y39724486D01*
X82204687Y39724486D02*
X82157068Y39534010D01*
X82157068Y39534010D02*
X82157068Y39391153D01*
X82157068Y39391153D02*
X82204687Y39200677D01*
X82204687Y39200677D02*
X82252306Y39105439D01*
X82252306Y39105439D02*
X82347544Y39010200D01*
X82347544Y39010200D02*
X82490401Y38962581D01*
X82490401Y38962581D02*
X82728496Y38962581D01*
X76795312Y44042581D02*
X76795312Y45042581D01*
X76795312Y45042581D02*
X76414360Y45042581D01*
X76414360Y45042581D02*
X76319122Y44994962D01*
X76319122Y44994962D02*
X76271503Y44947343D01*
X76271503Y44947343D02*
X76223884Y44852105D01*
X76223884Y44852105D02*
X76223884Y44709248D01*
X76223884Y44709248D02*
X76271503Y44614010D01*
X76271503Y44614010D02*
X76319122Y44566391D01*
X76319122Y44566391D02*
X76414360Y44518772D01*
X76414360Y44518772D02*
X76795312Y44518772D01*
X75795312Y44042581D02*
X75795312Y45042581D01*
X75795312Y44566391D02*
X75223884Y44566391D01*
X75223884Y44042581D02*
X75223884Y45042581D01*
X84585639Y45042581D02*
X84395163Y45042581D01*
X84395163Y45042581D02*
X84299925Y44994962D01*
X84299925Y44994962D02*
X84204687Y44899724D01*
X84204687Y44899724D02*
X84157068Y44709248D01*
X84157068Y44709248D02*
X84157068Y44375915D01*
X84157068Y44375915D02*
X84204687Y44185439D01*
X84204687Y44185439D02*
X84299925Y44090200D01*
X84299925Y44090200D02*
X84395163Y44042581D01*
X84395163Y44042581D02*
X84585639Y44042581D01*
X84585639Y44042581D02*
X84680877Y44090200D01*
X84680877Y44090200D02*
X84776115Y44185439D01*
X84776115Y44185439D02*
X84823734Y44375915D01*
X84823734Y44375915D02*
X84823734Y44709248D01*
X84823734Y44709248D02*
X84776115Y44899724D01*
X84776115Y44899724D02*
X84680877Y44994962D01*
X84680877Y44994962D02*
X84585639Y45042581D01*
X83728496Y45042581D02*
X83728496Y44233058D01*
X83728496Y44233058D02*
X83680877Y44137820D01*
X83680877Y44137820D02*
X83633258Y44090200D01*
X83633258Y44090200D02*
X83538020Y44042581D01*
X83538020Y44042581D02*
X83347544Y44042581D01*
X83347544Y44042581D02*
X83252306Y44090200D01*
X83252306Y44090200D02*
X83204687Y44137820D01*
X83204687Y44137820D02*
X83157068Y44233058D01*
X83157068Y44233058D02*
X83157068Y45042581D01*
X82823734Y45042581D02*
X82252306Y45042581D01*
X82538020Y44042581D02*
X82538020Y45042581D01*
X81966591Y44947343D02*
X81918972Y44994962D01*
X81918972Y44994962D02*
X81823734Y45042581D01*
X81823734Y45042581D02*
X81585639Y45042581D01*
X81585639Y45042581D02*
X81490401Y44994962D01*
X81490401Y44994962D02*
X81442782Y44947343D01*
X81442782Y44947343D02*
X81395163Y44852105D01*
X81395163Y44852105D02*
X81395163Y44756867D01*
X81395163Y44756867D02*
X81442782Y44614010D01*
X81442782Y44614010D02*
X82014210Y44042581D01*
X82014210Y44042581D02*
X81395163Y44042581D01*
X77271503Y39914962D02*
X77366741Y39962581D01*
X77366741Y39962581D02*
X77509598Y39962581D01*
X77509598Y39962581D02*
X77652455Y39914962D01*
X77652455Y39914962D02*
X77747693Y39819724D01*
X77747693Y39819724D02*
X77795312Y39724486D01*
X77795312Y39724486D02*
X77842931Y39534010D01*
X77842931Y39534010D02*
X77842931Y39391153D01*
X77842931Y39391153D02*
X77795312Y39200677D01*
X77795312Y39200677D02*
X77747693Y39105439D01*
X77747693Y39105439D02*
X77652455Y39010200D01*
X77652455Y39010200D02*
X77509598Y38962581D01*
X77509598Y38962581D02*
X77414360Y38962581D01*
X77414360Y38962581D02*
X77271503Y39010200D01*
X77271503Y39010200D02*
X77223884Y39057820D01*
X77223884Y39057820D02*
X77223884Y39391153D01*
X77223884Y39391153D02*
X77414360Y39391153D01*
X76795312Y38962581D02*
X76795312Y39962581D01*
X76795312Y39962581D02*
X76223884Y38962581D01*
X76223884Y38962581D02*
X76223884Y39962581D01*
X75747693Y38962581D02*
X75747693Y39962581D01*
X75747693Y39962581D02*
X75509598Y39962581D01*
X75509598Y39962581D02*
X75366741Y39914962D01*
X75366741Y39914962D02*
X75271503Y39819724D01*
X75271503Y39819724D02*
X75223884Y39724486D01*
X75223884Y39724486D02*
X75176265Y39534010D01*
X75176265Y39534010D02*
X75176265Y39391153D01*
X75176265Y39391153D02*
X75223884Y39200677D01*
X75223884Y39200677D02*
X75271503Y39105439D01*
X75271503Y39105439D02*
X75366741Y39010200D01*
X75366741Y39010200D02*
X75509598Y38962581D01*
X75509598Y38962581D02*
X75747693Y38962581D01*
X84442782Y49646391D02*
X84776115Y49646391D01*
X84776115Y49122581D02*
X84776115Y50122581D01*
X84776115Y50122581D02*
X84299925Y50122581D01*
X83442782Y49122581D02*
X83918972Y49122581D01*
X83918972Y49122581D02*
X83918972Y50122581D01*
X83252305Y50122581D02*
X82680877Y50122581D01*
X82966591Y49122581D02*
X82966591Y50122581D01*
X84914211Y50400200D02*
X82685639Y50400200D01*
X76950074Y62276391D02*
X76616741Y62276391D01*
X76473884Y61752581D02*
X76950074Y61752581D01*
X76950074Y61752581D02*
X76950074Y62752581D01*
X76950074Y62752581D02*
X76473884Y62752581D01*
X76045312Y61752581D02*
X76045312Y62752581D01*
X76045312Y62752581D02*
X75473884Y61752581D01*
X75473884Y61752581D02*
X75473884Y62752581D01*
X84692782Y69896391D02*
X85026115Y69896391D01*
X85026115Y69372581D02*
X85026115Y70372581D01*
X85026115Y70372581D02*
X84549925Y70372581D01*
X83692782Y69372581D02*
X84168972Y69372581D01*
X84168972Y69372581D02*
X84168972Y70372581D01*
X83502305Y70372581D02*
X82930877Y70372581D01*
X83216591Y69372581D02*
X83216591Y70372581D01*
X85164211Y70650200D02*
X82935639Y70650200D01*
X77807217Y69420200D02*
X77664360Y69372581D01*
X77664360Y69372581D02*
X77426265Y69372581D01*
X77426265Y69372581D02*
X77331027Y69420200D01*
X77331027Y69420200D02*
X77283408Y69467820D01*
X77283408Y69467820D02*
X77235789Y69563058D01*
X77235789Y69563058D02*
X77235789Y69658296D01*
X77235789Y69658296D02*
X77283408Y69753534D01*
X77283408Y69753534D02*
X77331027Y69801153D01*
X77331027Y69801153D02*
X77426265Y69848772D01*
X77426265Y69848772D02*
X77616741Y69896391D01*
X77616741Y69896391D02*
X77711979Y69944010D01*
X77711979Y69944010D02*
X77759598Y69991629D01*
X77759598Y69991629D02*
X77807217Y70086867D01*
X77807217Y70086867D02*
X77807217Y70182105D01*
X77807217Y70182105D02*
X77759598Y70277343D01*
X77759598Y70277343D02*
X77711979Y70324962D01*
X77711979Y70324962D02*
X77616741Y70372581D01*
X77616741Y70372581D02*
X77378646Y70372581D01*
X77378646Y70372581D02*
X77235789Y70324962D01*
X76331027Y69372581D02*
X76807217Y69372581D01*
X76807217Y69372581D02*
X76807217Y70372581D01*
X75997693Y69372581D02*
X75997693Y70372581D01*
X75997693Y70372581D02*
X75616741Y70372581D01*
X75616741Y70372581D02*
X75521503Y70324962D01*
X75521503Y70324962D02*
X75473884Y70277343D01*
X75473884Y70277343D02*
X75426265Y70182105D01*
X75426265Y70182105D02*
X75426265Y70039248D01*
X75426265Y70039248D02*
X75473884Y69944010D01*
X75473884Y69944010D02*
X75521503Y69896391D01*
X75521503Y69896391D02*
X75616741Y69848772D01*
X75616741Y69848772D02*
X75997693Y69848772D01*
X77897694Y70650200D02*
X75335789Y70650200D01*
X84454687Y72007820D02*
X84502306Y71960200D01*
X84502306Y71960200D02*
X84645163Y71912581D01*
X84645163Y71912581D02*
X84740401Y71912581D01*
X84740401Y71912581D02*
X84883258Y71960200D01*
X84883258Y71960200D02*
X84978496Y72055439D01*
X84978496Y72055439D02*
X85026115Y72150677D01*
X85026115Y72150677D02*
X85073734Y72341153D01*
X85073734Y72341153D02*
X85073734Y72484010D01*
X85073734Y72484010D02*
X85026115Y72674486D01*
X85026115Y72674486D02*
X84978496Y72769724D01*
X84978496Y72769724D02*
X84883258Y72864962D01*
X84883258Y72864962D02*
X84740401Y72912581D01*
X84740401Y72912581D02*
X84645163Y72912581D01*
X84645163Y72912581D02*
X84502306Y72864962D01*
X84502306Y72864962D02*
X84454687Y72817343D01*
X84073734Y71960200D02*
X83930877Y71912581D01*
X83930877Y71912581D02*
X83692782Y71912581D01*
X83692782Y71912581D02*
X83597544Y71960200D01*
X83597544Y71960200D02*
X83549925Y72007820D01*
X83549925Y72007820D02*
X83502306Y72103058D01*
X83502306Y72103058D02*
X83502306Y72198296D01*
X83502306Y72198296D02*
X83549925Y72293534D01*
X83549925Y72293534D02*
X83597544Y72341153D01*
X83597544Y72341153D02*
X83692782Y72388772D01*
X83692782Y72388772D02*
X83883258Y72436391D01*
X83883258Y72436391D02*
X83978496Y72484010D01*
X83978496Y72484010D02*
X84026115Y72531629D01*
X84026115Y72531629D02*
X84073734Y72626867D01*
X84073734Y72626867D02*
X84073734Y72722105D01*
X84073734Y72722105D02*
X84026115Y72817343D01*
X84026115Y72817343D02*
X83978496Y72864962D01*
X83978496Y72864962D02*
X83883258Y72912581D01*
X83883258Y72912581D02*
X83645163Y72912581D01*
X83645163Y72912581D02*
X83502306Y72864962D01*
X84835639Y62752581D02*
X84645163Y62752581D01*
X84645163Y62752581D02*
X84549925Y62704962D01*
X84549925Y62704962D02*
X84454687Y62609724D01*
X84454687Y62609724D02*
X84407068Y62419248D01*
X84407068Y62419248D02*
X84407068Y62085915D01*
X84407068Y62085915D02*
X84454687Y61895439D01*
X84454687Y61895439D02*
X84549925Y61800200D01*
X84549925Y61800200D02*
X84645163Y61752581D01*
X84645163Y61752581D02*
X84835639Y61752581D01*
X84835639Y61752581D02*
X84930877Y61800200D01*
X84930877Y61800200D02*
X85026115Y61895439D01*
X85026115Y61895439D02*
X85073734Y62085915D01*
X85073734Y62085915D02*
X85073734Y62419248D01*
X85073734Y62419248D02*
X85026115Y62609724D01*
X85026115Y62609724D02*
X84930877Y62704962D01*
X84930877Y62704962D02*
X84835639Y62752581D01*
X83978496Y62752581D02*
X83978496Y61943058D01*
X83978496Y61943058D02*
X83930877Y61847820D01*
X83930877Y61847820D02*
X83883258Y61800200D01*
X83883258Y61800200D02*
X83788020Y61752581D01*
X83788020Y61752581D02*
X83597544Y61752581D01*
X83597544Y61752581D02*
X83502306Y61800200D01*
X83502306Y61800200D02*
X83454687Y61847820D01*
X83454687Y61847820D02*
X83407068Y61943058D01*
X83407068Y61943058D02*
X83407068Y62752581D01*
X83073734Y62752581D02*
X82502306Y62752581D01*
X82788020Y61752581D02*
X82788020Y62752581D01*
X81645163Y61752581D02*
X82216591Y61752581D01*
X81930877Y61752581D02*
X81930877Y62752581D01*
X81930877Y62752581D02*
X82026115Y62609724D01*
X82026115Y62609724D02*
X82121353Y62514486D01*
X82121353Y62514486D02*
X82216591Y62466867D01*
X77521503Y60164962D02*
X77616741Y60212581D01*
X77616741Y60212581D02*
X77759598Y60212581D01*
X77759598Y60212581D02*
X77902455Y60164962D01*
X77902455Y60164962D02*
X77997693Y60069724D01*
X77997693Y60069724D02*
X78045312Y59974486D01*
X78045312Y59974486D02*
X78092931Y59784010D01*
X78092931Y59784010D02*
X78092931Y59641153D01*
X78092931Y59641153D02*
X78045312Y59450677D01*
X78045312Y59450677D02*
X77997693Y59355439D01*
X77997693Y59355439D02*
X77902455Y59260200D01*
X77902455Y59260200D02*
X77759598Y59212581D01*
X77759598Y59212581D02*
X77664360Y59212581D01*
X77664360Y59212581D02*
X77521503Y59260200D01*
X77521503Y59260200D02*
X77473884Y59307820D01*
X77473884Y59307820D02*
X77473884Y59641153D01*
X77473884Y59641153D02*
X77664360Y59641153D01*
X77045312Y59212581D02*
X77045312Y60212581D01*
X77045312Y60212581D02*
X76473884Y59212581D01*
X76473884Y59212581D02*
X76473884Y60212581D01*
X75997693Y59212581D02*
X75997693Y60212581D01*
X75997693Y60212581D02*
X75759598Y60212581D01*
X75759598Y60212581D02*
X75616741Y60164962D01*
X75616741Y60164962D02*
X75521503Y60069724D01*
X75521503Y60069724D02*
X75473884Y59974486D01*
X75473884Y59974486D02*
X75426265Y59784010D01*
X75426265Y59784010D02*
X75426265Y59641153D01*
X75426265Y59641153D02*
X75473884Y59450677D01*
X75473884Y59450677D02*
X75521503Y59355439D01*
X75521503Y59355439D02*
X75616741Y59260200D01*
X75616741Y59260200D02*
X75759598Y59212581D01*
X75759598Y59212581D02*
X75997693Y59212581D01*
X85168972Y57672581D02*
X84835639Y56672581D01*
X84835639Y56672581D02*
X84502306Y57672581D01*
X84168972Y56672581D02*
X84168972Y57672581D01*
X83692782Y56672581D02*
X83692782Y57672581D01*
X83692782Y57672581D02*
X83121354Y56672581D01*
X83121354Y56672581D02*
X83121354Y57672581D01*
X84502306Y60164962D02*
X84597544Y60212581D01*
X84597544Y60212581D02*
X84740401Y60212581D01*
X84740401Y60212581D02*
X84883258Y60164962D01*
X84883258Y60164962D02*
X84978496Y60069724D01*
X84978496Y60069724D02*
X85026115Y59974486D01*
X85026115Y59974486D02*
X85073734Y59784010D01*
X85073734Y59784010D02*
X85073734Y59641153D01*
X85073734Y59641153D02*
X85026115Y59450677D01*
X85026115Y59450677D02*
X84978496Y59355439D01*
X84978496Y59355439D02*
X84883258Y59260200D01*
X84883258Y59260200D02*
X84740401Y59212581D01*
X84740401Y59212581D02*
X84645163Y59212581D01*
X84645163Y59212581D02*
X84502306Y59260200D01*
X84502306Y59260200D02*
X84454687Y59307820D01*
X84454687Y59307820D02*
X84454687Y59641153D01*
X84454687Y59641153D02*
X84645163Y59641153D01*
X84026115Y59212581D02*
X84026115Y60212581D01*
X84026115Y60212581D02*
X83454687Y59212581D01*
X83454687Y59212581D02*
X83454687Y60212581D01*
X82978496Y59212581D02*
X82978496Y60212581D01*
X82978496Y60212581D02*
X82740401Y60212581D01*
X82740401Y60212581D02*
X82597544Y60164962D01*
X82597544Y60164962D02*
X82502306Y60069724D01*
X82502306Y60069724D02*
X82454687Y59974486D01*
X82454687Y59974486D02*
X82407068Y59784010D01*
X82407068Y59784010D02*
X82407068Y59641153D01*
X82407068Y59641153D02*
X82454687Y59450677D01*
X82454687Y59450677D02*
X82502306Y59355439D01*
X82502306Y59355439D02*
X82597544Y59260200D01*
X82597544Y59260200D02*
X82740401Y59212581D01*
X82740401Y59212581D02*
X82978496Y59212581D01*
X80092931Y66832581D02*
X80092931Y67832581D01*
X80092931Y67832581D02*
X79711979Y67832581D01*
X79711979Y67832581D02*
X79616741Y67784962D01*
X79616741Y67784962D02*
X79569122Y67737343D01*
X79569122Y67737343D02*
X79521503Y67642105D01*
X79521503Y67642105D02*
X79521503Y67499248D01*
X79521503Y67499248D02*
X79569122Y67404010D01*
X79569122Y67404010D02*
X79616741Y67356391D01*
X79616741Y67356391D02*
X79711979Y67308772D01*
X79711979Y67308772D02*
X80092931Y67308772D01*
X79092931Y66832581D02*
X79092931Y67832581D01*
X79092931Y67832581D02*
X78759598Y67118296D01*
X78759598Y67118296D02*
X78426265Y67832581D01*
X78426265Y67832581D02*
X78426265Y66832581D01*
X77759598Y67832581D02*
X77569122Y67832581D01*
X77569122Y67832581D02*
X77473884Y67784962D01*
X77473884Y67784962D02*
X77378646Y67689724D01*
X77378646Y67689724D02*
X77331027Y67499248D01*
X77331027Y67499248D02*
X77331027Y67165915D01*
X77331027Y67165915D02*
X77378646Y66975439D01*
X77378646Y66975439D02*
X77473884Y66880200D01*
X77473884Y66880200D02*
X77569122Y66832581D01*
X77569122Y66832581D02*
X77759598Y66832581D01*
X77759598Y66832581D02*
X77854836Y66880200D01*
X77854836Y66880200D02*
X77950074Y66975439D01*
X77950074Y66975439D02*
X77997693Y67165915D01*
X77997693Y67165915D02*
X77997693Y67499248D01*
X77997693Y67499248D02*
X77950074Y67689724D01*
X77950074Y67689724D02*
X77854836Y67784962D01*
X77854836Y67784962D02*
X77759598Y67832581D01*
X76902455Y66832581D02*
X76902455Y67832581D01*
X76902455Y67832581D02*
X76664360Y67832581D01*
X76664360Y67832581D02*
X76521503Y67784962D01*
X76521503Y67784962D02*
X76426265Y67689724D01*
X76426265Y67689724D02*
X76378646Y67594486D01*
X76378646Y67594486D02*
X76331027Y67404010D01*
X76331027Y67404010D02*
X76331027Y67261153D01*
X76331027Y67261153D02*
X76378646Y67070677D01*
X76378646Y67070677D02*
X76426265Y66975439D01*
X76426265Y66975439D02*
X76521503Y66880200D01*
X76521503Y66880200D02*
X76664360Y66832581D01*
X76664360Y66832581D02*
X76902455Y66832581D01*
X75902455Y67356391D02*
X75569122Y67356391D01*
X75426265Y66832581D02*
X75902455Y66832581D01*
X75902455Y66832581D02*
X75902455Y67832581D01*
X75902455Y67832581D02*
X75426265Y67832581D01*
X85026115Y66832581D02*
X85026115Y67832581D01*
X84549925Y66832581D02*
X84549925Y67832581D01*
X84549925Y67832581D02*
X84216592Y67118296D01*
X84216592Y67118296D02*
X83883259Y67832581D01*
X83883259Y67832581D02*
X83883259Y66832581D01*
X83216592Y67832581D02*
X83026116Y67832581D01*
X83026116Y67832581D02*
X82930878Y67784962D01*
X82930878Y67784962D02*
X82835640Y67689724D01*
X82835640Y67689724D02*
X82788021Y67499248D01*
X82788021Y67499248D02*
X82788021Y67165915D01*
X82788021Y67165915D02*
X82835640Y66975439D01*
X82835640Y66975439D02*
X82930878Y66880200D01*
X82930878Y66880200D02*
X83026116Y66832581D01*
X83026116Y66832581D02*
X83216592Y66832581D01*
X83216592Y66832581D02*
X83311830Y66880200D01*
X83311830Y66880200D02*
X83407068Y66975439D01*
X83407068Y66975439D02*
X83454687Y67165915D01*
X83454687Y67165915D02*
X83454687Y67499248D01*
X83454687Y67499248D02*
X83407068Y67689724D01*
X83407068Y67689724D02*
X83311830Y67784962D01*
X83311830Y67784962D02*
X83216592Y67832581D01*
X82359449Y66832581D02*
X82359449Y67832581D01*
X82359449Y67832581D02*
X82121354Y67832581D01*
X82121354Y67832581D02*
X81978497Y67784962D01*
X81978497Y67784962D02*
X81883259Y67689724D01*
X81883259Y67689724D02*
X81835640Y67594486D01*
X81835640Y67594486D02*
X81788021Y67404010D01*
X81788021Y67404010D02*
X81788021Y67261153D01*
X81788021Y67261153D02*
X81835640Y67070677D01*
X81835640Y67070677D02*
X81883259Y66975439D01*
X81883259Y66975439D02*
X81978497Y66880200D01*
X81978497Y66880200D02*
X82121354Y66832581D01*
X82121354Y66832581D02*
X82359449Y66832581D01*
X81359449Y67356391D02*
X81026116Y67356391D01*
X80883259Y66832581D02*
X81359449Y66832581D01*
X81359449Y66832581D02*
X81359449Y67832581D01*
X81359449Y67832581D02*
X80883259Y67832581D01*
X84835639Y65292581D02*
X84645163Y65292581D01*
X84645163Y65292581D02*
X84549925Y65244962D01*
X84549925Y65244962D02*
X84454687Y65149724D01*
X84454687Y65149724D02*
X84407068Y64959248D01*
X84407068Y64959248D02*
X84407068Y64625915D01*
X84407068Y64625915D02*
X84454687Y64435439D01*
X84454687Y64435439D02*
X84549925Y64340200D01*
X84549925Y64340200D02*
X84645163Y64292581D01*
X84645163Y64292581D02*
X84835639Y64292581D01*
X84835639Y64292581D02*
X84930877Y64340200D01*
X84930877Y64340200D02*
X85026115Y64435439D01*
X85026115Y64435439D02*
X85073734Y64625915D01*
X85073734Y64625915D02*
X85073734Y64959248D01*
X85073734Y64959248D02*
X85026115Y65149724D01*
X85026115Y65149724D02*
X84930877Y65244962D01*
X84930877Y65244962D02*
X84835639Y65292581D01*
X83978496Y65292581D02*
X83978496Y64483058D01*
X83978496Y64483058D02*
X83930877Y64387820D01*
X83930877Y64387820D02*
X83883258Y64340200D01*
X83883258Y64340200D02*
X83788020Y64292581D01*
X83788020Y64292581D02*
X83597544Y64292581D01*
X83597544Y64292581D02*
X83502306Y64340200D01*
X83502306Y64340200D02*
X83454687Y64387820D01*
X83454687Y64387820D02*
X83407068Y64483058D01*
X83407068Y64483058D02*
X83407068Y65292581D01*
X83073734Y65292581D02*
X82502306Y65292581D01*
X82788020Y64292581D02*
X82788020Y65292581D01*
X82216591Y65197343D02*
X82168972Y65244962D01*
X82168972Y65244962D02*
X82073734Y65292581D01*
X82073734Y65292581D02*
X81835639Y65292581D01*
X81835639Y65292581D02*
X81740401Y65244962D01*
X81740401Y65244962D02*
X81692782Y65197343D01*
X81692782Y65197343D02*
X81645163Y65102105D01*
X81645163Y65102105D02*
X81645163Y65006867D01*
X81645163Y65006867D02*
X81692782Y64864010D01*
X81692782Y64864010D02*
X82264210Y64292581D01*
X82264210Y64292581D02*
X81645163Y64292581D01*
X77140550Y57672581D02*
X76807217Y56672581D01*
X76807217Y56672581D02*
X76473884Y57672581D01*
X76140550Y56672581D02*
X76140550Y57672581D01*
X76140550Y57672581D02*
X75807217Y56958296D01*
X75807217Y56958296D02*
X75473884Y57672581D01*
X75473884Y57672581D02*
X75473884Y56672581D01*
X78759598Y72912581D02*
X78426265Y71912581D01*
X78426265Y71912581D02*
X78092932Y72912581D01*
X77188170Y71912581D02*
X77521503Y72388772D01*
X77759598Y71912581D02*
X77759598Y72912581D01*
X77759598Y72912581D02*
X77378646Y72912581D01*
X77378646Y72912581D02*
X77283408Y72864962D01*
X77283408Y72864962D02*
X77235789Y72817343D01*
X77235789Y72817343D02*
X77188170Y72722105D01*
X77188170Y72722105D02*
X77188170Y72579248D01*
X77188170Y72579248D02*
X77235789Y72484010D01*
X77235789Y72484010D02*
X77283408Y72436391D01*
X77283408Y72436391D02*
X77378646Y72388772D01*
X77378646Y72388772D02*
X77759598Y72388772D01*
X76759598Y72436391D02*
X76426265Y72436391D01*
X76283408Y71912581D02*
X76759598Y71912581D01*
X76759598Y71912581D02*
X76759598Y72912581D01*
X76759598Y72912581D02*
X76283408Y72912581D01*
X75521503Y72436391D02*
X75854836Y72436391D01*
X75854836Y71912581D02*
X75854836Y72912581D01*
X75854836Y72912581D02*
X75378646Y72912581D01*
X77045312Y64292581D02*
X77045312Y65292581D01*
X77045312Y65292581D02*
X76664360Y65292581D01*
X76664360Y65292581D02*
X76569122Y65244962D01*
X76569122Y65244962D02*
X76521503Y65197343D01*
X76521503Y65197343D02*
X76473884Y65102105D01*
X76473884Y65102105D02*
X76473884Y64959248D01*
X76473884Y64959248D02*
X76521503Y64864010D01*
X76521503Y64864010D02*
X76569122Y64816391D01*
X76569122Y64816391D02*
X76664360Y64768772D01*
X76664360Y64768772D02*
X77045312Y64768772D01*
X76045312Y64292581D02*
X76045312Y65292581D01*
X76045312Y64816391D02*
X75473884Y64816391D01*
X75473884Y64292581D02*
X75473884Y65292581D01*
X2477693Y28932581D02*
X2144360Y27932581D01*
X2144360Y27932581D02*
X1811027Y28932581D01*
X1477693Y27932581D02*
X1477693Y28932581D01*
X1477693Y28932581D02*
X1239598Y28932581D01*
X1239598Y28932581D02*
X1096741Y28884962D01*
X1096741Y28884962D02*
X1001503Y28789724D01*
X1001503Y28789724D02*
X953884Y28694486D01*
X953884Y28694486D02*
X906265Y28504010D01*
X906265Y28504010D02*
X906265Y28361153D01*
X906265Y28361153D02*
X953884Y28170677D01*
X953884Y28170677D02*
X1001503Y28075439D01*
X1001503Y28075439D02*
X1096741Y27980200D01*
X1096741Y27980200D02*
X1239598Y27932581D01*
X1239598Y27932581D02*
X1477693Y27932581D01*
X477693Y27932581D02*
X477693Y28932581D01*
X477693Y28932581D02*
X239598Y28932581D01*
X239598Y28932581D02*
X96741Y28884962D01*
X96741Y28884962D02*
X1503Y28789724D01*
X1503Y28789724D02*
X-46116Y28694486D01*
X-46116Y28694486D02*
X-93735Y28504010D01*
X-93735Y28504010D02*
X-93735Y28361153D01*
X-93735Y28361153D02*
X-46116Y28170677D01*
X-46116Y28170677D02*
X1503Y28075439D01*
X1503Y28075439D02*
X96741Y27980200D01*
X96741Y27980200D02*
X239598Y27932581D01*
X239598Y27932581D02*
X477693Y27932581D01*
X-2495313Y28042581D02*
X-2161980Y28518772D01*
X-1923885Y28042581D02*
X-1923885Y29042581D01*
X-1923885Y29042581D02*
X-2304837Y29042581D01*
X-2304837Y29042581D02*
X-2400075Y28994962D01*
X-2400075Y28994962D02*
X-2447694Y28947343D01*
X-2447694Y28947343D02*
X-2495313Y28852105D01*
X-2495313Y28852105D02*
X-2495313Y28709248D01*
X-2495313Y28709248D02*
X-2447694Y28614010D01*
X-2447694Y28614010D02*
X-2400075Y28566391D01*
X-2400075Y28566391D02*
X-2304837Y28518772D01*
X-2304837Y28518772D02*
X-1923885Y28518772D01*
X-2828647Y29042581D02*
X-3495313Y28042581D01*
X-3495313Y29042581D02*
X-2828647Y28042581D01*
X-2447694Y23914962D02*
X-2352456Y23962581D01*
X-2352456Y23962581D02*
X-2209599Y23962581D01*
X-2209599Y23962581D02*
X-2066742Y23914962D01*
X-2066742Y23914962D02*
X-1971504Y23819724D01*
X-1971504Y23819724D02*
X-1923885Y23724486D01*
X-1923885Y23724486D02*
X-1876266Y23534010D01*
X-1876266Y23534010D02*
X-1876266Y23391153D01*
X-1876266Y23391153D02*
X-1923885Y23200677D01*
X-1923885Y23200677D02*
X-1971504Y23105439D01*
X-1971504Y23105439D02*
X-2066742Y23010200D01*
X-2066742Y23010200D02*
X-2209599Y22962581D01*
X-2209599Y22962581D02*
X-2304837Y22962581D01*
X-2304837Y22962581D02*
X-2447694Y23010200D01*
X-2447694Y23010200D02*
X-2495313Y23057820D01*
X-2495313Y23057820D02*
X-2495313Y23391153D01*
X-2495313Y23391153D02*
X-2304837Y23391153D01*
X-2923885Y22962581D02*
X-2923885Y23962581D01*
X-2923885Y23962581D02*
X-3304837Y23962581D01*
X-3304837Y23962581D02*
X-3400075Y23914962D01*
X-3400075Y23914962D02*
X-3447694Y23867343D01*
X-3447694Y23867343D02*
X-3495313Y23772105D01*
X-3495313Y23772105D02*
X-3495313Y23629248D01*
X-3495313Y23629248D02*
X-3447694Y23534010D01*
X-3447694Y23534010D02*
X-3400075Y23486391D01*
X-3400075Y23486391D02*
X-3304837Y23438772D01*
X-3304837Y23438772D02*
X-2923885Y23438772D01*
X-3923885Y22962581D02*
X-3923885Y23962581D01*
X-4590551Y23962581D02*
X-4781027Y23962581D01*
X-4781027Y23962581D02*
X-4876265Y23914962D01*
X-4876265Y23914962D02*
X-4971503Y23819724D01*
X-4971503Y23819724D02*
X-5019122Y23629248D01*
X-5019122Y23629248D02*
X-5019122Y23295915D01*
X-5019122Y23295915D02*
X-4971503Y23105439D01*
X-4971503Y23105439D02*
X-4876265Y23010200D01*
X-4876265Y23010200D02*
X-4781027Y22962581D01*
X-4781027Y22962581D02*
X-4590551Y22962581D01*
X-4590551Y22962581D02*
X-4495313Y23010200D01*
X-4495313Y23010200D02*
X-4400075Y23105439D01*
X-4400075Y23105439D02*
X-4352456Y23295915D01*
X-4352456Y23295915D02*
X-4352456Y23629248D01*
X-4352456Y23629248D02*
X-4400075Y23819724D01*
X-4400075Y23819724D02*
X-4495313Y23914962D01*
X-4495313Y23914962D02*
X-4590551Y23962581D01*
X-5400075Y23867343D02*
X-5447694Y23914962D01*
X-5447694Y23914962D02*
X-5542932Y23962581D01*
X-5542932Y23962581D02*
X-5781027Y23962581D01*
X-5781027Y23962581D02*
X-5876265Y23914962D01*
X-5876265Y23914962D02*
X-5923884Y23867343D01*
X-5923884Y23867343D02*
X-5971503Y23772105D01*
X-5971503Y23772105D02*
X-5971503Y23676867D01*
X-5971503Y23676867D02*
X-5923884Y23534010D01*
X-5923884Y23534010D02*
X-5352456Y22962581D01*
X-5352456Y22962581D02*
X-5971503Y22962581D01*
X1620551Y25502581D02*
X1953884Y25978772D01*
X2191979Y25502581D02*
X2191979Y26502581D01*
X2191979Y26502581D02*
X1811027Y26502581D01*
X1811027Y26502581D02*
X1715789Y26454962D01*
X1715789Y26454962D02*
X1668170Y26407343D01*
X1668170Y26407343D02*
X1620551Y26312105D01*
X1620551Y26312105D02*
X1620551Y26169248D01*
X1620551Y26169248D02*
X1668170Y26074010D01*
X1668170Y26074010D02*
X1715789Y26026391D01*
X1715789Y26026391D02*
X1811027Y25978772D01*
X1811027Y25978772D02*
X2191979Y25978772D01*
X1239598Y25550200D02*
X1096741Y25502581D01*
X1096741Y25502581D02*
X858646Y25502581D01*
X858646Y25502581D02*
X763408Y25550200D01*
X763408Y25550200D02*
X715789Y25597820D01*
X715789Y25597820D02*
X668170Y25693058D01*
X668170Y25693058D02*
X668170Y25788296D01*
X668170Y25788296D02*
X715789Y25883534D01*
X715789Y25883534D02*
X763408Y25931153D01*
X763408Y25931153D02*
X858646Y25978772D01*
X858646Y25978772D02*
X1049122Y26026391D01*
X1049122Y26026391D02*
X1144360Y26074010D01*
X1144360Y26074010D02*
X1191979Y26121629D01*
X1191979Y26121629D02*
X1239598Y26216867D01*
X1239598Y26216867D02*
X1239598Y26312105D01*
X1239598Y26312105D02*
X1191979Y26407343D01*
X1191979Y26407343D02*
X1144360Y26454962D01*
X1144360Y26454962D02*
X1049122Y26502581D01*
X1049122Y26502581D02*
X811027Y26502581D01*
X811027Y26502581D02*
X668170Y26454962D01*
X382455Y26502581D02*
X-188973Y26502581D01*
X96741Y25502581D02*
X96741Y26502581D01*
X2330075Y26780200D02*
X-184211Y26780200D01*
X-2447694Y21374962D02*
X-2352456Y21422581D01*
X-2352456Y21422581D02*
X-2209599Y21422581D01*
X-2209599Y21422581D02*
X-2066742Y21374962D01*
X-2066742Y21374962D02*
X-1971504Y21279724D01*
X-1971504Y21279724D02*
X-1923885Y21184486D01*
X-1923885Y21184486D02*
X-1876266Y20994010D01*
X-1876266Y20994010D02*
X-1876266Y20851153D01*
X-1876266Y20851153D02*
X-1923885Y20660677D01*
X-1923885Y20660677D02*
X-1971504Y20565439D01*
X-1971504Y20565439D02*
X-2066742Y20470200D01*
X-2066742Y20470200D02*
X-2209599Y20422581D01*
X-2209599Y20422581D02*
X-2304837Y20422581D01*
X-2304837Y20422581D02*
X-2447694Y20470200D01*
X-2447694Y20470200D02*
X-2495313Y20517820D01*
X-2495313Y20517820D02*
X-2495313Y20851153D01*
X-2495313Y20851153D02*
X-2304837Y20851153D01*
X-2923885Y20422581D02*
X-2923885Y21422581D01*
X-2923885Y21422581D02*
X-3495313Y20422581D01*
X-3495313Y20422581D02*
X-3495313Y21422581D01*
X-3971504Y20422581D02*
X-3971504Y21422581D01*
X-3971504Y21422581D02*
X-4209599Y21422581D01*
X-4209599Y21422581D02*
X-4352456Y21374962D01*
X-4352456Y21374962D02*
X-4447694Y21279724D01*
X-4447694Y21279724D02*
X-4495313Y21184486D01*
X-4495313Y21184486D02*
X-4542932Y20994010D01*
X-4542932Y20994010D02*
X-4542932Y20851153D01*
X-4542932Y20851153D02*
X-4495313Y20660677D01*
X-4495313Y20660677D02*
X-4447694Y20565439D01*
X-4447694Y20565439D02*
X-4352456Y20470200D01*
X-4352456Y20470200D02*
X-4209599Y20422581D01*
X-4209599Y20422581D02*
X-3971504Y20422581D01*
X3715789Y23057820D02*
X3763408Y23010200D01*
X3763408Y23010200D02*
X3906265Y22962581D01*
X3906265Y22962581D02*
X4001503Y22962581D01*
X4001503Y22962581D02*
X4144360Y23010200D01*
X4144360Y23010200D02*
X4239598Y23105439D01*
X4239598Y23105439D02*
X4287217Y23200677D01*
X4287217Y23200677D02*
X4334836Y23391153D01*
X4334836Y23391153D02*
X4334836Y23534010D01*
X4334836Y23534010D02*
X4287217Y23724486D01*
X4287217Y23724486D02*
X4239598Y23819724D01*
X4239598Y23819724D02*
X4144360Y23914962D01*
X4144360Y23914962D02*
X4001503Y23962581D01*
X4001503Y23962581D02*
X3906265Y23962581D01*
X3906265Y23962581D02*
X3763408Y23914962D01*
X3763408Y23914962D02*
X3715789Y23867343D01*
X3287217Y22962581D02*
X3287217Y23962581D01*
X3287217Y23486391D02*
X2715789Y23486391D01*
X2715789Y22962581D02*
X2715789Y23962581D01*
X2477694Y22867343D02*
X1715789Y22867343D01*
X1477693Y22962581D02*
X1477693Y23962581D01*
X1477693Y23962581D02*
X1096741Y23962581D01*
X1096741Y23962581D02*
X1001503Y23914962D01*
X1001503Y23914962D02*
X953884Y23867343D01*
X953884Y23867343D02*
X906265Y23772105D01*
X906265Y23772105D02*
X906265Y23629248D01*
X906265Y23629248D02*
X953884Y23534010D01*
X953884Y23534010D02*
X1001503Y23486391D01*
X1001503Y23486391D02*
X1096741Y23438772D01*
X1096741Y23438772D02*
X1477693Y23438772D01*
X477693Y22962581D02*
X477693Y23962581D01*
X477693Y23962581D02*
X239598Y23962581D01*
X239598Y23962581D02*
X96741Y23914962D01*
X96741Y23914962D02*
X1503Y23819724D01*
X1503Y23819724D02*
X-46116Y23724486D01*
X-46116Y23724486D02*
X-93735Y23534010D01*
X-93735Y23534010D02*
X-93735Y23391153D01*
X-93735Y23391153D02*
X-46116Y23200677D01*
X-46116Y23200677D02*
X1503Y23105439D01*
X1503Y23105439D02*
X96741Y23010200D01*
X96741Y23010200D02*
X239598Y22962581D01*
X239598Y22962581D02*
X477693Y22962581D01*
X1334836Y21422581D02*
X763408Y21422581D01*
X1049122Y20422581D02*
X1049122Y21422581D01*
X525312Y21422581D02*
X-141354Y20422581D01*
X-141354Y21422581D02*
X525312Y20422581D01*
X-2447694Y26454962D02*
X-2352456Y26502581D01*
X-2352456Y26502581D02*
X-2209599Y26502581D01*
X-2209599Y26502581D02*
X-2066742Y26454962D01*
X-2066742Y26454962D02*
X-1971504Y26359724D01*
X-1971504Y26359724D02*
X-1923885Y26264486D01*
X-1923885Y26264486D02*
X-1876266Y26074010D01*
X-1876266Y26074010D02*
X-1876266Y25931153D01*
X-1876266Y25931153D02*
X-1923885Y25740677D01*
X-1923885Y25740677D02*
X-1971504Y25645439D01*
X-1971504Y25645439D02*
X-2066742Y25550200D01*
X-2066742Y25550200D02*
X-2209599Y25502581D01*
X-2209599Y25502581D02*
X-2304837Y25502581D01*
X-2304837Y25502581D02*
X-2447694Y25550200D01*
X-2447694Y25550200D02*
X-2495313Y25597820D01*
X-2495313Y25597820D02*
X-2495313Y25931153D01*
X-2495313Y25931153D02*
X-2304837Y25931153D01*
X-2923885Y25502581D02*
X-2923885Y26502581D01*
X-2923885Y26502581D02*
X-3304837Y26502581D01*
X-3304837Y26502581D02*
X-3400075Y26454962D01*
X-3400075Y26454962D02*
X-3447694Y26407343D01*
X-3447694Y26407343D02*
X-3495313Y26312105D01*
X-3495313Y26312105D02*
X-3495313Y26169248D01*
X-3495313Y26169248D02*
X-3447694Y26074010D01*
X-3447694Y26074010D02*
X-3400075Y26026391D01*
X-3400075Y26026391D02*
X-3304837Y25978772D01*
X-3304837Y25978772D02*
X-2923885Y25978772D01*
X-3923885Y25502581D02*
X-3923885Y26502581D01*
X-4590551Y26502581D02*
X-4781027Y26502581D01*
X-4781027Y26502581D02*
X-4876265Y26454962D01*
X-4876265Y26454962D02*
X-4971503Y26359724D01*
X-4971503Y26359724D02*
X-5019122Y26169248D01*
X-5019122Y26169248D02*
X-5019122Y25835915D01*
X-5019122Y25835915D02*
X-4971503Y25645439D01*
X-4971503Y25645439D02*
X-4876265Y25550200D01*
X-4876265Y25550200D02*
X-4781027Y25502581D01*
X-4781027Y25502581D02*
X-4590551Y25502581D01*
X-4590551Y25502581D02*
X-4495313Y25550200D01*
X-4495313Y25550200D02*
X-4400075Y25645439D01*
X-4400075Y25645439D02*
X-4352456Y25835915D01*
X-4352456Y25835915D02*
X-4352456Y26169248D01*
X-4352456Y26169248D02*
X-4400075Y26359724D01*
X-4400075Y26359724D02*
X-4495313Y26454962D01*
X-4495313Y26454962D02*
X-4590551Y26502581D01*
X-5638170Y26502581D02*
X-5733408Y26502581D01*
X-5733408Y26502581D02*
X-5828646Y26454962D01*
X-5828646Y26454962D02*
X-5876265Y26407343D01*
X-5876265Y26407343D02*
X-5923884Y26312105D01*
X-5923884Y26312105D02*
X-5971503Y26121629D01*
X-5971503Y26121629D02*
X-5971503Y25883534D01*
X-5971503Y25883534D02*
X-5923884Y25693058D01*
X-5923884Y25693058D02*
X-5876265Y25597820D01*
X-5876265Y25597820D02*
X-5828646Y25550200D01*
X-5828646Y25550200D02*
X-5733408Y25502581D01*
X-5733408Y25502581D02*
X-5638170Y25502581D01*
X-5638170Y25502581D02*
X-5542932Y25550200D01*
X-5542932Y25550200D02*
X-5495313Y25597820D01*
X-5495313Y25597820D02*
X-5447694Y25693058D01*
X-5447694Y25693058D02*
X-5400075Y25883534D01*
X-5400075Y25883534D02*
X-5400075Y26121629D01*
X-5400075Y26121629D02*
X-5447694Y26312105D01*
X-5447694Y26312105D02*
X-5495313Y26407343D01*
X-5495313Y26407343D02*
X-5542932Y26454962D01*
X-5542932Y26454962D02*
X-5638170Y26502581D01*
%TO.C,U7*%
X-6700000Y19610000D02*
X-985000Y19610000D01*
X-6700000Y22150000D02*
X-6700000Y24690000D01*
X-6700000Y29770000D02*
X-6700000Y19610000D01*
X-985000Y19610000D02*
X4730000Y19610000D01*
X-985000Y29770000D02*
X-985000Y19610000D01*
X4730000Y19610000D02*
X4730000Y29770000D01*
X4730000Y22150000D02*
X-6700000Y22150000D01*
X4730000Y24690000D02*
X-6700000Y24690000D01*
X4730000Y27230000D02*
X-6700000Y27230000D01*
X4730000Y29770000D02*
X-6700000Y29770000D01*
%TD*%
M02*
