%TF.GenerationSoftware,KiCad,Pcbnew,9.0.7*%
%TF.CreationDate,2026-03-19T15:10:09-04:00*%
%TF.ProjectId,Sch_matique_PCB_EQ03,536368e9-6d61-4746-9971-75655f504342,rev?*%
%TF.SameCoordinates,PX84c7b30PY820b040*%
%TF.FileFunction,Copper,L1,Top*%
%TF.FilePolarity,Positive*%
%FSLAX46Y46*%
G04 Gerber Fmt 4.6, Leading zero omitted, Abs format (unit mm)*
G04 Created by KiCad (PCBNEW 9.0.7) date 2026-03-19 15:10:09*
%MOMM*%
%LPD*%
G01*
G04 APERTURE LIST*
G04 Aperture macros list*
%AMRoundRect*
0 Rectangle with rounded corners*
0 $1 Rounding radius*
0 $2 $3 $4 $5 $6 $7 $8 $9 X,Y pos of 4 corners*
0 Add a 4 corners polygon primitive as box body*
4,1,4,$2,$3,$4,$5,$6,$7,$8,$9,$2,$3,0*
0 Add four circle primitives for the rounded corners*
1,1,$1+$1,$2,$3*
1,1,$1+$1,$4,$5*
1,1,$1+$1,$6,$7*
1,1,$1+$1,$8,$9*
0 Add four rect primitives between the rounded corners*
20,1,$1+$1,$2,$3,$4,$5,0*
20,1,$1+$1,$4,$5,$6,$7,0*
20,1,$1+$1,$6,$7,$8,$9,0*
20,1,$1+$1,$8,$9,$2,$3,0*%
G04 Aperture macros list end*
%TA.AperFunction,ComponentPad*%
%ADD10O,3.000000X6.000000*%
%TD*%
%TA.AperFunction,ComponentPad*%
%ADD11C,1.440000*%
%TD*%
%TA.AperFunction,ComponentPad*%
%ADD12R,3.000000X3.000000*%
%TD*%
%TA.AperFunction,ComponentPad*%
%ADD13C,3.000000*%
%TD*%
%TA.AperFunction,ComponentPad*%
%ADD14R,1.700000X1.700000*%
%TD*%
%TA.AperFunction,ComponentPad*%
%ADD15O,1.700000X1.700000*%
%TD*%
%TA.AperFunction,ComponentPad*%
%ADD16R,1.600000X1.600000*%
%TD*%
%TA.AperFunction,ComponentPad*%
%ADD17C,1.600000*%
%TD*%
%TA.AperFunction,ComponentPad*%
%ADD18O,5.000000X3.000000*%
%TD*%
%TA.AperFunction,ComponentPad*%
%ADD19C,1.700000*%
%TD*%
%TA.AperFunction,ComponentPad*%
%ADD20R,1.600000X2.200000*%
%TD*%
%TA.AperFunction,ComponentPad*%
%ADD21O,1.600000X2.200000*%
%TD*%
%TA.AperFunction,ComponentPad*%
%ADD22C,3.200000*%
%TD*%
%TA.AperFunction,ComponentPad*%
%ADD23R,1.905000X2.000000*%
%TD*%
%TA.AperFunction,ComponentPad*%
%ADD24O,1.905000X2.000000*%
%TD*%
%TA.AperFunction,ComponentPad*%
%ADD25R,2.000000X2.000000*%
%TD*%
%TA.AperFunction,ComponentPad*%
%ADD26C,2.000000*%
%TD*%
%TA.AperFunction,ComponentPad*%
%ADD27O,2.000000X2.000000*%
%TD*%
%TA.AperFunction,ComponentPad*%
%ADD28R,2.400000X1.600000*%
%TD*%
%TA.AperFunction,ComponentPad*%
%ADD29O,2.400000X1.600000*%
%TD*%
%TA.AperFunction,ComponentPad*%
%ADD30RoundRect,0.250000X-0.600000X0.600000X-0.600000X-0.600000X0.600000X-0.600000X0.600000X0.600000X0*%
%TD*%
%TA.AperFunction,SMDPad,CuDef*%
%ADD31RoundRect,0.150000X-0.625000X0.150000X-0.625000X-0.150000X0.625000X-0.150000X0.625000X0.150000X0*%
%TD*%
%TA.AperFunction,SMDPad,CuDef*%
%ADD32RoundRect,0.250000X-0.650000X0.350000X-0.650000X-0.350000X0.650000X-0.350000X0.650000X0.350000X0*%
%TD*%
%TA.AperFunction,ComponentPad*%
%ADD33RoundRect,0.249999X-0.850001X-0.850001X0.850001X-0.850001X0.850001X0.850001X-0.850001X0.850001X0*%
%TD*%
%TA.AperFunction,ComponentPad*%
%ADD34C,2.200000*%
%TD*%
%TA.AperFunction,ComponentPad*%
%ADD35RoundRect,0.250000X0.550000X0.550000X-0.550000X0.550000X-0.550000X-0.550000X0.550000X-0.550000X0*%
%TD*%
%TA.AperFunction,ComponentPad*%
%ADD36RoundRect,0.250001X0.949999X0.949999X-0.949999X0.949999X-0.949999X-0.949999X0.949999X-0.949999X0*%
%TD*%
%TA.AperFunction,ComponentPad*%
%ADD37C,2.400000*%
%TD*%
%TA.AperFunction,ComponentPad*%
%ADD38RoundRect,0.250000X0.750000X0.750000X-0.750000X0.750000X-0.750000X-0.750000X0.750000X-0.750000X0*%
%TD*%
%TA.AperFunction,ComponentPad*%
%ADD39R,1.800000X1.800000*%
%TD*%
%TA.AperFunction,ComponentPad*%
%ADD40C,1.800000*%
%TD*%
%TA.AperFunction,ComponentPad*%
%ADD41O,2.000000X1.200000*%
%TD*%
%TA.AperFunction,ViaPad*%
%ADD42C,1.600000*%
%TD*%
%TA.AperFunction,Conductor*%
%ADD43C,0.900000*%
%TD*%
%TA.AperFunction,Conductor*%
%ADD44C,2.000000*%
%TD*%
%TA.AperFunction,Conductor*%
%ADD45C,0.600000*%
%TD*%
G04 APERTURE END LIST*
D10*
%TO.P,SW1,3,C*%
%TO.N,GND*%
X85074136Y94000000D03*
%TO.P,SW1,2,B*%
%TO.N,Vin*%
X80248136Y94000000D03*
%TO.P,SW1,1,A*%
%TO.N,Net-(D4-K)*%
X75422136Y94000000D03*
%TD*%
D11*
%TO.P,RV1,1,1*%
%TO.N,GND*%
X56500000Y15500000D03*
%TO.P,RV1,2,2*%
%TO.N,Net-(DS1-VO)*%
X56500000Y12960000D03*
%TO.P,RV1,3,3*%
%TO.N,+5V*%
X56500000Y10420000D03*
%TD*%
D12*
%TO.P,J9,1,Pin_1*%
%TO.N,Net-(J9-Pin_1)*%
X93750000Y60500000D03*
D13*
%TO.P,J9,2,Pin_2*%
%TO.N,Net-(J9-Pin_2)*%
X93750000Y65580000D03*
%TD*%
D14*
%TO.P,J2,1,Pin_1*%
%TO.N,GND*%
X82975000Y3000000D03*
D15*
%TO.P,J2,2,Pin_2*%
%TO.N,Net-(J2-Pin_2)*%
X85515000Y3000000D03*
%TO.P,J2,3,Pin_3*%
%TO.N,/MLI_Servo_1*%
X88055000Y3000000D03*
%TD*%
D12*
%TO.P,J10,1,Pin_1*%
%TO.N,Net-(J10-Pin_1)*%
X94000000Y39750000D03*
D13*
%TO.P,J10,2,Pin_2*%
%TO.N,Net-(J10-Pin_2)*%
X94000000Y44830000D03*
%TD*%
D16*
%TO.P,RN1,1,common*%
%TO.N,GND*%
X11750000Y61500000D03*
D17*
%TO.P,RN1,2,R1*%
%TO.N,Net-(D1-K5)*%
X11750000Y58960000D03*
%TO.P,RN1,3,R2*%
%TO.N,Net-(D1-K4)*%
X11750000Y56420000D03*
%TO.P,RN1,4,R3*%
%TO.N,Net-(D1-K3)*%
X11750000Y53880000D03*
%TO.P,RN1,5,R4*%
%TO.N,Net-(D1-K2)*%
X11750000Y51340000D03*
%TO.P,RN1,6,R5*%
%TO.N,Net-(D1-K1)*%
X11750000Y48800000D03*
%TD*%
D14*
%TO.P,J1,1,Pin_1*%
%TO.N,+5V*%
X50250000Y10750000D03*
%TD*%
D18*
%TO.P,BT1,1,+*%
%TO.N,Vbat*%
X84920000Y82905000D03*
%TO.P,BT1,2,-*%
%TO.N,GND*%
X84920000Y79095000D03*
%TD*%
D14*
%TO.P,J6,1,Pin_1*%
%TO.N,+3V3*%
X31500000Y6500000D03*
%TD*%
%TO.P,J4,1,Pin_1*%
%TO.N,Net-(J4-Pin_1)*%
X67500000Y27000000D03*
D19*
%TO.P,J4,2,Pin_2*%
%TO.N,GND*%
X67500000Y24460000D03*
%TD*%
D20*
%TO.P,U2,1,VIN*%
%TO.N,Vin*%
X58080000Y93500000D03*
D21*
%TO.P,U2,2,OUT*%
%TO.N,Net-(D2-K)*%
X55540000Y93500000D03*
%TO.P,U2,3,GND*%
%TO.N,GND*%
X53000000Y93500000D03*
%TO.P,U2,4,FB*%
%TO.N,+5V*%
X50460000Y93500000D03*
%TO.P,U2,5,~{ON}/OFF*%
%TO.N,GND*%
X47920000Y93500000D03*
%TD*%
D22*
%TO.P,F1,2*%
%TO.N,Net-(D4-K)*%
X79250000Y83000000D03*
%TO.P,F1,1*%
%TO.N,Vbat*%
X56750000Y83000000D03*
%TD*%
D14*
%TO.P,J12,1,Pin_1*%
%TO.N,GND*%
X70000000Y4000000D03*
D15*
%TO.P,J12,2,Pin_2*%
%TO.N,Net-(J12-Pin_2)*%
X72540000Y4000000D03*
%TO.P,J12,3,Pin_3*%
%TO.N,/MLI_Servo_2*%
X75080000Y4000000D03*
%TD*%
D23*
%TO.P,U3,1,IN*%
%TO.N,+5V*%
X24960000Y93305000D03*
D24*
%TO.P,U3,2,GND*%
%TO.N,GND*%
X27500000Y93305000D03*
%TO.P,U3,3,OUT*%
%TO.N,+3V3*%
X30040000Y93305000D03*
%TD*%
D12*
%TO.P,J11,1,Pin_1*%
%TO.N,Net-(J11-Pin_1)*%
X94000000Y19500000D03*
D13*
%TO.P,J11,2,Pin_2*%
%TO.N,Net-(J11-Pin_2)*%
X94000000Y24580000D03*
%TD*%
D25*
%TO.P,U8,1,B*%
%TO.N,unconnected-(U8-B-Pad1)*%
X4000000Y34000000D03*
D26*
%TO.P,U8,2,RX*%
%TO.N,Net-(JP1-C)*%
X4000000Y36540000D03*
%TO.P,U8,3,TX*%
%TO.N,unconnected-(U8-TX-Pad3)*%
X4000000Y39080000D03*
%TO.P,U8,4,VCC*%
%TO.N,unconnected-(U8-VCC-Pad4)*%
X4000000Y41620000D03*
%TO.P,U8,5,A*%
%TO.N,unconnected-(U8-A-Pad5)*%
X4000000Y44160000D03*
%TO.P,U8,6,GND*%
%TO.N,GND*%
X4000000Y46700000D03*
%TD*%
D27*
%TO.P,U6,1,VIN*%
%TO.N,Vin*%
X86350000Y16880000D03*
%TO.P,U6,2,GND*%
%TO.N,GND*%
X86350000Y19420000D03*
%TO.P,U6,3,OUT1*%
%TO.N,Net-(J11-Pin_1)*%
X86350000Y21960000D03*
%TO.P,U6,4,OUT2*%
%TO.N,Net-(J11-Pin_2)*%
X86350000Y24500000D03*
%TO.P,U6,5,IMODE*%
%TO.N,unconnected-(U6-IMODE-Pad5)*%
X86350000Y27040000D03*
%TO.P,U6,6,~{FAULT}*%
%TO.N,unconnected-(U6-~{FAULT}-Pad6)*%
X86350000Y29580000D03*
%TO.P,U6,7,CS*%
%TO.N,unconnected-(U6-CS-Pad7)*%
X86350000Y32120000D03*
%TO.P,U6,8,VREF*%
%TO.N,unconnected-(U6-VREF-Pad8)*%
X73650000Y32120000D03*
%TO.P,U6,9,~{SLEEP}*%
%TO.N,+5V*%
X73650000Y29580000D03*
%TO.P,U6,10,PMODE*%
%TO.N,GND*%
X73650000Y27040000D03*
%TO.P,U6,11,PH*%
%TO.N,/PH_PINCE*%
X73650000Y24500000D03*
%TO.P,U6,12,EN*%
%TO.N,/MLI_Pince*%
X73650000Y21960000D03*
%TO.P,U6,13,GND*%
%TO.N,GND*%
X73650000Y19420000D03*
%TO.P,U6,14,WM*%
%TO.N,unconnected-(U6-WM-Pad14)*%
X73650000Y16880000D03*
%TD*%
D17*
%TO.P,C5,1*%
%TO.N,+3V3*%
X49500000Y33500000D03*
%TO.P,C5,2*%
%TO.N,GND*%
X49500000Y36000000D03*
%TD*%
D14*
%TO.P,JP1,1,A*%
%TO.N,/ESP_RX*%
X13000000Y42540000D03*
D19*
%TO.P,JP1,2,C*%
%TO.N,Net-(JP1-C)*%
X13000000Y40000000D03*
%TO.P,JP1,3,B*%
%TO.N,/ESP_TX*%
X13000000Y37460000D03*
%TD*%
D17*
%TO.P,C1,1*%
%TO.N,+3V3*%
X24500000Y36500000D03*
%TO.P,C1,2*%
%TO.N,GND*%
X24500000Y34000000D03*
%TD*%
D26*
%TO.P,SW2,1,1*%
%TO.N,GND*%
X4250000Y71250000D03*
X10750000Y71250000D03*
%TO.P,SW2,2,2*%
%TO.N,/reset*%
X4250000Y66750000D03*
X10750000Y66750000D03*
%TD*%
D28*
%TO.P,U1,1,PB0*%
%TO.N,Net-(D1-A5)*%
X29375000Y59000000D03*
D29*
%TO.P,U1,2,PB1*%
%TO.N,/PH_DROIT*%
X29375000Y56460000D03*
%TO.P,U1,3,PB2*%
%TO.N,/PH_GAUCHE*%
X29375000Y53920000D03*
%TO.P,U1,4,(OC0A)_PB3*%
%TO.N,/EN_DROIT*%
X29375000Y51380000D03*
%TO.P,U1,5,(OC0B)_PB4*%
%TO.N,/EN_GAUCHE*%
X29375000Y48840000D03*
%TO.P,U1,6,(MOSI)_PB5*%
%TO.N,/MOSI*%
X29375000Y46300000D03*
%TO.P,U1,7,(MISO)_PB6*%
%TO.N,/MISO*%
X29375000Y43760000D03*
%TO.P,U1,8,(SCK)_PB7*%
%TO.N,/SCK*%
X29375000Y41220000D03*
%TO.P,U1,9,~{RESET}*%
%TO.N,/reset*%
X29375000Y38680000D03*
%TO.P,U1,10,VCC*%
%TO.N,+3V3*%
X29375000Y36140000D03*
%TO.P,U1,11,GND*%
%TO.N,GND*%
X29375000Y33600000D03*
%TO.P,U1,12,XTAL2*%
%TO.N,unconnected-(U1-XTAL2-Pad12)*%
X29375000Y31060000D03*
%TO.P,U1,13,XTAL1*%
%TO.N,unconnected-(U1-XTAL1-Pad13)*%
X29375000Y28520000D03*
%TO.P,U1,14,(RXD0)_PD0*%
%TO.N,/ESP_TX*%
X29375000Y25980000D03*
%TO.P,U1,15,(TXD0)_PD1*%
%TO.N,/ESP_RX*%
X29375000Y23440000D03*
%TO.P,U1,16,PD2*%
%TO.N,unconnected-(U1-PD2-Pad16)*%
X29375000Y20900000D03*
%TO.P,U1,17,PD3*%
%TO.N,/PH_PINCE*%
X29375000Y18360000D03*
%TO.P,U1,18,(OC1B)_PD4*%
%TO.N,/MLI_Servo_1*%
X29375000Y15820000D03*
%TO.P,U1,19,(OC1A)_PD5*%
%TO.N,/MLI_Servo_2*%
X29375000Y13280000D03*
%TO.P,U1,20,(OC2B)_PD6*%
%TO.N,unconnected-(U1-(OC2B)_PD6-Pad20)*%
X29375000Y10740000D03*
%TO.P,U1,21,(OC2A)_PD7*%
%TO.N,/MLI_Pince*%
X44615000Y10740000D03*
%TO.P,U1,22,(SCL)_PC0*%
%TO.N,/SCL*%
X44615000Y13280000D03*
%TO.P,U1,23,(SDA)_PC1*%
%TO.N,/SDA*%
X44615000Y15820000D03*
%TO.P,U1,24,PC2*%
%TO.N,/LCD_RS*%
X44615000Y18360000D03*
%TO.P,U1,25,PC3*%
%TO.N,/LCD_RW*%
X44615000Y20900000D03*
%TO.P,U1,26,PC4*%
%TO.N,/LCD_D4*%
X44615000Y23440000D03*
%TO.P,U1,27,PC5*%
%TO.N,/LCD_D5*%
X44615000Y25980000D03*
%TO.P,U1,28,PC6*%
%TO.N,/LCD_D6*%
X44615000Y28520000D03*
%TO.P,U1,29,PC7*%
%TO.N,/LCD_D7*%
X44615000Y31060000D03*
%TO.P,U1,30,AVCC*%
%TO.N,+3V3*%
X44615000Y33600000D03*
%TO.P,U1,31,GND*%
%TO.N,GND*%
X44615000Y36140000D03*
%TO.P,U1,32,AREF*%
%TO.N,unconnected-(U1-AREF-Pad32)*%
X44615000Y38680000D03*
%TO.P,U1,33,(ADC7)_PA7*%
%TO.N,/LCD_E*%
X44615000Y41220000D03*
%TO.P,U1,34,(ADC6)_PA6*%
%TO.N,/RESET_ESP*%
X44615000Y43760000D03*
%TO.P,U1,35,(ADC5)_PA5*%
%TO.N,Net-(J4-Pin_1)*%
X44615000Y46300000D03*
%TO.P,U1,36,(ADC4)_PA4*%
%TO.N,Net-(J5-Pin_1)*%
X44615000Y48840000D03*
%TO.P,U1,37,(ADC3)_PA3*%
%TO.N,unconnected-(U1-(ADC3)_PA3-Pad37)*%
X44615000Y51380000D03*
%TO.P,U1,38,(ADC2)_PA2*%
%TO.N,unconnected-(U1-(ADC2)_PA2-Pad38)*%
X44615000Y53920000D03*
%TO.P,U1,39,(ADC1)_PA1*%
%TO.N,unconnected-(U1-(ADC1)_PA1-Pad39)*%
X44615000Y56460000D03*
%TO.P,U1,40,(ADC0)_PA0*%
%TO.N,unconnected-(U1-(ADC0)_PA0-Pad40)*%
X44615000Y59000000D03*
%TD*%
D17*
%TO.P,R5,1*%
%TO.N,Vin*%
X65150000Y9500000D03*
%TO.P,R5,2*%
%TO.N,Net-(J12-Pin_2)*%
X77850000Y9500000D03*
%TD*%
D30*
%TO.P,J3,1,MISO*%
%TO.N,/MISO*%
X38000000Y68500000D03*
D19*
%TO.P,J3,2,VCC*%
%TO.N,unconnected-(J3-VCC-Pad2)*%
X38000000Y65960000D03*
%TO.P,J3,3,SCK*%
%TO.N,/SCK*%
X35460000Y68500000D03*
%TO.P,J3,4,MOSI*%
%TO.N,/MOSI*%
X35460000Y65960000D03*
%TO.P,J3,5,~{RST}*%
%TO.N,/reset*%
X32920000Y68500000D03*
%TO.P,J3,6,GND*%
%TO.N,GND*%
X32920000Y65960000D03*
%TD*%
D27*
%TO.P,U5,1,VIN*%
%TO.N,Vin*%
X86350000Y36880000D03*
%TO.P,U5,2,GND*%
%TO.N,GND*%
X86350000Y39420000D03*
%TO.P,U5,3,OUT1*%
%TO.N,Net-(J10-Pin_1)*%
X86350000Y41960000D03*
%TO.P,U5,4,OUT2*%
%TO.N,Net-(J10-Pin_2)*%
X86350000Y44500000D03*
%TO.P,U5,5,IMODE*%
%TO.N,unconnected-(U5-IMODE-Pad5)*%
X86350000Y47040000D03*
%TO.P,U5,6,~{FAULT}*%
%TO.N,unconnected-(U5-~{FAULT}-Pad6)*%
X86350000Y49580000D03*
%TO.P,U5,7,CS*%
%TO.N,unconnected-(U5-CS-Pad7)*%
X86350000Y52120000D03*
%TO.P,U5,8,VREF*%
%TO.N,unconnected-(U5-VREF-Pad8)*%
X73650000Y52120000D03*
%TO.P,U5,9,~{SLEEP}*%
%TO.N,+5V*%
X73650000Y49580000D03*
%TO.P,U5,10,PMODE*%
%TO.N,GND*%
X73650000Y47040000D03*
%TO.P,U5,11,PH*%
%TO.N,/PH_GAUCHE*%
X73650000Y44500000D03*
%TO.P,U5,12,EN*%
%TO.N,/EN_GAUCHE*%
X73650000Y41960000D03*
%TO.P,U5,13,GND*%
%TO.N,GND*%
X73650000Y39420000D03*
%TO.P,U5,14,WM*%
%TO.N,unconnected-(U5-WM-Pad14)*%
X73650000Y36880000D03*
%TD*%
D31*
%TO.P,U9,4,SCL*%
%TO.N,/SCL*%
X6515635Y12000000D03*
%TO.P,U9,1,GND*%
%TO.N,GND*%
X6515635Y15000000D03*
%TO.P,U9,2,VCC*%
%TO.N,+3V3*%
X6515635Y14000000D03*
%TO.P,U9,3,SDA*%
%TO.N,/SDA*%
X6515635Y13000000D03*
D32*
%TO.P,U9,MP*%
%TO.N,unconnected-(U9-PadMP)_1*%
X2640635Y16300000D03*
%TO.N,unconnected-(U9-PadMP)*%
X2640635Y10700000D03*
%TD*%
D33*
%TO.P,D2,1,K*%
%TO.N,Net-(D2-K)*%
X34880000Y93500000D03*
D34*
%TO.P,D2,2,A*%
%TO.N,GND*%
X42500000Y93500000D03*
%TD*%
D27*
%TO.P,U4,14,WM*%
%TO.N,unconnected-(U4-WM-Pad14)*%
X73900000Y57130000D03*
%TO.P,U4,13,GND*%
%TO.N,GND*%
X73900000Y59670000D03*
%TO.P,U4,12,EN*%
%TO.N,/EN_DROIT*%
X73900000Y62210000D03*
%TO.P,U4,11,PH*%
%TO.N,/PH_DROIT*%
X73900000Y64750000D03*
%TO.P,U4,10,PMODE*%
%TO.N,GND*%
X73900000Y67290000D03*
%TO.P,U4,9,~{SLEEP}*%
%TO.N,+5V*%
X73900000Y69830000D03*
%TO.P,U4,8,VREF*%
%TO.N,unconnected-(U4-VREF-Pad8)*%
X73900000Y72370000D03*
%TO.P,U4,7,CS*%
%TO.N,unconnected-(U4-CS-Pad7)*%
X86600000Y72370000D03*
%TO.P,U4,6,~{FAULT}*%
%TO.N,unconnected-(U4-~{FAULT}-Pad6)*%
X86600000Y69830000D03*
%TO.P,U4,5,IMODE*%
%TO.N,unconnected-(U4-IMODE-Pad5)*%
X86600000Y67290000D03*
%TO.P,U4,4,OUT2*%
%TO.N,Net-(J9-Pin_2)*%
X86600000Y64750000D03*
%TO.P,U4,3,OUT1*%
%TO.N,Net-(J9-Pin_1)*%
X86600000Y62210000D03*
%TO.P,U4,2,GND*%
%TO.N,GND*%
X86600000Y59670000D03*
%TO.P,U4,1,VIN*%
%TO.N,Vin*%
X86600000Y57130000D03*
%TD*%
D35*
%TO.P,C3,1*%
%TO.N,+3V3*%
X17000000Y95000000D03*
D17*
%TO.P,C3,2*%
%TO.N,GND*%
X14500000Y95000000D03*
%TD*%
D36*
%TO.P,C4,1*%
%TO.N,Vin*%
X50500000Y81750000D03*
D37*
%TO.P,C4,2*%
%TO.N,GND*%
X45500000Y81750000D03*
%TD*%
D17*
%TO.P,C2,1*%
%TO.N,+3V3*%
X13000000Y25000000D03*
%TO.P,C2,2*%
%TO.N,GND*%
X13000000Y27500000D03*
%TD*%
D33*
%TO.P,D4,1,K*%
%TO.N,Net-(D4-K)*%
X62690000Y93500000D03*
D34*
%TO.P,D4,2,A*%
%TO.N,GND*%
X70310000Y93500000D03*
%TD*%
D14*
%TO.P,J7,1,Pin_1*%
%TO.N,GND*%
X21750000Y6250000D03*
%TD*%
D17*
%TO.P,R1,1*%
%TO.N,+3V3*%
X18500000Y73310000D03*
%TO.P,R1,2*%
%TO.N,/reset*%
X18500000Y65690000D03*
%TD*%
D14*
%TO.P,DS1,1,VSS*%
%TO.N,GND*%
X61500000Y8000000D03*
D19*
%TO.P,DS1,2,VDD*%
%TO.N,+5V*%
X61500000Y10540000D03*
%TO.P,DS1,3,VO*%
%TO.N,Net-(DS1-VO)*%
X61500000Y13080000D03*
%TO.P,DS1,4,RS*%
%TO.N,/LCD_RS*%
X61500000Y15620000D03*
%TO.P,DS1,5,R/W*%
%TO.N,/LCD_RW*%
X61500000Y18160000D03*
%TO.P,DS1,6,E*%
%TO.N,/LCD_E*%
X61500000Y20700000D03*
%TO.P,DS1,7,D0*%
%TO.N,unconnected-(DS1-D0-Pad7)*%
X61500000Y23240000D03*
%TO.P,DS1,8,D1*%
%TO.N,unconnected-(DS1-D1-Pad8)*%
X61500000Y25780000D03*
%TO.P,DS1,9,D2*%
%TO.N,unconnected-(DS1-D2-Pad9)*%
X61500000Y28320000D03*
%TO.P,DS1,10,D3*%
%TO.N,unconnected-(DS1-D3-Pad10)*%
X61500000Y30860000D03*
%TO.P,DS1,11,D4*%
%TO.N,/LCD_D4*%
X61500000Y33400000D03*
%TO.P,DS1,12,D5*%
%TO.N,/LCD_D5*%
X61500000Y35940000D03*
%TO.P,DS1,13,D6*%
%TO.N,/LCD_D6*%
X61500000Y38480000D03*
%TO.P,DS1,14,D7*%
%TO.N,/LCD_D7*%
X61500000Y41020000D03*
%TO.P,DS1,15,LED(+)*%
%TO.N,Net-(DS1-LED(+))*%
X61500000Y43560000D03*
%TO.P,DS1,16,LED(-)*%
%TO.N,GND*%
X61500000Y46100000D03*
%TD*%
D37*
%TO.P,L1,1,1*%
%TO.N,Net-(D2-K)*%
X30000000Y81500000D03*
%TO.P,L1,2,2*%
%TO.N,+5V*%
X37000000Y81500000D03*
%TD*%
D17*
%TO.P,R2,1*%
%TO.N,+5V*%
X67000000Y39500000D03*
%TO.P,R2,2*%
%TO.N,Net-(DS1-LED(+))*%
X67000000Y31880000D03*
%TD*%
D14*
%TO.P,J5,1,Pin_1*%
%TO.N,Net-(J5-Pin_1)*%
X67500000Y17500000D03*
D19*
%TO.P,J5,2,Pin_2*%
%TO.N,GND*%
X67500000Y14960000D03*
%TD*%
D17*
%TO.P,R4,1*%
%TO.N,Net-(D5-K)*%
X12000000Y77190000D03*
%TO.P,R4,2*%
%TO.N,GND*%
X12000000Y84810000D03*
%TD*%
D14*
%TO.P,J8,1,Pin_1*%
%TO.N,GND*%
X15000000Y15800000D03*
D15*
%TO.P,J8,2,Pin_2*%
%TO.N,+3V3*%
X15000000Y13260000D03*
%TO.P,J8,3,Pin_3*%
%TO.N,/SDA*%
X15000000Y10720000D03*
%TO.P,J8,4,Pin_4*%
%TO.N,/SCL*%
X15000000Y8180000D03*
%TD*%
D38*
%TO.P,C8,1*%
%TO.N,+5V*%
X22500000Y81500000D03*
D26*
%TO.P,C8,2*%
%TO.N,GND*%
X17500000Y81500000D03*
%TD*%
D17*
%TO.P,R3,1*%
%TO.N,Net-(J2-Pin_2)*%
X85500000Y9750000D03*
%TO.P,R3,2*%
%TO.N,Vin*%
X98200000Y9750000D03*
%TD*%
D39*
%TO.P,D5,1,K*%
%TO.N,Net-(D5-K)*%
X3725000Y81000000D03*
D40*
%TO.P,D5,2,A*%
%TO.N,+3V3*%
X6265000Y81000000D03*
%TD*%
D41*
%TO.P,D1,1,A1*%
%TO.N,/EN_GAUCHE*%
X24260000Y48920000D03*
%TO.P,D1,2,A2*%
%TO.N,/EN_DROIT*%
X24260000Y51460000D03*
%TO.P,D1,3,A3*%
%TO.N,/PH_GAUCHE*%
X24260000Y54000000D03*
%TO.P,D1,4,A4*%
%TO.N,/PH_DROIT*%
X24260000Y56540000D03*
%TO.P,D1,5,A5*%
%TO.N,Net-(D1-A5)*%
X24260000Y59080000D03*
%TO.P,D1,6,K5*%
%TO.N,Net-(D1-K5)*%
X16740000Y59080000D03*
%TO.P,D1,7,K4*%
%TO.N,Net-(D1-K4)*%
X16740000Y56540000D03*
%TO.P,D1,8,K3*%
%TO.N,Net-(D1-K3)*%
X16740000Y54000000D03*
%TO.P,D1,9,K2*%
%TO.N,Net-(D1-K2)*%
X16740000Y51460000D03*
%TO.P,D1,10,K1*%
%TO.N,Net-(D1-K1)*%
X16740000Y48920000D03*
%TD*%
D27*
%TO.P,U7,1,RX*%
%TO.N,/ESP_RX*%
X6000000Y28500000D03*
%TO.P,U7,2,VDD*%
%TO.N,+3V3*%
X8540000Y28500000D03*
%TO.P,U7,3,GPIO0*%
X6000000Y25960000D03*
%TO.P,U7,4,~{RST}*%
%TO.N,/RESET_ESP*%
X8540000Y25960000D03*
%TO.P,U7,5,GPIO2*%
%TO.N,+3V3*%
X6000000Y23420000D03*
%TO.P,U7,6,CH_PD*%
X8540000Y23420000D03*
%TO.P,U7,7,GND*%
%TO.N,GND*%
X6000000Y20880000D03*
%TO.P,U7,8,TX*%
%TO.N,/ESP_TX*%
X8540000Y20880000D03*
%TD*%
D42*
%TO.N,/RESET_ESP*%
X10814339Y25935661D03*
X11000000Y19250000D03*
%TO.N,+3V3*%
X22846929Y17244406D03*
X22750000Y22500000D03*
%TO.N,/ESP_RX*%
X3000000Y23750000D03*
X8000000Y18250000D03*
%TO.N,/MLI_Servo_2*%
X33332776Y10082776D03*
%TO.N,/reset*%
X7750000Y63000000D03*
X7750000Y59750000D03*
X20750000Y45750000D03*
X24250000Y45750000D03*
%TO.N,/MLI_Pince*%
X70000000Y9500000D03*
X73250000Y14000000D03*
%TO.N,GND*%
X17500000Y77750000D03*
X21250000Y77500000D03*
X14500000Y31750000D03*
X11500000Y31750000D03*
%TO.N,/ESP_RX*%
X21000000Y17351000D03*
%TO.N,GND*%
X18000000Y28000000D03*
X24500000Y28000000D03*
%TO.N,/ESP_RX*%
X26000000Y24000000D03*
%TO.N,/ESP_TX*%
X24500000Y25750000D03*
%TO.N,/ESP_RX*%
X21000000Y24000000D03*
%TO.N,/ESP_TX*%
X19500000Y25750000D03*
%TO.N,/MLI_Servo_1*%
X37215598Y2000000D03*
%TO.N,Net-(J5-Pin_1)*%
X69250000Y22250000D03*
%TO.N,+5V*%
X67250000Y29500000D03*
X71750000Y29500000D03*
X71750000Y36000000D03*
X68250000Y36000000D03*
%TO.N,/reset*%
X24000000Y65690000D03*
%TO.N,/SCK*%
X40702000Y68250000D03*
%TO.N,/EN_GAUCHE*%
X42250000Y52250000D03*
%TO.N,/RESET_ESP*%
X40500000Y37750000D03*
X40500000Y31750000D03*
%TO.N,GND*%
X42075000Y33600000D03*
%TO.N,/PH_PINCE*%
X39124541Y6875459D03*
%TO.N,/PH_GAUCHE*%
X67750000Y60960000D03*
X67750000Y55500000D03*
%TO.N,GND*%
X80250000Y67500000D03*
X80250000Y47000000D03*
X80000000Y39420000D03*
X79750000Y19420000D03*
X80250000Y59920000D03*
X52700000Y37300000D03*
%TO.N,/EN_GAUCHE*%
X65750000Y55500000D03*
X35500000Y52250000D03*
X65786240Y52271744D03*
%TO.N,/PH_GAUCHE*%
X67750000Y64500000D03*
X67750000Y52250000D03*
%TO.N,/LCD_D5*%
X53939339Y29439339D03*
X57122028Y32622029D03*
%TO.N,/LCD_RW*%
X58250000Y20900000D03*
X55000000Y20900000D03*
%TO.N,/LCD_D4*%
X55000000Y27923588D03*
X58497028Y31247029D03*
%TO.N,/LCD_D7*%
X51314339Y32064339D03*
X54500000Y35250000D03*
%TO.N,/LCD_D6*%
X55805174Y33938882D03*
X52622489Y30756189D03*
%TO.N,/LCD_RS*%
X55000000Y18360000D03*
X58250000Y18360000D03*
%TO.N,/MLI_Servo_1*%
X35750000Y11250000D03*
%TO.N,/MISO*%
X39000000Y58250000D03*
%TO.N,/SCK*%
X40702000Y60000000D03*
%TO.N,/MOSI*%
X37250000Y56250000D03*
%TO.N,/reset*%
X21000000Y65690000D03*
X30585000Y66165000D03*
%TO.N,Net-(J5-Pin_1)*%
X70000000Y41750000D03*
X70042099Y25960000D03*
X70000000Y46000000D03*
%TO.N,/MLI_Servo_2*%
X34897041Y2352959D03*
%TO.N,/PH_PINCE*%
X76000000Y14000000D03*
X72477558Y9658000D03*
X37250000Y13500000D03*
%TD*%
D43*
%TO.N,+3V3*%
X22750000Y22443858D02*
X22846929Y22346929D01*
X22750000Y22500000D02*
X22750000Y22443858D01*
X22846929Y22346929D02*
X22846929Y17244406D01*
%TO.N,/RESET_ESP*%
X11000000Y25750000D02*
X10814339Y25935661D01*
X11000000Y19250000D02*
X11000000Y25750000D01*
%TO.N,/ESP_RX*%
X26000000Y24000000D02*
X21000000Y24000000D01*
X21000000Y24000000D02*
X21000000Y17351000D01*
X3000000Y19250000D02*
X3000000Y23750000D01*
X8000000Y18250000D02*
X4000000Y18250000D01*
X4000000Y18250000D02*
X3000000Y19250000D01*
D44*
%TO.N,GND*%
X86350000Y59920000D02*
X86600000Y59670000D01*
X80250000Y59920000D02*
X86350000Y59920000D01*
X73900000Y67290000D02*
X74150000Y67540000D01*
X73900000Y59670000D02*
X74150000Y59920000D01*
X74150000Y67540000D02*
X80210000Y67540000D01*
X74150000Y59920000D02*
X80250000Y59920000D01*
X80210000Y67540000D02*
X80250000Y67500000D01*
D43*
%TO.N,/RESET_ESP*%
X40500000Y37750000D02*
X40500000Y31750000D01*
%TO.N,/PH_PINCE*%
X38750000Y7250000D02*
X39124541Y6875459D01*
X38750000Y12000000D02*
X38750000Y7250000D01*
X37250000Y13500000D02*
X38750000Y12000000D01*
%TO.N,/MLI_Servo_1*%
X36500000Y10500000D02*
X36500000Y2715598D01*
X35750000Y11250000D02*
X36500000Y10500000D01*
X36500000Y2715598D02*
X37215598Y2000000D01*
D45*
%TO.N,GND*%
X14200000Y15000000D02*
X15000000Y15800000D01*
X6515635Y15000000D02*
X14200000Y15000000D01*
%TO.N,+3V3*%
X14260000Y14000000D02*
X15000000Y13260000D01*
X6515635Y14000000D02*
X14260000Y14000000D01*
%TO.N,/SDA*%
X6515635Y13000000D02*
X6664635Y12851000D01*
X12720000Y13000000D02*
X15000000Y10720000D01*
X6851000Y12851000D02*
X7000000Y13000000D01*
X6664635Y12851000D02*
X6851000Y12851000D01*
X7000000Y13000000D02*
X12720000Y13000000D01*
%TO.N,/SCL*%
X6515635Y12000000D02*
X11180000Y12000000D01*
X11180000Y12000000D02*
X15000000Y8180000D01*
D43*
%TO.N,/reset*%
X7750000Y59750000D02*
X7750000Y63000000D01*
X20750000Y45750000D02*
X24250000Y45750000D01*
%TO.N,/PH_PINCE*%
X76000000Y13180442D02*
X72477558Y9658000D01*
X76000000Y14000000D02*
X76000000Y13180442D01*
%TO.N,/MLI_Pince*%
X73250000Y12750000D02*
X70000000Y9500000D01*
X73250000Y14000000D02*
X73250000Y12750000D01*
%TO.N,+5V*%
X67250000Y29500000D02*
X71750000Y29500000D01*
%TO.N,GND*%
X21000000Y77750000D02*
X21250000Y77500000D01*
X17500000Y77750000D02*
X21000000Y77750000D01*
X11500000Y31750000D02*
X14500000Y31750000D01*
X24500000Y28000000D02*
X18000000Y28000000D01*
%TO.N,/ESP_TX*%
X19500000Y25750000D02*
X24500000Y25750000D01*
D44*
%TO.N,GND*%
X70000000Y6500000D02*
X70000000Y4000000D01*
X70250000Y6750000D02*
X70000000Y6500000D01*
X79225000Y6750000D02*
X70250000Y6750000D01*
X80500000Y5475000D02*
X79225000Y6750000D01*
X80500000Y5475000D02*
X82975000Y3000000D01*
X80500000Y18920000D02*
X80500000Y5475000D01*
D43*
%TO.N,/MLI_Servo_2*%
X34500000Y8915552D02*
X33332776Y10082776D01*
X34897041Y2352959D02*
X34500000Y2750000D01*
X34500000Y2750000D02*
X34500000Y8915552D01*
%TO.N,Net-(J5-Pin_1)*%
X69250000Y25167901D02*
X70042099Y25960000D01*
X69250000Y22250000D02*
X69250000Y25167901D01*
%TO.N,+5V*%
X68250000Y36000000D02*
X71750000Y36000000D01*
%TO.N,/LCD_D4*%
X55173590Y27923590D02*
X58497028Y31247029D01*
X55000000Y27923588D02*
X55000002Y27923590D01*
X55000002Y27923590D02*
X55173590Y27923590D01*
%TO.N,/LCD_D5*%
X53939339Y29439339D02*
X57122028Y32622029D01*
%TO.N,/LCD_D6*%
X55688882Y33938882D02*
X55805174Y33938882D01*
X52622489Y30872489D02*
X55688882Y33938882D01*
X52622489Y30756189D02*
X52622489Y30872489D01*
%TO.N,/LCD_D7*%
X51314339Y32064339D02*
X54500000Y35250000D01*
%TO.N,GND*%
X51400000Y36000000D02*
X49500000Y36000000D01*
X52700000Y37300000D02*
X51400000Y36000000D01*
%TO.N,/reset*%
X24000000Y65690000D02*
X21000000Y65690000D01*
%TO.N,/SCK*%
X40702000Y68250000D02*
X40702000Y60000000D01*
%TO.N,/reset*%
X30585000Y66165000D02*
X32920000Y68500000D01*
%TO.N,/EN_GAUCHE*%
X35500000Y52250000D02*
X42250000Y52250000D01*
%TO.N,Net-(J5-Pin_1)*%
X70000000Y46000000D02*
X70000000Y41750000D01*
D44*
%TO.N,GND*%
X73650000Y39420000D02*
X80000000Y39420000D01*
D43*
%TO.N,/PH_GAUCHE*%
X67750000Y64500000D02*
X67750000Y60960000D01*
X67750000Y52250000D02*
X67750000Y55500000D01*
%TO.N,/EN_GAUCHE*%
X65750000Y54000000D02*
X65750000Y55500000D01*
X65786240Y53963760D02*
X65750000Y54000000D01*
X65786240Y52271744D02*
X65786240Y53963760D01*
D44*
%TO.N,GND*%
X73650000Y19420000D02*
X79750000Y19420000D01*
D43*
X42075000Y33600000D02*
X44615000Y36140000D01*
D44*
X74500000Y47000000D02*
X80250000Y47000000D01*
X73650000Y47040000D02*
X74460000Y47040000D01*
X79750000Y19420000D02*
X86350000Y19420000D01*
X80000000Y39420000D02*
X86350000Y39420000D01*
X74460000Y47040000D02*
X74500000Y47000000D01*
D43*
%TO.N,/LCD_RW*%
X58250000Y20900000D02*
X55000000Y20900000D01*
%TO.N,/LCD_RS*%
X58250000Y18360000D02*
X55000000Y18360000D01*
%TO.N,/MISO*%
X38000000Y68500000D02*
X39551000Y66949000D01*
X39000000Y64409000D02*
X39000000Y58250000D01*
X39551000Y66949000D02*
X39551000Y64960000D01*
X39551000Y64960000D02*
X39000000Y64409000D01*
%TO.N,/MOSI*%
X35460000Y65960000D02*
X37250000Y64170000D01*
X37250000Y64170000D02*
X37250000Y56250000D01*
%TD*%
M02*
