%TF.GenerationSoftware,KiCad,Pcbnew,9.0.7*%
%TF.CreationDate,2026-03-19T15:10:09-04:00*%
%TF.ProjectId,Sch_matique_PCB_EQ03,536368e9-6d61-4746-9971-75655f504342,rev?*%
%TF.SameCoordinates,PX84c7b30PY820b040*%
%TF.FileFunction,Copper,L2,Bot*%
%TF.FilePolarity,Positive*%
%FSLAX46Y46*%
G04 Gerber Fmt 4.6, Leading zero omitted, Abs format (unit mm)*
G04 Created by KiCad (PCBNEW 9.0.7) date 2026-03-19 15:10:09*
%MOMM*%
%LPD*%
G01*
G04 APERTURE LIST*
G04 Aperture macros list*
%AMRoundRect*
0 Rectangle with rounded corners*
0 $1 Rounding radius*
0 $2 $3 $4 $5 $6 $7 $8 $9 X,Y pos of 4 corners*
0 Add a 4 corners polygon primitive as box body*
4,1,4,$2,$3,$4,$5,$6,$7,$8,$9,$2,$3,0*
0 Add four circle primitives for the rounded corners*
1,1,$1+$1,$2,$3*
1,1,$1+$1,$4,$5*
1,1,$1+$1,$6,$7*
1,1,$1+$1,$8,$9*
0 Add four rect primitives between the rounded corners*
20,1,$1+$1,$2,$3,$4,$5,0*
20,1,$1+$1,$4,$5,$6,$7,0*
20,1,$1+$1,$6,$7,$8,$9,0*
20,1,$1+$1,$8,$9,$2,$3,0*%
G04 Aperture macros list end*
%TA.AperFunction,ComponentPad*%
%ADD10O,3.000000X6.000000*%
%TD*%
%TA.AperFunction,ComponentPad*%
%ADD11C,1.440000*%
%TD*%
%TA.AperFunction,ComponentPad*%
%ADD12R,3.000000X3.000000*%
%TD*%
%TA.AperFunction,ComponentPad*%
%ADD13C,3.000000*%
%TD*%
%TA.AperFunction,ComponentPad*%
%ADD14R,1.700000X1.700000*%
%TD*%
%TA.AperFunction,ComponentPad*%
%ADD15O,1.700000X1.700000*%
%TD*%
%TA.AperFunction,ComponentPad*%
%ADD16R,1.600000X1.600000*%
%TD*%
%TA.AperFunction,ComponentPad*%
%ADD17C,1.600000*%
%TD*%
%TA.AperFunction,ComponentPad*%
%ADD18O,5.000000X3.000000*%
%TD*%
%TA.AperFunction,ComponentPad*%
%ADD19C,1.700000*%
%TD*%
%TA.AperFunction,ComponentPad*%
%ADD20R,1.600000X2.200000*%
%TD*%
%TA.AperFunction,ComponentPad*%
%ADD21O,1.600000X2.200000*%
%TD*%
%TA.AperFunction,ComponentPad*%
%ADD22C,3.200000*%
%TD*%
%TA.AperFunction,ComponentPad*%
%ADD23R,1.905000X2.000000*%
%TD*%
%TA.AperFunction,ComponentPad*%
%ADD24O,1.905000X2.000000*%
%TD*%
%TA.AperFunction,ComponentPad*%
%ADD25R,2.000000X2.000000*%
%TD*%
%TA.AperFunction,ComponentPad*%
%ADD26C,2.000000*%
%TD*%
%TA.AperFunction,ComponentPad*%
%ADD27O,2.000000X2.000000*%
%TD*%
%TA.AperFunction,ComponentPad*%
%ADD28R,2.400000X1.600000*%
%TD*%
%TA.AperFunction,ComponentPad*%
%ADD29O,2.400000X1.600000*%
%TD*%
%TA.AperFunction,ComponentPad*%
%ADD30RoundRect,0.250000X-0.600000X0.600000X-0.600000X-0.600000X0.600000X-0.600000X0.600000X0.600000X0*%
%TD*%
%TA.AperFunction,ComponentPad*%
%ADD31RoundRect,0.249999X-0.850001X-0.850001X0.850001X-0.850001X0.850001X0.850001X-0.850001X0.850001X0*%
%TD*%
%TA.AperFunction,ComponentPad*%
%ADD32C,2.200000*%
%TD*%
%TA.AperFunction,ComponentPad*%
%ADD33RoundRect,0.250000X0.550000X0.550000X-0.550000X0.550000X-0.550000X-0.550000X0.550000X-0.550000X0*%
%TD*%
%TA.AperFunction,ComponentPad*%
%ADD34RoundRect,0.250001X0.949999X0.949999X-0.949999X0.949999X-0.949999X-0.949999X0.949999X-0.949999X0*%
%TD*%
%TA.AperFunction,ComponentPad*%
%ADD35C,2.400000*%
%TD*%
%TA.AperFunction,ComponentPad*%
%ADD36RoundRect,0.250000X0.750000X0.750000X-0.750000X0.750000X-0.750000X-0.750000X0.750000X-0.750000X0*%
%TD*%
%TA.AperFunction,ComponentPad*%
%ADD37R,1.800000X1.800000*%
%TD*%
%TA.AperFunction,ComponentPad*%
%ADD38C,1.800000*%
%TD*%
%TA.AperFunction,ComponentPad*%
%ADD39O,2.000000X1.200000*%
%TD*%
%TA.AperFunction,ViaPad*%
%ADD40C,1.600000*%
%TD*%
%TA.AperFunction,Conductor*%
%ADD41C,0.900000*%
%TD*%
%TA.AperFunction,Conductor*%
%ADD42C,2.000000*%
%TD*%
G04 APERTURE END LIST*
D10*
%TO.P,SW1,3,C*%
%TO.N,GND*%
X85074136Y94000000D03*
%TO.P,SW1,2,B*%
%TO.N,Vin*%
X80248136Y94000000D03*
%TO.P,SW1,1,A*%
%TO.N,Net-(D4-K)*%
X75422136Y94000000D03*
%TD*%
D11*
%TO.P,RV1,1,1*%
%TO.N,GND*%
X56500000Y15500000D03*
%TO.P,RV1,2,2*%
%TO.N,Net-(DS1-VO)*%
X56500000Y12960000D03*
%TO.P,RV1,3,3*%
%TO.N,+5V*%
X56500000Y10420000D03*
%TD*%
D12*
%TO.P,J9,1,Pin_1*%
%TO.N,Net-(J9-Pin_1)*%
X93750000Y60500000D03*
D13*
%TO.P,J9,2,Pin_2*%
%TO.N,Net-(J9-Pin_2)*%
X93750000Y65580000D03*
%TD*%
D14*
%TO.P,J2,1,Pin_1*%
%TO.N,GND*%
X82975000Y3000000D03*
D15*
%TO.P,J2,2,Pin_2*%
%TO.N,Net-(J2-Pin_2)*%
X85515000Y3000000D03*
%TO.P,J2,3,Pin_3*%
%TO.N,/MLI_Servo_1*%
X88055000Y3000000D03*
%TD*%
D12*
%TO.P,J10,1,Pin_1*%
%TO.N,Net-(J10-Pin_1)*%
X94000000Y39750000D03*
D13*
%TO.P,J10,2,Pin_2*%
%TO.N,Net-(J10-Pin_2)*%
X94000000Y44830000D03*
%TD*%
D16*
%TO.P,RN1,1,common*%
%TO.N,GND*%
X11750000Y61500000D03*
D17*
%TO.P,RN1,2,R1*%
%TO.N,Net-(D1-K5)*%
X11750000Y58960000D03*
%TO.P,RN1,3,R2*%
%TO.N,Net-(D1-K4)*%
X11750000Y56420000D03*
%TO.P,RN1,4,R3*%
%TO.N,Net-(D1-K3)*%
X11750000Y53880000D03*
%TO.P,RN1,5,R4*%
%TO.N,Net-(D1-K2)*%
X11750000Y51340000D03*
%TO.P,RN1,6,R5*%
%TO.N,Net-(D1-K1)*%
X11750000Y48800000D03*
%TD*%
D14*
%TO.P,J1,1,Pin_1*%
%TO.N,+5V*%
X50250000Y10750000D03*
%TD*%
D18*
%TO.P,BT1,1,+*%
%TO.N,Vbat*%
X84920000Y82905000D03*
%TO.P,BT1,2,-*%
%TO.N,GND*%
X84920000Y79095000D03*
%TD*%
D14*
%TO.P,J6,1,Pin_1*%
%TO.N,+3V3*%
X31500000Y6500000D03*
%TD*%
%TO.P,J4,1,Pin_1*%
%TO.N,Net-(J4-Pin_1)*%
X67500000Y27000000D03*
D19*
%TO.P,J4,2,Pin_2*%
%TO.N,GND*%
X67500000Y24460000D03*
%TD*%
D20*
%TO.P,U2,1,VIN*%
%TO.N,Vin*%
X58080000Y93500000D03*
D21*
%TO.P,U2,2,OUT*%
%TO.N,Net-(D2-K)*%
X55540000Y93500000D03*
%TO.P,U2,3,GND*%
%TO.N,GND*%
X53000000Y93500000D03*
%TO.P,U2,4,FB*%
%TO.N,+5V*%
X50460000Y93500000D03*
%TO.P,U2,5,~{ON}/OFF*%
%TO.N,GND*%
X47920000Y93500000D03*
%TD*%
D22*
%TO.P,F1,2*%
%TO.N,Net-(D4-K)*%
X79250000Y83000000D03*
%TO.P,F1,1*%
%TO.N,Vbat*%
X56750000Y83000000D03*
%TD*%
D14*
%TO.P,J12,1,Pin_1*%
%TO.N,GND*%
X70000000Y4000000D03*
D15*
%TO.P,J12,2,Pin_2*%
%TO.N,Net-(J12-Pin_2)*%
X72540000Y4000000D03*
%TO.P,J12,3,Pin_3*%
%TO.N,/MLI_Servo_2*%
X75080000Y4000000D03*
%TD*%
D23*
%TO.P,U3,1,IN*%
%TO.N,+5V*%
X24960000Y93305000D03*
D24*
%TO.P,U3,2,GND*%
%TO.N,GND*%
X27500000Y93305000D03*
%TO.P,U3,3,OUT*%
%TO.N,+3V3*%
X30040000Y93305000D03*
%TD*%
D12*
%TO.P,J11,1,Pin_1*%
%TO.N,Net-(J11-Pin_1)*%
X94000000Y19500000D03*
D13*
%TO.P,J11,2,Pin_2*%
%TO.N,Net-(J11-Pin_2)*%
X94000000Y24580000D03*
%TD*%
D25*
%TO.P,U8,1,B*%
%TO.N,unconnected-(U8-B-Pad1)*%
X4000000Y34000000D03*
D26*
%TO.P,U8,2,RX*%
%TO.N,Net-(JP1-C)*%
X4000000Y36540000D03*
%TO.P,U8,3,TX*%
%TO.N,unconnected-(U8-TX-Pad3)*%
X4000000Y39080000D03*
%TO.P,U8,4,VCC*%
%TO.N,unconnected-(U8-VCC-Pad4)*%
X4000000Y41620000D03*
%TO.P,U8,5,A*%
%TO.N,unconnected-(U8-A-Pad5)*%
X4000000Y44160000D03*
%TO.P,U8,6,GND*%
%TO.N,GND*%
X4000000Y46700000D03*
%TD*%
D27*
%TO.P,U6,1,VIN*%
%TO.N,Vin*%
X86350000Y16880000D03*
%TO.P,U6,2,GND*%
%TO.N,GND*%
X86350000Y19420000D03*
%TO.P,U6,3,OUT1*%
%TO.N,Net-(J11-Pin_1)*%
X86350000Y21960000D03*
%TO.P,U6,4,OUT2*%
%TO.N,Net-(J11-Pin_2)*%
X86350000Y24500000D03*
%TO.P,U6,5,IMODE*%
%TO.N,unconnected-(U6-IMODE-Pad5)*%
X86350000Y27040000D03*
%TO.P,U6,6,~{FAULT}*%
%TO.N,unconnected-(U6-~{FAULT}-Pad6)*%
X86350000Y29580000D03*
%TO.P,U6,7,CS*%
%TO.N,unconnected-(U6-CS-Pad7)*%
X86350000Y32120000D03*
%TO.P,U6,8,VREF*%
%TO.N,unconnected-(U6-VREF-Pad8)*%
X73650000Y32120000D03*
%TO.P,U6,9,~{SLEEP}*%
%TO.N,+5V*%
X73650000Y29580000D03*
%TO.P,U6,10,PMODE*%
%TO.N,GND*%
X73650000Y27040000D03*
%TO.P,U6,11,PH*%
%TO.N,/PH_PINCE*%
X73650000Y24500000D03*
%TO.P,U6,12,EN*%
%TO.N,/MLI_Pince*%
X73650000Y21960000D03*
%TO.P,U6,13,GND*%
%TO.N,GND*%
X73650000Y19420000D03*
%TO.P,U6,14,WM*%
%TO.N,unconnected-(U6-WM-Pad14)*%
X73650000Y16880000D03*
%TD*%
D17*
%TO.P,C5,1*%
%TO.N,+3V3*%
X49500000Y33500000D03*
%TO.P,C5,2*%
%TO.N,GND*%
X49500000Y36000000D03*
%TD*%
D14*
%TO.P,JP1,1,A*%
%TO.N,/ESP_RX*%
X13000000Y42540000D03*
D19*
%TO.P,JP1,2,C*%
%TO.N,Net-(JP1-C)*%
X13000000Y40000000D03*
%TO.P,JP1,3,B*%
%TO.N,/ESP_TX*%
X13000000Y37460000D03*
%TD*%
D17*
%TO.P,C1,1*%
%TO.N,+3V3*%
X24500000Y36500000D03*
%TO.P,C1,2*%
%TO.N,GND*%
X24500000Y34000000D03*
%TD*%
D26*
%TO.P,SW2,1,1*%
%TO.N,GND*%
X4250000Y71250000D03*
X10750000Y71250000D03*
%TO.P,SW2,2,2*%
%TO.N,/reset*%
X4250000Y66750000D03*
X10750000Y66750000D03*
%TD*%
D28*
%TO.P,U1,1,PB0*%
%TO.N,Net-(D1-A5)*%
X29375000Y59000000D03*
D29*
%TO.P,U1,2,PB1*%
%TO.N,/PH_DROIT*%
X29375000Y56460000D03*
%TO.P,U1,3,PB2*%
%TO.N,/PH_GAUCHE*%
X29375000Y53920000D03*
%TO.P,U1,4,(OC0A)_PB3*%
%TO.N,/EN_DROIT*%
X29375000Y51380000D03*
%TO.P,U1,5,(OC0B)_PB4*%
%TO.N,/EN_GAUCHE*%
X29375000Y48840000D03*
%TO.P,U1,6,(MOSI)_PB5*%
%TO.N,/MOSI*%
X29375000Y46300000D03*
%TO.P,U1,7,(MISO)_PB6*%
%TO.N,/MISO*%
X29375000Y43760000D03*
%TO.P,U1,8,(SCK)_PB7*%
%TO.N,/SCK*%
X29375000Y41220000D03*
%TO.P,U1,9,~{RESET}*%
%TO.N,/reset*%
X29375000Y38680000D03*
%TO.P,U1,10,VCC*%
%TO.N,+3V3*%
X29375000Y36140000D03*
%TO.P,U1,11,GND*%
%TO.N,GND*%
X29375000Y33600000D03*
%TO.P,U1,12,XTAL2*%
%TO.N,unconnected-(U1-XTAL2-Pad12)*%
X29375000Y31060000D03*
%TO.P,U1,13,XTAL1*%
%TO.N,unconnected-(U1-XTAL1-Pad13)*%
X29375000Y28520000D03*
%TO.P,U1,14,(RXD0)_PD0*%
%TO.N,/ESP_TX*%
X29375000Y25980000D03*
%TO.P,U1,15,(TXD0)_PD1*%
%TO.N,/ESP_RX*%
X29375000Y23440000D03*
%TO.P,U1,16,PD2*%
%TO.N,unconnected-(U1-PD2-Pad16)*%
X29375000Y20900000D03*
%TO.P,U1,17,PD3*%
%TO.N,/PH_PINCE*%
X29375000Y18360000D03*
%TO.P,U1,18,(OC1B)_PD4*%
%TO.N,/MLI_Servo_1*%
X29375000Y15820000D03*
%TO.P,U1,19,(OC1A)_PD5*%
%TO.N,/MLI_Servo_2*%
X29375000Y13280000D03*
%TO.P,U1,20,(OC2B)_PD6*%
%TO.N,unconnected-(U1-(OC2B)_PD6-Pad20)*%
X29375000Y10740000D03*
%TO.P,U1,21,(OC2A)_PD7*%
%TO.N,/MLI_Pince*%
X44615000Y10740000D03*
%TO.P,U1,22,(SCL)_PC0*%
%TO.N,/SCL*%
X44615000Y13280000D03*
%TO.P,U1,23,(SDA)_PC1*%
%TO.N,/SDA*%
X44615000Y15820000D03*
%TO.P,U1,24,PC2*%
%TO.N,/LCD_RS*%
X44615000Y18360000D03*
%TO.P,U1,25,PC3*%
%TO.N,/LCD_RW*%
X44615000Y20900000D03*
%TO.P,U1,26,PC4*%
%TO.N,/LCD_D4*%
X44615000Y23440000D03*
%TO.P,U1,27,PC5*%
%TO.N,/LCD_D5*%
X44615000Y25980000D03*
%TO.P,U1,28,PC6*%
%TO.N,/LCD_D6*%
X44615000Y28520000D03*
%TO.P,U1,29,PC7*%
%TO.N,/LCD_D7*%
X44615000Y31060000D03*
%TO.P,U1,30,AVCC*%
%TO.N,+3V3*%
X44615000Y33600000D03*
%TO.P,U1,31,GND*%
%TO.N,GND*%
X44615000Y36140000D03*
%TO.P,U1,32,AREF*%
%TO.N,unconnected-(U1-AREF-Pad32)*%
X44615000Y38680000D03*
%TO.P,U1,33,(ADC7)_PA7*%
%TO.N,/LCD_E*%
X44615000Y41220000D03*
%TO.P,U1,34,(ADC6)_PA6*%
%TO.N,/RESET_ESP*%
X44615000Y43760000D03*
%TO.P,U1,35,(ADC5)_PA5*%
%TO.N,Net-(J4-Pin_1)*%
X44615000Y46300000D03*
%TO.P,U1,36,(ADC4)_PA4*%
%TO.N,Net-(J5-Pin_1)*%
X44615000Y48840000D03*
%TO.P,U1,37,(ADC3)_PA3*%
%TO.N,unconnected-(U1-(ADC3)_PA3-Pad37)*%
X44615000Y51380000D03*
%TO.P,U1,38,(ADC2)_PA2*%
%TO.N,unconnected-(U1-(ADC2)_PA2-Pad38)*%
X44615000Y53920000D03*
%TO.P,U1,39,(ADC1)_PA1*%
%TO.N,unconnected-(U1-(ADC1)_PA1-Pad39)*%
X44615000Y56460000D03*
%TO.P,U1,40,(ADC0)_PA0*%
%TO.N,unconnected-(U1-(ADC0)_PA0-Pad40)*%
X44615000Y59000000D03*
%TD*%
D17*
%TO.P,R5,1*%
%TO.N,Vin*%
X65150000Y9500000D03*
%TO.P,R5,2*%
%TO.N,Net-(J12-Pin_2)*%
X77850000Y9500000D03*
%TD*%
D30*
%TO.P,J3,1,MISO*%
%TO.N,/MISO*%
X38000000Y68500000D03*
D19*
%TO.P,J3,2,VCC*%
%TO.N,unconnected-(J3-VCC-Pad2)*%
X38000000Y65960000D03*
%TO.P,J3,3,SCK*%
%TO.N,/SCK*%
X35460000Y68500000D03*
%TO.P,J3,4,MOSI*%
%TO.N,/MOSI*%
X35460000Y65960000D03*
%TO.P,J3,5,~{RST}*%
%TO.N,/reset*%
X32920000Y68500000D03*
%TO.P,J3,6,GND*%
%TO.N,GND*%
X32920000Y65960000D03*
%TD*%
D27*
%TO.P,U5,1,VIN*%
%TO.N,Vin*%
X86350000Y36880000D03*
%TO.P,U5,2,GND*%
%TO.N,GND*%
X86350000Y39420000D03*
%TO.P,U5,3,OUT1*%
%TO.N,Net-(J10-Pin_1)*%
X86350000Y41960000D03*
%TO.P,U5,4,OUT2*%
%TO.N,Net-(J10-Pin_2)*%
X86350000Y44500000D03*
%TO.P,U5,5,IMODE*%
%TO.N,unconnected-(U5-IMODE-Pad5)*%
X86350000Y47040000D03*
%TO.P,U5,6,~{FAULT}*%
%TO.N,unconnected-(U5-~{FAULT}-Pad6)*%
X86350000Y49580000D03*
%TO.P,U5,7,CS*%
%TO.N,unconnected-(U5-CS-Pad7)*%
X86350000Y52120000D03*
%TO.P,U5,8,VREF*%
%TO.N,unconnected-(U5-VREF-Pad8)*%
X73650000Y52120000D03*
%TO.P,U5,9,~{SLEEP}*%
%TO.N,+5V*%
X73650000Y49580000D03*
%TO.P,U5,10,PMODE*%
%TO.N,GND*%
X73650000Y47040000D03*
%TO.P,U5,11,PH*%
%TO.N,/PH_GAUCHE*%
X73650000Y44500000D03*
%TO.P,U5,12,EN*%
%TO.N,/EN_GAUCHE*%
X73650000Y41960000D03*
%TO.P,U5,13,GND*%
%TO.N,GND*%
X73650000Y39420000D03*
%TO.P,U5,14,WM*%
%TO.N,unconnected-(U5-WM-Pad14)*%
X73650000Y36880000D03*
%TD*%
D31*
%TO.P,D2,1,K*%
%TO.N,Net-(D2-K)*%
X34880000Y93500000D03*
D32*
%TO.P,D2,2,A*%
%TO.N,GND*%
X42500000Y93500000D03*
%TD*%
D27*
%TO.P,U4,14,WM*%
%TO.N,unconnected-(U4-WM-Pad14)*%
X73900000Y57130000D03*
%TO.P,U4,13,GND*%
%TO.N,GND*%
X73900000Y59670000D03*
%TO.P,U4,12,EN*%
%TO.N,/EN_DROIT*%
X73900000Y62210000D03*
%TO.P,U4,11,PH*%
%TO.N,/PH_DROIT*%
X73900000Y64750000D03*
%TO.P,U4,10,PMODE*%
%TO.N,GND*%
X73900000Y67290000D03*
%TO.P,U4,9,~{SLEEP}*%
%TO.N,+5V*%
X73900000Y69830000D03*
%TO.P,U4,8,VREF*%
%TO.N,unconnected-(U4-VREF-Pad8)*%
X73900000Y72370000D03*
%TO.P,U4,7,CS*%
%TO.N,unconnected-(U4-CS-Pad7)*%
X86600000Y72370000D03*
%TO.P,U4,6,~{FAULT}*%
%TO.N,unconnected-(U4-~{FAULT}-Pad6)*%
X86600000Y69830000D03*
%TO.P,U4,5,IMODE*%
%TO.N,unconnected-(U4-IMODE-Pad5)*%
X86600000Y67290000D03*
%TO.P,U4,4,OUT2*%
%TO.N,Net-(J9-Pin_2)*%
X86600000Y64750000D03*
%TO.P,U4,3,OUT1*%
%TO.N,Net-(J9-Pin_1)*%
X86600000Y62210000D03*
%TO.P,U4,2,GND*%
%TO.N,GND*%
X86600000Y59670000D03*
%TO.P,U4,1,VIN*%
%TO.N,Vin*%
X86600000Y57130000D03*
%TD*%
D33*
%TO.P,C3,1*%
%TO.N,+3V3*%
X17000000Y95000000D03*
D17*
%TO.P,C3,2*%
%TO.N,GND*%
X14500000Y95000000D03*
%TD*%
D34*
%TO.P,C4,1*%
%TO.N,Vin*%
X50500000Y81750000D03*
D35*
%TO.P,C4,2*%
%TO.N,GND*%
X45500000Y81750000D03*
%TD*%
D17*
%TO.P,C2,1*%
%TO.N,+3V3*%
X13000000Y25000000D03*
%TO.P,C2,2*%
%TO.N,GND*%
X13000000Y27500000D03*
%TD*%
D31*
%TO.P,D4,1,K*%
%TO.N,Net-(D4-K)*%
X62690000Y93500000D03*
D32*
%TO.P,D4,2,A*%
%TO.N,GND*%
X70310000Y93500000D03*
%TD*%
D14*
%TO.P,J7,1,Pin_1*%
%TO.N,GND*%
X21750000Y6250000D03*
%TD*%
D17*
%TO.P,R1,1*%
%TO.N,+3V3*%
X18500000Y73310000D03*
%TO.P,R1,2*%
%TO.N,/reset*%
X18500000Y65690000D03*
%TD*%
D14*
%TO.P,DS1,1,VSS*%
%TO.N,GND*%
X61500000Y8000000D03*
D19*
%TO.P,DS1,2,VDD*%
%TO.N,+5V*%
X61500000Y10540000D03*
%TO.P,DS1,3,VO*%
%TO.N,Net-(DS1-VO)*%
X61500000Y13080000D03*
%TO.P,DS1,4,RS*%
%TO.N,/LCD_RS*%
X61500000Y15620000D03*
%TO.P,DS1,5,R/W*%
%TO.N,/LCD_RW*%
X61500000Y18160000D03*
%TO.P,DS1,6,E*%
%TO.N,/LCD_E*%
X61500000Y20700000D03*
%TO.P,DS1,7,D0*%
%TO.N,unconnected-(DS1-D0-Pad7)*%
X61500000Y23240000D03*
%TO.P,DS1,8,D1*%
%TO.N,unconnected-(DS1-D1-Pad8)*%
X61500000Y25780000D03*
%TO.P,DS1,9,D2*%
%TO.N,unconnected-(DS1-D2-Pad9)*%
X61500000Y28320000D03*
%TO.P,DS1,10,D3*%
%TO.N,unconnected-(DS1-D3-Pad10)*%
X61500000Y30860000D03*
%TO.P,DS1,11,D4*%
%TO.N,/LCD_D4*%
X61500000Y33400000D03*
%TO.P,DS1,12,D5*%
%TO.N,/LCD_D5*%
X61500000Y35940000D03*
%TO.P,DS1,13,D6*%
%TO.N,/LCD_D6*%
X61500000Y38480000D03*
%TO.P,DS1,14,D7*%
%TO.N,/LCD_D7*%
X61500000Y41020000D03*
%TO.P,DS1,15,LED(+)*%
%TO.N,Net-(DS1-LED(+))*%
X61500000Y43560000D03*
%TO.P,DS1,16,LED(-)*%
%TO.N,GND*%
X61500000Y46100000D03*
%TD*%
D35*
%TO.P,L1,1,1*%
%TO.N,Net-(D2-K)*%
X30000000Y81500000D03*
%TO.P,L1,2,2*%
%TO.N,+5V*%
X37000000Y81500000D03*
%TD*%
D17*
%TO.P,R2,1*%
%TO.N,+5V*%
X67000000Y39500000D03*
%TO.P,R2,2*%
%TO.N,Net-(DS1-LED(+))*%
X67000000Y31880000D03*
%TD*%
D14*
%TO.P,J5,1,Pin_1*%
%TO.N,Net-(J5-Pin_1)*%
X67500000Y17500000D03*
D19*
%TO.P,J5,2,Pin_2*%
%TO.N,GND*%
X67500000Y14960000D03*
%TD*%
D17*
%TO.P,R4,1*%
%TO.N,Net-(D5-K)*%
X12000000Y77190000D03*
%TO.P,R4,2*%
%TO.N,GND*%
X12000000Y84810000D03*
%TD*%
D14*
%TO.P,J8,1,Pin_1*%
%TO.N,GND*%
X15000000Y15800000D03*
D15*
%TO.P,J8,2,Pin_2*%
%TO.N,+3V3*%
X15000000Y13260000D03*
%TO.P,J8,3,Pin_3*%
%TO.N,/SDA*%
X15000000Y10720000D03*
%TO.P,J8,4,Pin_4*%
%TO.N,/SCL*%
X15000000Y8180000D03*
%TD*%
D36*
%TO.P,C8,1*%
%TO.N,+5V*%
X22500000Y81500000D03*
D26*
%TO.P,C8,2*%
%TO.N,GND*%
X17500000Y81500000D03*
%TD*%
D17*
%TO.P,R3,1*%
%TO.N,Net-(J2-Pin_2)*%
X85500000Y9750000D03*
%TO.P,R3,2*%
%TO.N,Vin*%
X98200000Y9750000D03*
%TD*%
D37*
%TO.P,D5,1,K*%
%TO.N,Net-(D5-K)*%
X3725000Y81000000D03*
D38*
%TO.P,D5,2,A*%
%TO.N,+3V3*%
X6265000Y81000000D03*
%TD*%
D39*
%TO.P,D1,1,A1*%
%TO.N,/EN_GAUCHE*%
X24260000Y48920000D03*
%TO.P,D1,2,A2*%
%TO.N,/EN_DROIT*%
X24260000Y51460000D03*
%TO.P,D1,3,A3*%
%TO.N,/PH_GAUCHE*%
X24260000Y54000000D03*
%TO.P,D1,4,A4*%
%TO.N,/PH_DROIT*%
X24260000Y56540000D03*
%TO.P,D1,5,A5*%
%TO.N,Net-(D1-A5)*%
X24260000Y59080000D03*
%TO.P,D1,6,K5*%
%TO.N,Net-(D1-K5)*%
X16740000Y59080000D03*
%TO.P,D1,7,K4*%
%TO.N,Net-(D1-K4)*%
X16740000Y56540000D03*
%TO.P,D1,8,K3*%
%TO.N,Net-(D1-K3)*%
X16740000Y54000000D03*
%TO.P,D1,9,K2*%
%TO.N,Net-(D1-K2)*%
X16740000Y51460000D03*
%TO.P,D1,10,K1*%
%TO.N,Net-(D1-K1)*%
X16740000Y48920000D03*
%TD*%
D27*
%TO.P,U7,1,RX*%
%TO.N,/ESP_RX*%
X6000000Y28500000D03*
%TO.P,U7,2,VDD*%
%TO.N,+3V3*%
X8540000Y28500000D03*
%TO.P,U7,3,GPIO0*%
X6000000Y25960000D03*
%TO.P,U7,4,~{RST}*%
%TO.N,/RESET_ESP*%
X8540000Y25960000D03*
%TO.P,U7,5,GPIO2*%
%TO.N,+3V3*%
X6000000Y23420000D03*
%TO.P,U7,6,CH_PD*%
X8540000Y23420000D03*
%TO.P,U7,7,GND*%
%TO.N,GND*%
X6000000Y20880000D03*
%TO.P,U7,8,TX*%
%TO.N,/ESP_TX*%
X8540000Y20880000D03*
%TD*%
D40*
%TO.N,/RESET_ESP*%
X10814339Y25935661D03*
X11000000Y19250000D03*
%TO.N,+3V3*%
X22846929Y17244406D03*
X22750000Y22500000D03*
%TO.N,/ESP_RX*%
X3000000Y23750000D03*
X8000000Y18250000D03*
%TO.N,/MLI_Servo_2*%
X33332776Y10082776D03*
%TO.N,/reset*%
X7750000Y63000000D03*
X7750000Y59750000D03*
X20750000Y45750000D03*
X24250000Y45750000D03*
%TO.N,/MLI_Pince*%
X70000000Y9500000D03*
X73250000Y14000000D03*
%TO.N,GND*%
X17500000Y77750000D03*
X21250000Y77500000D03*
X14500000Y31750000D03*
X11500000Y31750000D03*
%TO.N,/ESP_RX*%
X21000000Y17351000D03*
%TO.N,GND*%
X18000000Y28000000D03*
X24500000Y28000000D03*
%TO.N,/ESP_RX*%
X26000000Y24000000D03*
%TO.N,/ESP_TX*%
X24500000Y25750000D03*
%TO.N,/ESP_RX*%
X21000000Y24000000D03*
%TO.N,/ESP_TX*%
X19500000Y25750000D03*
%TO.N,/MLI_Servo_1*%
X37215598Y2000000D03*
%TO.N,Net-(J5-Pin_1)*%
X69250000Y22250000D03*
%TO.N,+5V*%
X67250000Y29500000D03*
X71750000Y29500000D03*
X71750000Y36000000D03*
X68250000Y36000000D03*
%TO.N,/reset*%
X24000000Y65690000D03*
%TO.N,/SCK*%
X40702000Y68250000D03*
%TO.N,/EN_GAUCHE*%
X42250000Y52250000D03*
%TO.N,/RESET_ESP*%
X40500000Y37750000D03*
X40500000Y31750000D03*
%TO.N,GND*%
X42075000Y33600000D03*
%TO.N,/PH_PINCE*%
X39124541Y6875459D03*
%TO.N,/PH_GAUCHE*%
X67750000Y60960000D03*
X67750000Y55500000D03*
%TO.N,GND*%
X80250000Y67500000D03*
X80250000Y47000000D03*
X80000000Y39420000D03*
X79750000Y19420000D03*
X80250000Y59920000D03*
X52700000Y37300000D03*
%TO.N,/EN_GAUCHE*%
X65750000Y55500000D03*
X35500000Y52250000D03*
X65786240Y52271744D03*
%TO.N,/PH_GAUCHE*%
X67750000Y64500000D03*
X67750000Y52250000D03*
%TO.N,/LCD_D5*%
X53939339Y29439339D03*
X57122028Y32622029D03*
%TO.N,/LCD_RW*%
X58250000Y20900000D03*
X55000000Y20900000D03*
%TO.N,/LCD_D4*%
X55000000Y27923588D03*
X58497028Y31247029D03*
%TO.N,/LCD_D7*%
X51314339Y32064339D03*
X54500000Y35250000D03*
%TO.N,/LCD_D6*%
X55805174Y33938882D03*
X52622489Y30756189D03*
%TO.N,/LCD_RS*%
X55000000Y18360000D03*
X58250000Y18360000D03*
%TO.N,/MLI_Servo_1*%
X35750000Y11250000D03*
%TO.N,/MISO*%
X39000000Y58250000D03*
%TO.N,/SCK*%
X40702000Y60000000D03*
%TO.N,/MOSI*%
X37250000Y56250000D03*
%TO.N,/reset*%
X21000000Y65690000D03*
X30585000Y66165000D03*
%TO.N,Net-(J5-Pin_1)*%
X70000000Y41750000D03*
X70042099Y25960000D03*
X70000000Y46000000D03*
%TO.N,/MLI_Servo_2*%
X34897041Y2352959D03*
%TO.N,/PH_PINCE*%
X76000000Y14000000D03*
X72477558Y9658000D03*
X37250000Y13500000D03*
%TD*%
D41*
%TO.N,+3V3*%
X22750000Y22500000D02*
X15500000Y22500000D01*
X15500000Y22500000D02*
X13000000Y25000000D01*
X8620000Y23500000D02*
X8540000Y23420000D01*
X11500000Y23500000D02*
X8620000Y23500000D01*
X13000000Y25000000D02*
X11500000Y23500000D01*
%TO.N,/ESP_RX*%
X5250000Y28500000D02*
X6000000Y28500000D01*
X3000000Y26250000D02*
X5250000Y28500000D01*
X3000000Y23750000D02*
X3000000Y26250000D01*
%TO.N,+3V3*%
X22750000Y36250000D02*
X22500000Y36500000D01*
X22750000Y22500000D02*
X22750000Y36250000D01*
%TO.N,/RESET_ESP*%
X8564339Y25935661D02*
X8540000Y25960000D01*
X10814339Y25935661D02*
X8564339Y25935661D01*
X24000000Y19250000D02*
X11000000Y19250000D01*
%TO.N,/ESP_TX*%
X24500000Y21250000D02*
X24130000Y20880000D01*
X24500000Y25750000D02*
X24500000Y21250000D01*
X24130000Y20880000D02*
X8540000Y20880000D01*
%TO.N,/ESP_RX*%
X26750000Y23250000D02*
X29185000Y23250000D01*
X29185000Y23250000D02*
X29375000Y23440000D01*
X26000000Y24000000D02*
X26750000Y23250000D01*
X18710000Y42540000D02*
X13000000Y42540000D01*
X21000000Y24000000D02*
X21000000Y40250000D01*
X21000000Y40250000D02*
X18710000Y42540000D01*
%TO.N,/RESET_ESP*%
X26750000Y8500000D02*
X26750000Y16500000D01*
X35122735Y8500000D02*
X26750000Y8500000D01*
X40500000Y13877265D02*
X35122735Y8500000D01*
X40500000Y31750000D02*
X40500000Y13877265D01*
X24000000Y19250000D02*
X26750000Y16500000D01*
%TO.N,+3V3*%
X22846929Y15653071D02*
X22846929Y17244406D01*
X24750000Y3750000D02*
X24750000Y13750000D01*
X22846929Y15653071D02*
X24750000Y13750000D01*
%TO.N,/ESP_RX*%
X8899000Y17351000D02*
X8000000Y18250000D01*
X8899000Y17351000D02*
X21000000Y17351000D01*
%TO.N,GND*%
X6000000Y17750000D02*
X6000000Y20880000D01*
X7950000Y15800000D02*
X6000000Y17750000D01*
X15000000Y15800000D02*
X7950000Y15800000D01*
X1440000Y29810000D02*
X1250000Y30000000D01*
X1250000Y23250000D02*
X1250000Y29620000D01*
X3620000Y20880000D02*
X1250000Y23250000D01*
X1250000Y29620000D02*
X1440000Y29810000D01*
X1250000Y30000000D02*
X1250000Y31750000D01*
X6000000Y20880000D02*
X3620000Y20880000D01*
%TO.N,+3V3*%
X6000000Y25960000D02*
X8540000Y28500000D01*
X6000000Y23420000D02*
X6000000Y25960000D01*
X8540000Y23420000D02*
X6000000Y23420000D01*
D42*
%TO.N,GND*%
X54499000Y77001000D02*
X82826000Y77001000D01*
X53500000Y78000000D02*
X54499000Y77001000D01*
X82826000Y77001000D02*
X84920000Y79095000D01*
%TO.N,Vbat*%
X60498000Y79252000D02*
X80186498Y79252000D01*
X56750000Y83000000D02*
X60498000Y79252000D01*
%TO.N,Net-(D4-K)*%
X75422136Y86827864D02*
X79250000Y83000000D01*
X75422136Y94000000D02*
X75422136Y86827864D01*
%TO.N,Vbat*%
X80186498Y79252000D02*
X83839498Y82905000D01*
X83839498Y82905000D02*
X84920000Y82905000D01*
%TO.N,GND*%
X69750000Y90500000D02*
X70310000Y91060000D01*
X59500000Y90500000D02*
X69750000Y90500000D01*
X70310000Y91060000D02*
X70310000Y93500000D01*
X53500000Y84500000D02*
X59500000Y90500000D01*
X53500000Y78000000D02*
X53500000Y84500000D01*
%TO.N,Vin*%
X58080000Y92580000D02*
X58080000Y93500000D01*
X51500000Y86000000D02*
X58080000Y92580000D01*
X50500000Y85750000D02*
X50750000Y86000000D01*
X50750000Y86000000D02*
X51500000Y86000000D01*
X50500000Y81750000D02*
X50500000Y85750000D01*
%TO.N,GND*%
X53000000Y91145216D02*
X53000000Y93500000D01*
X50604784Y88750000D02*
X53000000Y91145216D01*
X47750000Y88750000D02*
X50604784Y88750000D01*
X80250000Y19920000D02*
X80250000Y76750000D01*
X79750000Y19420000D02*
X80250000Y19920000D01*
X86241789Y79095000D02*
X84920000Y79095000D01*
X92500000Y88750000D02*
X92500000Y76000000D01*
X92354784Y88895216D02*
X92500000Y88750000D01*
X85000000Y88895216D02*
X92354784Y88895216D01*
X85074136Y88969352D02*
X85000000Y88895216D01*
X85074136Y94000000D02*
X85074136Y88969352D01*
X89336789Y76000000D02*
X86241789Y79095000D01*
X92500000Y76000000D02*
X89336789Y76000000D01*
%TO.N,Net-(D4-K)*%
X62690000Y96058000D02*
X62690000Y93500000D01*
X62880000Y96248000D02*
X62690000Y96058000D01*
X75252000Y96248000D02*
X62880000Y96248000D01*
X75422136Y96077864D02*
X75252000Y96248000D01*
X75422136Y94000000D02*
X75422136Y96077864D01*
%TO.N,Vin*%
X80248136Y98497136D02*
X80248136Y94000000D01*
X80250000Y98499000D02*
X80248136Y98497136D01*
%TO.N,+5V*%
X37500000Y74750000D02*
X37250000Y75000000D01*
X76750000Y74750000D02*
X37500000Y74750000D01*
X77500000Y74000000D02*
X76750000Y74750000D01*
X77500000Y70500000D02*
X77500000Y74000000D01*
%TO.N,Vin*%
X83481000Y57380000D02*
X83101000Y57000000D01*
X86600000Y57130000D02*
X86350000Y57380000D01*
%TO.N,Net-(J9-Pin_2)*%
X86850000Y65000000D02*
X93170000Y65000000D01*
%TO.N,Net-(J9-Pin_1)*%
X86850000Y62460000D02*
X91790000Y62460000D01*
D41*
%TO.N,/PH_DROIT*%
X30693446Y56460000D02*
X29375000Y56460000D01*
X72400000Y66250000D02*
X40500000Y66250000D01*
D42*
%TO.N,Net-(J9-Pin_1)*%
X86600000Y62210000D02*
X86850000Y62460000D01*
D41*
%TO.N,/PH_DROIT*%
X73900000Y64750000D02*
X72400000Y66250000D01*
%TO.N,/EN_DROIT*%
X29630000Y51380000D02*
X29375000Y51380000D01*
X40710000Y62460000D02*
X29630000Y51380000D01*
X73650000Y62460000D02*
X40710000Y62460000D01*
X73900000Y62210000D02*
X73650000Y62460000D01*
D42*
%TO.N,+5V*%
X73900000Y69830000D02*
X74150000Y70080000D01*
%TO.N,Net-(J9-Pin_1)*%
X91790000Y62460000D02*
X93750000Y60500000D01*
%TO.N,Net-(J9-Pin_2)*%
X86600000Y64750000D02*
X86850000Y65000000D01*
D41*
%TO.N,/PH_DROIT*%
X40500000Y66250000D02*
X40500000Y66266554D01*
X40500000Y66266554D02*
X30693446Y56460000D01*
D42*
%TO.N,Vin*%
X86350000Y57380000D02*
X83481000Y57380000D01*
%TO.N,+5V*%
X74150000Y70080000D02*
X77080000Y70080000D01*
X77080000Y70080000D02*
X77500000Y70500000D01*
%TO.N,GND*%
X45500000Y81750000D02*
X45500000Y78000000D01*
X45500000Y78000000D02*
X53500000Y78000000D01*
X45500000Y88500000D02*
X45500000Y81750000D01*
X45750000Y88750000D02*
X45500000Y88500000D01*
X45750000Y88750000D02*
X47750000Y88750000D01*
%TO.N,Net-(D2-K)*%
X55540000Y97960000D02*
X55540000Y93500000D01*
X55001000Y98499000D02*
X55540000Y97960000D01*
X34880000Y98499000D02*
X55001000Y98499000D01*
X34880000Y93500000D02*
X34880000Y98499000D01*
%TO.N,+5V*%
X50460000Y94160552D02*
X50460000Y93500000D01*
X48769552Y95851000D02*
X50460000Y94160552D01*
X39351000Y95851000D02*
X48769552Y95851000D01*
X39250000Y95750000D02*
X39351000Y95851000D01*
X39250000Y83750000D02*
X39250000Y95750000D01*
X37000000Y81500000D02*
X39250000Y83750000D01*
%TO.N,Vin*%
X58080000Y98330000D02*
X58080000Y93500000D01*
X58250000Y98500000D02*
X58080000Y98330000D01*
X58251000Y98499000D02*
X80250000Y98499000D01*
X58250000Y98500000D02*
X58251000Y98499000D01*
%TO.N,GND*%
X47920000Y88920000D02*
X47750000Y88750000D01*
X47920000Y93500000D02*
X47920000Y88920000D01*
D41*
%TO.N,/MLI_Servo_2*%
X33332776Y10082776D02*
X30135552Y13280000D01*
%TO.N,/MLI_Servo_1*%
X29375000Y15820000D02*
X31180000Y15820000D01*
X31180000Y15820000D02*
X35750000Y11250000D01*
%TO.N,/PH_PINCE*%
X32390000Y18360000D02*
X37250000Y13500000D01*
X29375000Y18360000D02*
X32390000Y18360000D01*
%TO.N,/RESET_ESP*%
X41760000Y43760000D02*
X44615000Y43760000D01*
X40500000Y42500000D02*
X41760000Y43760000D01*
X40500000Y37750000D02*
X40500000Y42500000D01*
D42*
%TO.N,GND*%
X42500000Y89250000D02*
X43000000Y88750000D01*
X42500000Y93500000D02*
X42500000Y89250000D01*
X43000000Y88750000D02*
X45750000Y88750000D01*
%TO.N,Net-(D2-K)*%
X34880000Y86380000D02*
X34880000Y93500000D01*
X30000000Y81500000D02*
X34880000Y86380000D01*
D41*
%TO.N,/reset*%
X7750000Y63750000D02*
X10750000Y66750000D01*
X7750000Y63000000D02*
X7750000Y63750000D01*
X7750000Y45750000D02*
X7750000Y59750000D01*
X20750000Y45750000D02*
X7750000Y45750000D01*
X24250000Y39000000D02*
X24250000Y45750000D01*
X24250000Y39000000D02*
X24570000Y38680000D01*
X29375000Y38680000D02*
X24570000Y38680000D01*
X30585000Y66165000D02*
X30585000Y65915000D01*
%TO.N,GND*%
X27750000Y91500000D02*
X27500000Y91750000D01*
X32000000Y91500000D02*
X27750000Y91500000D01*
X32000000Y97000000D02*
X32000000Y91500000D01*
X31500000Y97500000D02*
X32000000Y97000000D01*
X14500000Y97500000D02*
X31500000Y97500000D01*
X14500000Y95000000D02*
X14500000Y97500000D01*
X27500000Y91750000D02*
X27500000Y93305000D01*
%TO.N,/MLI_Pince*%
X73250000Y14074422D02*
X73250000Y14000000D01*
X75750000Y16574422D02*
X73250000Y14074422D01*
X75750000Y19860000D02*
X75750000Y16574422D01*
X73650000Y21960000D02*
X75750000Y19860000D01*
%TO.N,/PH_PINCE*%
X77500000Y20650000D02*
X73650000Y24500000D01*
X77500000Y15500000D02*
X77500000Y20650000D01*
X76000000Y14000000D02*
X77500000Y15500000D01*
%TO.N,Net-(J5-Pin_1)*%
X67500000Y20500000D02*
X69250000Y22250000D01*
X67500000Y17500000D02*
X67500000Y20500000D01*
%TO.N,GND*%
X61500000Y8255577D02*
X61500000Y8000000D01*
X65040000Y11795577D02*
X61500000Y8255577D01*
X65040000Y14960000D02*
X65040000Y11795577D01*
%TO.N,/MLI_Pince*%
X66500000Y6000000D02*
X70000000Y9500000D01*
X66500000Y5802000D02*
X66500000Y6000000D01*
%TO.N,GND*%
X65040000Y14960000D02*
X67500000Y14960000D01*
X65000000Y15000000D02*
X65040000Y14960000D01*
X65460000Y24460000D02*
X65000000Y24000000D01*
X67500000Y24460000D02*
X65460000Y24460000D01*
X65000000Y24000000D02*
X65000000Y15000000D01*
%TO.N,+5V*%
X63250000Y12290000D02*
X61500000Y10540000D01*
X63250000Y25500000D02*
X63250000Y12290000D01*
X67250000Y29500000D02*
X63250000Y25500000D01*
%TO.N,GND*%
X47250000Y8000000D02*
X61500000Y8000000D01*
X48000000Y15500000D02*
X56500000Y15500000D01*
X47250000Y14750000D02*
X48000000Y15500000D01*
X47250000Y8000000D02*
X47250000Y14750000D01*
%TO.N,+5V*%
X56170000Y10750000D02*
X56500000Y10420000D01*
X50250000Y10750000D02*
X56170000Y10750000D01*
D42*
%TO.N,Vin*%
X86653395Y75500000D02*
X88903395Y73250000D01*
X98000000Y73250000D02*
X98000000Y89250000D01*
X88751000Y98499000D02*
X80250000Y98499000D01*
X84750000Y75500000D02*
X86653395Y75500000D01*
X88903395Y73250000D02*
X98000000Y73250000D01*
X98000000Y89250000D02*
X88751000Y98499000D01*
X83101000Y73851000D02*
X84750000Y75500000D01*
X83101000Y57000000D02*
X83101000Y73851000D01*
%TO.N,+5V*%
X29000000Y75000000D02*
X22500000Y81500000D01*
X37250000Y75000000D02*
X29000000Y75000000D01*
X37000000Y75250000D02*
X37000000Y81500000D01*
X37250000Y75000000D02*
X37000000Y75250000D01*
D41*
%TO.N,GND*%
X17500000Y81500000D02*
X17500000Y77750000D01*
X21380000Y77500000D02*
X21250000Y77500000D01*
X15500000Y31750000D02*
X14500000Y31750000D01*
X15500000Y28000000D02*
X15500000Y31750000D01*
X15500000Y28000000D02*
X13500000Y28000000D01*
X1250000Y31750000D02*
X11500000Y31750000D01*
X1250000Y31750000D02*
X1250000Y46400000D01*
D42*
%TO.N,+5V*%
X22500000Y85867677D02*
X22500000Y81500000D01*
X24960000Y88327677D02*
X22500000Y85867677D01*
D41*
%TO.N,+3V3*%
X21500000Y95750000D02*
X30000000Y95750000D01*
X30040000Y95710000D02*
X30000000Y95750000D01*
X30040000Y93305000D02*
X30040000Y95710000D01*
X21500000Y92750000D02*
X21500000Y95750000D01*
X17000000Y92750000D02*
X21500000Y92750000D01*
X17000000Y92750000D02*
X17000000Y86500000D01*
%TO.N,GND*%
X14500000Y85120000D02*
X14190000Y84810000D01*
X14500000Y95000000D02*
X14500000Y85120000D01*
X14190000Y84810000D02*
X17500000Y81500000D01*
X12000000Y84810000D02*
X14190000Y84810000D01*
%TO.N,+3V3*%
X19250000Y74060000D02*
X18500000Y73310000D01*
X19250000Y86500000D02*
X19250000Y74060000D01*
X17000000Y86500000D02*
X19250000Y86500000D01*
X17000000Y95000000D02*
X17000000Y92750000D01*
X18500000Y73500000D02*
X18500000Y73310000D01*
X11000000Y81000000D02*
X18500000Y73500000D01*
X6265000Y81000000D02*
X11000000Y81000000D01*
%TO.N,GND*%
X1810000Y84810000D02*
X12000000Y84810000D01*
X1500000Y71250000D02*
X1250000Y71500000D01*
X1250000Y71500000D02*
X1250000Y84250000D01*
X1250000Y84250000D02*
X1810000Y84810000D01*
%TO.N,/reset*%
X11810000Y65690000D02*
X18500000Y65690000D01*
X10750000Y66750000D02*
X11810000Y65690000D01*
%TO.N,GND*%
X1250000Y61500000D02*
X11750000Y61500000D01*
X1250000Y61500000D02*
X1250000Y71000000D01*
X1500000Y71250000D02*
X4250000Y71250000D01*
X1250000Y71000000D02*
X1500000Y71250000D01*
X1250000Y46400000D02*
X1250000Y61500000D01*
%TO.N,+3V3*%
X24500000Y36500000D02*
X22500000Y36500000D01*
X24750000Y3750000D02*
X28750000Y3750000D01*
%TO.N,GND*%
X18000000Y28000000D02*
X15500000Y28000000D01*
X13500000Y28000000D02*
X13000000Y27500000D01*
%TO.N,/ESP_TX*%
X17790000Y37460000D02*
X13000000Y37460000D01*
X19500000Y35750000D02*
X17790000Y37460000D01*
X19500000Y25750000D02*
X19500000Y35750000D01*
X29145000Y25750000D02*
X29375000Y25980000D01*
X24500000Y25750000D02*
X29145000Y25750000D01*
%TO.N,GND*%
X24500000Y34000000D02*
X24500000Y28000000D01*
%TO.N,+3V3*%
X22500000Y69310000D02*
X22500000Y36500000D01*
X18500000Y73310000D02*
X22500000Y69310000D01*
%TO.N,GND*%
X1250000Y46400000D02*
X1550000Y46700000D01*
X1550000Y46700000D02*
X4000000Y46700000D01*
%TO.N,/PH_PINCE*%
X41349000Y4651000D02*
X39124541Y6875459D01*
X67401000Y4651000D02*
X41349000Y4651000D01*
X70000000Y7250000D02*
X67401000Y4651000D01*
X70069558Y7250000D02*
X70000000Y7250000D01*
X72477558Y9658000D02*
X70069558Y7250000D01*
%TO.N,/MLI_Pince*%
X44730000Y5802000D02*
X66500000Y5802000D01*
X44730000Y5802000D02*
X44615000Y5917000D01*
X44615000Y5917000D02*
X44615000Y10740000D01*
D42*
%TO.N,Vin*%
X83000000Y11750000D02*
X83101000Y11649000D01*
X83101000Y11649000D02*
X83101000Y16500000D01*
X72655578Y11750000D02*
X83000000Y11750000D01*
X72613578Y11708000D02*
X72655578Y11750000D01*
X67363578Y11708000D02*
X72613578Y11708000D01*
X65155578Y9500000D02*
X67363578Y11708000D01*
X65150000Y9500000D02*
X65155578Y9500000D01*
D41*
%TO.N,/MLI_Servo_2*%
X36044082Y3500000D02*
X34897041Y2352959D01*
X66000000Y2250000D02*
X64750000Y3500000D01*
X66000000Y2102000D02*
X66000000Y2250000D01*
X64750000Y3500000D02*
X36044082Y3500000D01*
X75080000Y2330000D02*
X74852000Y2102000D01*
X74852000Y2102000D02*
X66000000Y2102000D01*
X75080000Y4000000D02*
X75080000Y2330000D01*
%TO.N,/MLI_Servo_1*%
X65299000Y951000D02*
X88000000Y951000D01*
X64250000Y2000000D02*
X65299000Y951000D01*
X37215598Y2000000D02*
X64250000Y2000000D01*
X88000000Y951000D02*
X88055000Y1006000D01*
X88055000Y1006000D02*
X88055000Y3000000D01*
D42*
%TO.N,Vin*%
X91070000Y16880000D02*
X98200000Y9750000D01*
X86350000Y16880000D02*
X91070000Y16880000D01*
D41*
%TO.N,/SDA*%
X15000000Y9731000D02*
X15000000Y10720000D01*
X15642446Y9731000D02*
X15000000Y9731000D01*
X16551000Y8822446D02*
X15642446Y9731000D01*
X16551000Y7537554D02*
X16551000Y8822446D01*
X16151000Y7137554D02*
X16551000Y7537554D01*
X30602000Y2102000D02*
X16151000Y2102000D01*
X44320000Y15820000D02*
X30602000Y2102000D01*
X44615000Y15820000D02*
X44320000Y15820000D01*
X16151000Y2102000D02*
X16151000Y7137554D01*
%TO.N,/SCL*%
X15000000Y951000D02*
X15000000Y8180000D01*
X31078760Y951000D02*
X15000000Y951000D01*
X43407760Y13280000D02*
X31078760Y951000D01*
X44615000Y13280000D02*
X43407760Y13280000D01*
%TO.N,+3V3*%
X19750000Y3750000D02*
X24750000Y3750000D01*
X28750000Y3750000D02*
X31500000Y6500000D01*
X19750000Y9000000D02*
X19750000Y3750000D01*
X15490000Y13260000D02*
X19750000Y9000000D01*
%TO.N,Net-(J4-Pin_1)*%
X68849000Y27000000D02*
X67500000Y27000000D01*
X68849000Y34499000D02*
X68849000Y27000000D01*
X66501000Y34499000D02*
X68849000Y34499000D01*
X64250000Y36750000D02*
X66501000Y34499000D01*
X64250000Y43551760D02*
X64250000Y36750000D01*
X60000000Y48750000D02*
X63500000Y48750000D01*
X64285240Y47964760D02*
X64285240Y43587000D01*
X57750000Y46500000D02*
X60000000Y48750000D01*
X45000000Y46500000D02*
X57750000Y46500000D01*
X44800000Y46300000D02*
X45000000Y46500000D01*
X44615000Y46300000D02*
X44800000Y46300000D01*
X63500000Y48750000D02*
X64285240Y47964760D01*
X64285240Y43587000D02*
X64250000Y43551760D01*
%TO.N,Net-(J5-Pin_1)*%
X70000000Y26002099D02*
X70000000Y41750000D01*
X70042099Y25960000D02*
X70000000Y26002099D01*
%TO.N,+5V*%
X71750000Y29500000D02*
X71750000Y36000000D01*
X71830000Y29580000D02*
X71750000Y29500000D01*
X73650000Y29580000D02*
X71830000Y29580000D01*
X67250000Y36000000D02*
X68250000Y36000000D01*
X67000000Y39500000D02*
X67000000Y36250000D01*
X67000000Y36250000D02*
X67250000Y36000000D01*
%TO.N,/LCD_D7*%
X54750000Y35250000D02*
X54500000Y35250000D01*
X60520000Y41020000D02*
X54750000Y35250000D01*
X50310000Y31060000D02*
X44615000Y31060000D01*
X51314339Y32064339D02*
X50310000Y31060000D01*
%TO.N,/LCD_D4*%
X60467118Y33400000D02*
X61500000Y33400000D01*
X58497028Y31247029D02*
X58497028Y31429910D01*
X58497028Y31429910D02*
X60467118Y33400000D01*
%TO.N,/LCD_D5*%
X57122028Y32664645D02*
X60397383Y35940000D01*
X57122028Y32622029D02*
X57122028Y32664645D01*
X60397383Y35940000D02*
X61500000Y35940000D01*
%TO.N,/LCD_D6*%
X60330296Y38480000D02*
X61500000Y38480000D01*
X55805174Y33954878D02*
X60330296Y38480000D01*
X55805174Y33938882D02*
X55805174Y33954878D01*
%TO.N,GND*%
X61500000Y46100000D02*
X52700000Y37300000D01*
%TO.N,/LCD_E*%
X59949000Y27673735D02*
X59949000Y22251000D01*
X46402735Y41220000D02*
X59949000Y27673735D01*
X44615000Y41220000D02*
X46402735Y41220000D01*
X59949000Y22251000D02*
X61500000Y20700000D01*
%TO.N,GND*%
X67500000Y24460000D02*
X71070000Y24460000D01*
%TO.N,/MISO*%
X37260000Y43760000D02*
X29375000Y43760000D01*
X39000000Y45500000D02*
X37260000Y43760000D01*
X39000000Y58250000D02*
X39000000Y45500000D01*
%TO.N,GND*%
X21380000Y77500000D02*
X32920000Y65960000D01*
%TO.N,/reset*%
X30110000Y65690000D02*
X24000000Y65690000D01*
X30585000Y66165000D02*
X30110000Y65690000D01*
%TO.N,/EN_GAUCHE*%
X65710000Y61000000D02*
X65750000Y60960000D01*
X42250000Y61000000D02*
X65710000Y61000000D01*
X42250000Y52250000D02*
X42250000Y61000000D01*
X35500000Y49000000D02*
X35340000Y48840000D01*
X35500000Y52250000D02*
X35500000Y49000000D01*
X35340000Y48840000D02*
X29375000Y48840000D01*
%TO.N,/SCK*%
X36970000Y41220000D02*
X29375000Y41220000D01*
X40750000Y59952000D02*
X40750000Y45000000D01*
X40702000Y60000000D02*
X40750000Y59952000D01*
X40750000Y45000000D02*
X36970000Y41220000D01*
%TO.N,/MOSI*%
X37250000Y46300000D02*
X29375000Y46300000D01*
X37250000Y56250000D02*
X37250000Y46300000D01*
%TO.N,+3V3*%
X42075000Y36140000D02*
X44615000Y33600000D01*
X29375000Y36140000D02*
X42075000Y36140000D01*
%TO.N,GND*%
X29375000Y33600000D02*
X42075000Y33600000D01*
%TO.N,/EN_GAUCHE*%
X66250000Y43250000D02*
X72360000Y43250000D01*
X65750000Y43750000D02*
X66250000Y43250000D01*
X65750000Y52235504D02*
X65750000Y43750000D01*
X72360000Y43250000D02*
X73650000Y41960000D01*
X65786240Y52271744D02*
X65750000Y52235504D01*
%TO.N,/SCK*%
X40702000Y68349844D02*
X40702000Y68250000D01*
X39000844Y70051000D02*
X40702000Y68349844D01*
X35551000Y70051000D02*
X39000844Y70051000D01*
X35460000Y69960000D02*
X35551000Y70051000D01*
X35460000Y68500000D02*
X35460000Y69960000D01*
%TO.N,/PH_GAUCHE*%
X67750000Y64500000D02*
X41000000Y64500000D01*
X30420000Y53920000D02*
X29375000Y53920000D01*
X41000000Y64500000D02*
X30420000Y53920000D01*
X67750000Y55500000D02*
X67750000Y60960000D01*
X67750000Y44750000D02*
X67750000Y52250000D01*
X68000000Y44500000D02*
X67750000Y44750000D01*
X73650000Y44500000D02*
X68000000Y44500000D01*
%TO.N,/EN_GAUCHE*%
X65750000Y55500000D02*
X65750000Y60960000D01*
%TO.N,Net-(J5-Pin_1)*%
X49775000Y54000000D02*
X44615000Y48840000D01*
X68500000Y54000000D02*
X49775000Y54000000D01*
X70000000Y46000000D02*
X70000000Y52500000D01*
X70000000Y52500000D02*
X68500000Y54000000D01*
D42*
%TO.N,GND*%
X67500000Y14960000D02*
X68546605Y14960000D01*
X68546605Y14960000D02*
X73006605Y19420000D01*
X73006605Y19420000D02*
X73650000Y19420000D01*
D41*
X56500000Y15500000D02*
X56500000Y29000000D01*
X71070000Y24460000D02*
X73650000Y27040000D01*
X21500000Y9250000D02*
X21500000Y6500000D01*
X4250000Y71250000D02*
X10750000Y71250000D01*
X49500000Y36000000D02*
X44755000Y36000000D01*
X56500000Y29000000D02*
X49500000Y36000000D01*
X15000000Y15750000D02*
X21500000Y9250000D01*
X24500000Y34000000D02*
X28975000Y34000000D01*
%TO.N,+3V3*%
X49400000Y33600000D02*
X49500000Y33500000D01*
X29357735Y36140000D02*
X29375000Y36122735D01*
X44615000Y33600000D02*
X49400000Y33600000D01*
X29375000Y36122735D02*
X29375000Y36140000D01*
X24860000Y36140000D02*
X29357735Y36140000D01*
X24500000Y36500000D02*
X24860000Y36140000D01*
D42*
%TO.N,Vin*%
X86350000Y16880000D02*
X83481000Y16880000D01*
X86350000Y36880000D02*
X83481000Y36880000D01*
X83481000Y16880000D02*
X83101000Y16500000D01*
X83101000Y57000000D02*
X83101000Y36500000D01*
X83101000Y36500000D02*
X83101000Y16500000D01*
X83481000Y36880000D02*
X83101000Y36500000D01*
%TO.N,+5V*%
X77420000Y49580000D02*
X77500000Y49500000D01*
D41*
X60467760Y10420000D02*
X56500000Y10420000D01*
D42*
X77500000Y49500000D02*
X77500000Y30160000D01*
X77500000Y70500000D02*
X77500000Y49500000D01*
X73650000Y49580000D02*
X77420000Y49580000D01*
X77500000Y30160000D02*
X76920000Y29580000D01*
X24960000Y93305000D02*
X24960000Y88327677D01*
D41*
X60587760Y10540000D02*
X60467760Y10420000D01*
D42*
X73650000Y29580000D02*
X76920000Y29580000D01*
D41*
X61500000Y10540000D02*
X60587760Y10540000D01*
%TO.N,/EN_GAUCHE*%
X29375000Y48840000D02*
X24340000Y48840000D01*
%TO.N,Net-(D1-K3)*%
X11750000Y53880000D02*
X11870000Y54000000D01*
X11870000Y54000000D02*
X16740000Y54000000D01*
%TO.N,/PH_DROIT*%
X29375000Y56460000D02*
X24340000Y56460000D01*
%TO.N,Net-(D1-K4)*%
X11750000Y56420000D02*
X11830000Y56500000D01*
X16700000Y56500000D02*
X16740000Y56540000D01*
X11830000Y56500000D02*
X16700000Y56500000D01*
%TO.N,/EN_DROIT*%
X29375000Y51380000D02*
X24340000Y51380000D01*
%TO.N,Net-(D1-K5)*%
X11790000Y59000000D02*
X16660000Y59000000D01*
X16660000Y59000000D02*
X16740000Y59080000D01*
X11750000Y58960000D02*
X11790000Y59000000D01*
%TO.N,Net-(D1-A5)*%
X29375000Y59000000D02*
X24340000Y59000000D01*
%TO.N,Net-(D1-K1)*%
X11750000Y48800000D02*
X11950000Y49000000D01*
X11950000Y49000000D02*
X16660000Y49000000D01*
X16660000Y49000000D02*
X16740000Y48920000D01*
%TO.N,/PH_GAUCHE*%
X29375000Y53920000D02*
X24340000Y53920000D01*
%TO.N,Net-(D1-K2)*%
X11750000Y51340000D02*
X11910000Y51500000D01*
X16700000Y51500000D02*
X16740000Y51460000D01*
X11910000Y51500000D02*
X16700000Y51500000D01*
%TO.N,Net-(D5-K)*%
X7535000Y77190000D02*
X12000000Y77190000D01*
X3725000Y81000000D02*
X7535000Y77190000D01*
%TO.N,Net-(DS1-LED(+))*%
X63051000Y42009000D02*
X63051000Y35829000D01*
X61500000Y43560000D02*
X63051000Y42009000D01*
X63051000Y35829000D02*
X67000000Y31880000D01*
%TO.N,Net-(DS1-VO)*%
X56500000Y12960000D02*
X61380000Y12960000D01*
X61380000Y12960000D02*
X61500000Y13080000D01*
%TO.N,/LCD_D5*%
X53606871Y29106871D02*
X50480000Y25980000D01*
X50480000Y25980000D02*
X44615000Y25980000D01*
%TO.N,/LCD_RW*%
X55000000Y20900000D02*
X44615000Y20900000D01*
X61500000Y18160000D02*
X58760000Y20900000D01*
%TO.N,/LCD_D4*%
X50690000Y23440000D02*
X44615000Y23440000D01*
X55000000Y27750000D02*
X50690000Y23440000D01*
%TO.N,/LCD_D6*%
X50270000Y28520000D02*
X44615000Y28520000D01*
X52085705Y30335705D02*
X50270000Y28520000D01*
%TO.N,/LCD_RS*%
X61500000Y15620000D02*
X58760000Y18360000D01*
X55000000Y18360000D02*
X44615000Y18360000D01*
D42*
%TO.N,Net-(J2-Pin_2)*%
X85500000Y9750000D02*
X85500000Y3015000D01*
D41*
%TO.N,/reset*%
X10750000Y66750000D02*
X4250000Y66750000D01*
X21000000Y65690000D02*
X18500000Y65690000D01*
D42*
%TO.N,Net-(J10-Pin_1)*%
X86350000Y41960000D02*
X91790000Y41960000D01*
X91790000Y41960000D02*
X94000000Y39750000D01*
%TO.N,Net-(J10-Pin_2)*%
X86350000Y44500000D02*
X93670000Y44500000D01*
%TO.N,Net-(J11-Pin_2)*%
X86350000Y24500000D02*
X93920000Y24500000D01*
%TO.N,Net-(J11-Pin_1)*%
X91540000Y21960000D02*
X94000000Y19500000D01*
X86350000Y21960000D02*
X91540000Y21960000D01*
%TO.N,Net-(J12-Pin_2)*%
X77850000Y9500000D02*
X75375000Y9500000D01*
X75375000Y9500000D02*
X72540000Y6665000D01*
X72540000Y6665000D02*
X72540000Y4000000D01*
D41*
%TO.N,Net-(JP1-C)*%
X9540000Y36540000D02*
X4000000Y36540000D01*
X13000000Y40000000D02*
X9540000Y36540000D01*
%TD*%
M02*
