%TF.GenerationSoftware,KiCad,Pcbnew,9.0.7*%
%TF.CreationDate,2026-03-19T15:10:09-04:00*%
%TF.ProjectId,Sch_matique_PCB_EQ03,536368e9-6d61-4746-9971-75655f504342,rev?*%
%TF.SameCoordinates,PX84c7b30PY820b040*%
%TF.FileFunction,Soldermask,Top*%
%TF.FilePolarity,Negative*%
%FSLAX46Y46*%
G04 Gerber Fmt 4.6, Leading zero omitted, Abs format (unit mm)*
G04 Created by KiCad (PCBNEW 9.0.7) date 2026-03-19 15:10:09*
%MOMM*%
%LPD*%
G01*
G04 APERTURE LIST*
G04 Aperture macros list*
%AMRoundRect*
0 Rectangle with rounded corners*
0 $1 Rounding radius*
0 $2 $3 $4 $5 $6 $7 $8 $9 X,Y pos of 4 corners*
0 Add a 4 corners polygon primitive as box body*
4,1,4,$2,$3,$4,$5,$6,$7,$8,$9,$2,$3,0*
0 Add four circle primitives for the rounded corners*
1,1,$1+$1,$2,$3*
1,1,$1+$1,$4,$5*
1,1,$1+$1,$6,$7*
1,1,$1+$1,$8,$9*
0 Add four rect primitives between the rounded corners*
20,1,$1+$1,$2,$3,$4,$5,0*
20,1,$1+$1,$4,$5,$6,$7,0*
20,1,$1+$1,$6,$7,$8,$9,0*
20,1,$1+$1,$8,$9,$2,$3,0*%
G04 Aperture macros list end*
%ADD10O,3.000000X6.000000*%
%ADD11C,3.200000*%
%ADD12C,1.440000*%
%ADD13R,3.000000X3.000000*%
%ADD14C,3.000000*%
%ADD15R,1.700000X1.700000*%
%ADD16O,1.700000X1.700000*%
%ADD17R,1.600000X1.600000*%
%ADD18C,1.600000*%
%ADD19C,2.500000*%
%ADD20O,5.000000X3.000000*%
%ADD21C,1.700000*%
%ADD22R,1.600000X2.200000*%
%ADD23O,1.600000X2.200000*%
%ADD24C,3.300000*%
%ADD25R,1.905000X2.000000*%
%ADD26O,1.905000X2.000000*%
%ADD27R,2.000000X2.000000*%
%ADD28C,2.000000*%
%ADD29O,2.000000X2.000000*%
%ADD30R,2.400000X1.600000*%
%ADD31O,2.400000X1.600000*%
%ADD32RoundRect,0.250000X-0.600000X0.600000X-0.600000X-0.600000X0.600000X-0.600000X0.600000X0.600000X0*%
%ADD33RoundRect,0.150000X-0.625000X0.150000X-0.625000X-0.150000X0.625000X-0.150000X0.625000X0.150000X0*%
%ADD34RoundRect,0.250000X-0.650000X0.350000X-0.650000X-0.350000X0.650000X-0.350000X0.650000X0.350000X0*%
%ADD35RoundRect,0.249999X-0.850001X-0.850001X0.850001X-0.850001X0.850001X0.850001X-0.850001X0.850001X0*%
%ADD36C,2.200000*%
%ADD37RoundRect,0.250000X0.550000X0.550000X-0.550000X0.550000X-0.550000X-0.550000X0.550000X-0.550000X0*%
%ADD38RoundRect,0.250001X0.949999X0.949999X-0.949999X0.949999X-0.949999X-0.949999X0.949999X-0.949999X0*%
%ADD39C,2.400000*%
%ADD40RoundRect,0.250000X0.750000X0.750000X-0.750000X0.750000X-0.750000X-0.750000X0.750000X-0.750000X0*%
%ADD41R,1.800000X1.800000*%
%ADD42C,1.800000*%
%ADD43O,2.000000X1.200000*%
G04 APERTURE END LIST*
D10*
%TO.C,SW1*%
X85074136Y94000000D03*
X80248136Y94000000D03*
X75422136Y94000000D03*
%TD*%
D11*
%TO.C,H3*%
X97000000Y3000000D03*
%TD*%
D12*
%TO.C,RV1*%
X56500000Y15500000D03*
X56500000Y12960000D03*
X56500000Y10420000D03*
%TD*%
D13*
%TO.C,J9*%
X93750000Y60500000D03*
D14*
X93750000Y65580000D03*
%TD*%
D15*
%TO.C,J2*%
X82975000Y3000000D03*
D16*
X85515000Y3000000D03*
X88055000Y3000000D03*
%TD*%
D13*
%TO.C,J10*%
X94000000Y39750000D03*
D14*
X94000000Y44830000D03*
%TD*%
D17*
%TO.C,RN1*%
X11750000Y61500000D03*
D18*
X11750000Y58960000D03*
X11750000Y56420000D03*
X11750000Y53880000D03*
X11750000Y51340000D03*
X11750000Y48800000D03*
%TD*%
D15*
%TO.C,J1*%
X50250000Y10750000D03*
%TD*%
D19*
%TO.C,BT1*%
X95080000Y82905000D03*
X90000000Y82905000D03*
X95080000Y79095000D03*
X90000000Y79095000D03*
D20*
X84920000Y82905000D03*
X84920000Y79095000D03*
%TD*%
D15*
%TO.C,J6*%
X31500000Y6500000D03*
%TD*%
%TO.C,J4*%
X67500000Y27000000D03*
D21*
X67500000Y24460000D03*
%TD*%
D11*
%TO.C,H2*%
X3000000Y3000000D03*
%TD*%
D22*
%TO.C,U2*%
X58080000Y93500000D03*
D23*
X55540000Y93500000D03*
X53000000Y93500000D03*
X50460000Y93500000D03*
X47920000Y93500000D03*
%TD*%
D11*
%TO.C,F1*%
X79250000Y83000000D03*
X56750000Y83000000D03*
D24*
X68000000Y83000000D03*
%TD*%
D15*
%TO.C,J12*%
X70000000Y4000000D03*
D16*
X72540000Y4000000D03*
X75080000Y4000000D03*
%TD*%
D11*
%TO.C,H4*%
X97000000Y97000000D03*
%TD*%
D25*
%TO.C,U3*%
X24960000Y93305000D03*
D26*
X27500000Y93305000D03*
X30040000Y93305000D03*
%TD*%
D13*
%TO.C,J11*%
X94000000Y19500000D03*
D14*
X94000000Y24580000D03*
%TD*%
D27*
%TO.C,U8*%
X4000000Y34000000D03*
D28*
X4000000Y36540000D03*
X4000000Y39080000D03*
X4000000Y41620000D03*
X4000000Y44160000D03*
X4000000Y46700000D03*
%TD*%
D29*
%TO.C,U6*%
X86350000Y16880000D03*
X86350000Y19420000D03*
X86350000Y21960000D03*
X86350000Y24500000D03*
X86350000Y27040000D03*
X86350000Y29580000D03*
X86350000Y32120000D03*
X73650000Y32120000D03*
X73650000Y29580000D03*
X73650000Y27040000D03*
X73650000Y24500000D03*
X73650000Y21960000D03*
X73650000Y19420000D03*
X73650000Y16880000D03*
%TD*%
D18*
%TO.C,C5*%
X49500000Y33500000D03*
X49500000Y36000000D03*
%TD*%
D15*
%TO.C,JP1*%
X13000000Y42540000D03*
D21*
X13000000Y40000000D03*
X13000000Y37460000D03*
%TD*%
D18*
%TO.C,C1*%
X24500000Y36500000D03*
X24500000Y34000000D03*
%TD*%
D11*
%TO.C,H1*%
X3000000Y97000000D03*
%TD*%
D28*
%TO.C,SW2*%
X4250000Y71250000D03*
X10750000Y71250000D03*
X4250000Y66750000D03*
X10750000Y66750000D03*
%TD*%
D30*
%TO.C,U1*%
X29375000Y59000000D03*
D31*
X29375000Y56460000D03*
X29375000Y53920000D03*
X29375000Y51380000D03*
X29375000Y48840000D03*
X29375000Y46300000D03*
X29375000Y43760000D03*
X29375000Y41220000D03*
X29375000Y38680000D03*
X29375000Y36140000D03*
X29375000Y33600000D03*
X29375000Y31060000D03*
X29375000Y28520000D03*
X29375000Y25980000D03*
X29375000Y23440000D03*
X29375000Y20900000D03*
X29375000Y18360000D03*
X29375000Y15820000D03*
X29375000Y13280000D03*
X29375000Y10740000D03*
X44615000Y10740000D03*
X44615000Y13280000D03*
X44615000Y15820000D03*
X44615000Y18360000D03*
X44615000Y20900000D03*
X44615000Y23440000D03*
X44615000Y25980000D03*
X44615000Y28520000D03*
X44615000Y31060000D03*
X44615000Y33600000D03*
X44615000Y36140000D03*
X44615000Y38680000D03*
X44615000Y41220000D03*
X44615000Y43760000D03*
X44615000Y46300000D03*
X44615000Y48840000D03*
X44615000Y51380000D03*
X44615000Y53920000D03*
X44615000Y56460000D03*
X44615000Y59000000D03*
%TD*%
D18*
%TO.C,R5*%
X65150000Y9500000D03*
X77850000Y9500000D03*
%TD*%
D32*
%TO.C,J3*%
X38000000Y68500000D03*
D21*
X38000000Y65960000D03*
X35460000Y68500000D03*
X35460000Y65960000D03*
X32920000Y68500000D03*
X32920000Y65960000D03*
%TD*%
D29*
%TO.C,U5*%
X86350000Y36880000D03*
X86350000Y39420000D03*
X86350000Y41960000D03*
X86350000Y44500000D03*
X86350000Y47040000D03*
X86350000Y49580000D03*
X86350000Y52120000D03*
X73650000Y52120000D03*
X73650000Y49580000D03*
X73650000Y47040000D03*
X73650000Y44500000D03*
X73650000Y41960000D03*
X73650000Y39420000D03*
X73650000Y36880000D03*
%TD*%
D33*
%TO.C,U9*%
X6515635Y12000000D03*
X6515635Y15000000D03*
X6515635Y14000000D03*
X6515635Y13000000D03*
D34*
X2640635Y16300000D03*
X2640635Y10700000D03*
%TD*%
D35*
%TO.C,D2*%
X34880000Y93500000D03*
D36*
X42500000Y93500000D03*
%TD*%
D29*
%TO.C,U4*%
X73900000Y57130000D03*
X73900000Y59670000D03*
X73900000Y62210000D03*
X73900000Y64750000D03*
X73900000Y67290000D03*
X73900000Y69830000D03*
X73900000Y72370000D03*
X86600000Y72370000D03*
X86600000Y69830000D03*
X86600000Y67290000D03*
X86600000Y64750000D03*
X86600000Y62210000D03*
X86600000Y59670000D03*
X86600000Y57130000D03*
%TD*%
D37*
%TO.C,C3*%
X17000000Y95000000D03*
D18*
X14500000Y95000000D03*
%TD*%
D38*
%TO.C,C4*%
X50500000Y81750000D03*
D39*
X45500000Y81750000D03*
%TD*%
D18*
%TO.C,C2*%
X13000000Y25000000D03*
X13000000Y27500000D03*
%TD*%
D35*
%TO.C,D4*%
X62690000Y93500000D03*
D36*
X70310000Y93500000D03*
%TD*%
D15*
%TO.C,J7*%
X21750000Y6250000D03*
%TD*%
D18*
%TO.C,R1*%
X18500000Y73310000D03*
X18500000Y65690000D03*
%TD*%
D15*
%TO.C,DS1*%
X61500000Y8000000D03*
D21*
X61500000Y10540000D03*
X61500000Y13080000D03*
X61500000Y15620000D03*
X61500000Y18160000D03*
X61500000Y20700000D03*
X61500000Y23240000D03*
X61500000Y25780000D03*
X61500000Y28320000D03*
X61500000Y30860000D03*
X61500000Y33400000D03*
X61500000Y35940000D03*
X61500000Y38480000D03*
X61500000Y41020000D03*
X61500000Y43560000D03*
X61500000Y46100000D03*
%TD*%
D39*
%TO.C,L1*%
X30000000Y81500000D03*
X37000000Y81500000D03*
%TD*%
D18*
%TO.C,R2*%
X67000000Y39500000D03*
X67000000Y31880000D03*
%TD*%
D15*
%TO.C,J5*%
X67500000Y17500000D03*
D21*
X67500000Y14960000D03*
%TD*%
D18*
%TO.C,R4*%
X12000000Y77190000D03*
X12000000Y84810000D03*
%TD*%
D15*
%TO.C,J8*%
X15000000Y15800000D03*
D16*
X15000000Y13260000D03*
X15000000Y10720000D03*
X15000000Y8180000D03*
%TD*%
D40*
%TO.C,C8*%
X22500000Y81500000D03*
D28*
X17500000Y81500000D03*
%TD*%
D18*
%TO.C,R3*%
X85500000Y9750000D03*
X98200000Y9750000D03*
%TD*%
D41*
%TO.C,D5*%
X3725000Y81000000D03*
D42*
X6265000Y81000000D03*
%TD*%
D43*
%TO.C,D1*%
X24260000Y48920000D03*
X24260000Y51460000D03*
X24260000Y54000000D03*
X24260000Y56540000D03*
X24260000Y59080000D03*
X16740000Y59080000D03*
X16740000Y56540000D03*
X16740000Y54000000D03*
X16740000Y51460000D03*
X16740000Y48920000D03*
%TD*%
D29*
%TO.C,U7*%
X6000000Y28500000D03*
X8540000Y28500000D03*
X6000000Y25960000D03*
X8540000Y25960000D03*
X6000000Y23420000D03*
X8540000Y23420000D03*
X6000000Y20880000D03*
X8540000Y20880000D03*
%TD*%
M02*
