%TF.GenerationSoftware,KiCad,Pcbnew,9.0.7*%
%TF.CreationDate,2026-03-19T15:10:14-04:00*%
%TF.ProjectId,Sch_matique_PCB_EQ03,536368e9-6d61-4746-9971-75655f504342,rev?*%
%TF.SameCoordinates,PX84c7b30PY820b040*%
%TF.FileFunction,Plated,1,2,PTH,Drill*%
%TF.FilePolarity,Positive*%
%FSLAX46Y46*%
G04 Gerber Fmt 4.6, Leading zero omitted, Abs format (unit mm)*
G04 Created by KiCad (PCBNEW 9.0.7) date 2026-03-19 15:10:14*
%MOMM*%
%LPD*%
G01*
G04 APERTURE LIST*
%TA.AperFunction,ViaDrill*%
%ADD10C,0.800000*%
%TD*%
%TA.AperFunction,ComponentDrill*%
%ADD11C,0.800000*%
%TD*%
%TA.AperFunction,ComponentDrill*%
%ADD12C,0.900000*%
%TD*%
%TA.AperFunction,ComponentDrill*%
%ADD13C,1.000000*%
%TD*%
%TA.AperFunction,ComponentDrill*%
%ADD14C,1.100000*%
%TD*%
%TA.AperFunction,ComponentDrill*%
%ADD15C,1.200000*%
%TD*%
%TA.AperFunction,ComponentDrill*%
%ADD16C,1.500000*%
%TD*%
%TA.AperFunction,ComponentDrill*%
%ADD17C,1.520000*%
%TD*%
%TA.AperFunction,ComponentDrill*%
%ADD18C,1.600000*%
%TD*%
%TA.AperFunction,ComponentDrill*%
%ADD19C,1.900000*%
%TD*%
G04 APERTURE END LIST*
D10*
X3000000Y23750000D03*
X7750000Y63000000D03*
X7750000Y59750000D03*
X8000000Y18250000D03*
X10814339Y25935661D03*
X11000000Y19250000D03*
X11500000Y31750000D03*
X14500000Y31750000D03*
X17500000Y77750000D03*
X18000000Y28000000D03*
X19500000Y25750000D03*
X20750000Y45750000D03*
X21000000Y65690000D03*
X21000000Y24000000D03*
X21000000Y17351000D03*
X21250000Y77500000D03*
X22750000Y22500000D03*
X22846929Y17244406D03*
X24000000Y65690000D03*
X24250000Y45750000D03*
X24500000Y28000000D03*
X24500000Y25750000D03*
X26000000Y24000000D03*
X30585000Y66165000D03*
X33332776Y10082776D03*
X34897041Y2352959D03*
X35500000Y52250000D03*
X35750000Y11250000D03*
X37215598Y2000000D03*
X37250000Y56250000D03*
X37250000Y13500000D03*
X39000000Y58250000D03*
X39124541Y6875459D03*
X40500000Y37750000D03*
X40500000Y31750000D03*
X40702000Y68250000D03*
X40702000Y60000000D03*
X42075000Y33600000D03*
X42250000Y52250000D03*
X51314339Y32064339D03*
X52622489Y30756189D03*
X52700000Y37300000D03*
X53939339Y29439339D03*
X54500000Y35250000D03*
X55000000Y27923588D03*
X55000000Y20900000D03*
X55000000Y18360000D03*
X55805174Y33938882D03*
X57122028Y32622029D03*
X58250000Y20900000D03*
X58250000Y18360000D03*
X58497028Y31247029D03*
X65750000Y55500000D03*
X65786240Y52271744D03*
X67250000Y29500000D03*
X67750000Y64500000D03*
X67750000Y60960000D03*
X67750000Y55500000D03*
X67750000Y52250000D03*
X68250000Y36000000D03*
X69250000Y22250000D03*
X70000000Y46000000D03*
X70000000Y41750000D03*
X70000000Y9500000D03*
X70042099Y25960000D03*
X71750000Y36000000D03*
X71750000Y29500000D03*
X72477558Y9658000D03*
X73250000Y14000000D03*
X76000000Y14000000D03*
X79750000Y19420000D03*
X80000000Y39420000D03*
X80250000Y67500000D03*
X80250000Y59920000D03*
X80250000Y47000000D03*
D11*
%TO.C,RN1*%
X11750000Y61500000D03*
X11750000Y58960000D03*
X11750000Y56420000D03*
X11750000Y53880000D03*
X11750000Y51340000D03*
X11750000Y48800000D03*
%TO.C,R4*%
X12000000Y84810000D03*
X12000000Y77190000D03*
%TO.C,C2*%
X13000000Y27500000D03*
X13000000Y25000000D03*
%TO.C,C3*%
X14500000Y95000000D03*
%TO.C,D1*%
X16740000Y59080000D03*
X16740000Y56540000D03*
X16740000Y54000000D03*
X16740000Y51460000D03*
X16740000Y48920000D03*
%TO.C,C3*%
X17000000Y95000000D03*
%TO.C,R1*%
X18500000Y73310000D03*
X18500000Y65690000D03*
%TO.C,D1*%
X24260000Y59080000D03*
X24260000Y56540000D03*
X24260000Y54000000D03*
X24260000Y51460000D03*
X24260000Y48920000D03*
%TO.C,C1*%
X24500000Y36500000D03*
X24500000Y34000000D03*
%TO.C,U1*%
X29375000Y59000000D03*
X29375000Y56460000D03*
X29375000Y53920000D03*
X29375000Y51380000D03*
X29375000Y48840000D03*
X29375000Y46300000D03*
X29375000Y43760000D03*
X29375000Y41220000D03*
X29375000Y38680000D03*
X29375000Y36140000D03*
X29375000Y33600000D03*
X29375000Y31060000D03*
X29375000Y28520000D03*
X29375000Y25980000D03*
X29375000Y23440000D03*
X29375000Y20900000D03*
X29375000Y18360000D03*
X29375000Y15820000D03*
X29375000Y13280000D03*
X29375000Y10740000D03*
X44615000Y59000000D03*
X44615000Y56460000D03*
X44615000Y53920000D03*
X44615000Y51380000D03*
X44615000Y48840000D03*
X44615000Y46300000D03*
X44615000Y43760000D03*
X44615000Y41220000D03*
X44615000Y38680000D03*
X44615000Y36140000D03*
X44615000Y33600000D03*
X44615000Y31060000D03*
X44615000Y28520000D03*
X44615000Y25980000D03*
X44615000Y23440000D03*
X44615000Y20900000D03*
X44615000Y18360000D03*
X44615000Y15820000D03*
X44615000Y13280000D03*
X44615000Y10740000D03*
%TO.C,C5*%
X49500000Y36000000D03*
X49500000Y33500000D03*
%TO.C,RV1*%
X56500000Y15500000D03*
X56500000Y12960000D03*
X56500000Y10420000D03*
%TO.C,R5*%
X65150000Y9500000D03*
%TO.C,R2*%
X67000000Y39500000D03*
X67000000Y31880000D03*
%TO.C,R5*%
X77850000Y9500000D03*
%TO.C,R3*%
X85500000Y9750000D03*
X98200000Y9750000D03*
D12*
%TO.C,D5*%
X3725000Y81000000D03*
X6265000Y81000000D03*
D13*
%TO.C,U8*%
X4000000Y46700000D03*
X4000000Y44160000D03*
X4000000Y41620000D03*
X4000000Y39080000D03*
X4000000Y36540000D03*
X4000000Y34000000D03*
%TO.C,U7*%
X6000000Y28500000D03*
X6000000Y25960000D03*
X6000000Y23420000D03*
X6000000Y20880000D03*
X8540000Y28500000D03*
X8540000Y25960000D03*
X8540000Y23420000D03*
X8540000Y20880000D03*
%TO.C,JP1*%
X13000000Y42540000D03*
X13000000Y40000000D03*
X13000000Y37460000D03*
%TO.C,J8*%
X15000000Y15800000D03*
X15000000Y13260000D03*
X15000000Y10720000D03*
X15000000Y8180000D03*
%TO.C,C8*%
X17500000Y81500000D03*
%TO.C,J7*%
X21750000Y6250000D03*
%TO.C,C8*%
X22500000Y81500000D03*
%TO.C,J6*%
X31500000Y6500000D03*
%TO.C,J3*%
X32920000Y68500000D03*
X32920000Y65960000D03*
X35460000Y68500000D03*
X35460000Y65960000D03*
X38000000Y68500000D03*
X38000000Y65960000D03*
%TO.C,J1*%
X50250000Y10750000D03*
%TO.C,DS1*%
X61500000Y46100000D03*
X61500000Y43560000D03*
X61500000Y41020000D03*
X61500000Y38480000D03*
X61500000Y35940000D03*
X61500000Y33400000D03*
X61500000Y30860000D03*
X61500000Y28320000D03*
X61500000Y25780000D03*
X61500000Y23240000D03*
X61500000Y20700000D03*
X61500000Y18160000D03*
X61500000Y15620000D03*
X61500000Y13080000D03*
X61500000Y10540000D03*
X61500000Y8000000D03*
%TO.C,J4*%
X67500000Y27000000D03*
X67500000Y24460000D03*
%TO.C,J5*%
X67500000Y17500000D03*
X67500000Y14960000D03*
%TO.C,J12*%
X70000000Y4000000D03*
X72540000Y4000000D03*
%TO.C,U5*%
X73650000Y52120000D03*
X73650000Y49580000D03*
X73650000Y47040000D03*
X73650000Y44500000D03*
X73650000Y41960000D03*
X73650000Y39420000D03*
X73650000Y36880000D03*
%TO.C,U6*%
X73650000Y32120000D03*
X73650000Y29580000D03*
X73650000Y27040000D03*
X73650000Y24500000D03*
X73650000Y21960000D03*
X73650000Y19420000D03*
X73650000Y16880000D03*
%TO.C,U4*%
X73900000Y72370000D03*
X73900000Y69830000D03*
X73900000Y67290000D03*
X73900000Y64750000D03*
X73900000Y62210000D03*
X73900000Y59670000D03*
X73900000Y57130000D03*
%TO.C,J12*%
X75080000Y4000000D03*
%TO.C,J2*%
X82975000Y3000000D03*
X85515000Y3000000D03*
%TO.C,U5*%
X86350000Y52120000D03*
X86350000Y49580000D03*
X86350000Y47040000D03*
X86350000Y44500000D03*
X86350000Y41960000D03*
X86350000Y39420000D03*
X86350000Y36880000D03*
%TO.C,U6*%
X86350000Y32120000D03*
X86350000Y29580000D03*
X86350000Y27040000D03*
X86350000Y24500000D03*
X86350000Y21960000D03*
X86350000Y19420000D03*
X86350000Y16880000D03*
%TO.C,U4*%
X86600000Y72370000D03*
X86600000Y69830000D03*
X86600000Y67290000D03*
X86600000Y64750000D03*
X86600000Y62210000D03*
X86600000Y59670000D03*
X86600000Y57130000D03*
%TO.C,J2*%
X88055000Y3000000D03*
D14*
%TO.C,SW2*%
X4250000Y71250000D03*
X4250000Y66750000D03*
X10750000Y71250000D03*
X10750000Y66750000D03*
%TO.C,D2*%
X34880000Y93500000D03*
X42500000Y93500000D03*
%TO.C,U2*%
X47920000Y93500000D03*
X50460000Y93500000D03*
X53000000Y93500000D03*
X55540000Y93500000D03*
X58080000Y93500000D03*
%TO.C,D4*%
X62690000Y93500000D03*
X70310000Y93500000D03*
D15*
%TO.C,U3*%
X24960000Y93305000D03*
X27500000Y93305000D03*
%TO.C,L1*%
X30000000Y81500000D03*
%TO.C,U3*%
X30040000Y93305000D03*
%TO.C,L1*%
X37000000Y81500000D03*
%TO.C,C4*%
X45500000Y81750000D03*
X50500000Y81750000D03*
D16*
%TO.C,BT1*%
X84920000Y82905000D03*
X84920000Y79095000D03*
D17*
%TO.C,J9*%
X93750000Y65580000D03*
X93750000Y60500000D03*
%TO.C,J10*%
X94000000Y44830000D03*
X94000000Y39750000D03*
%TO.C,J11*%
X94000000Y24580000D03*
X94000000Y19500000D03*
D18*
%TO.C,F1*%
X56750000Y83000000D03*
X79250000Y83000000D03*
D19*
%TO.C,SW1*%
X75422136Y94000000D03*
X80248136Y94000000D03*
X85074136Y94000000D03*
M02*
